<?xml version="1.0" encoding="utf-8"?>
<!-- Generator: Adobe Illustrator 26.3.1, SVG Export Plug-In . SVG Version: 6.00 Build 0)  -->
<svg version="1.1" id="Layer_1" xmlns="http://www.w3.org/2000/svg" xmlns:xlink="http://www.w3.org/1999/xlink" x="0px" y="0px"
	 viewBox="0 0 2000 2000" style="enable-background:new 0 0 2000 2000;" xml:space="preserve">
<style type="text/css">
	.st0{fill:#3795C6;}
	.st1{fill:#0D1838;}
</style>
<circle class="st0" cx="996.6" cy="997.2" r="988.7"/>
<path class="st1" d="M1392.8,652.5H600.4c-61,0-110.7,49.7-110.7,110.7V1237c0,61,49.7,110.7,110.7,110.7h792.4
	c61,0,110.7-49.7,110.7-110.7V763.2C1503.5,702.2,1453.8,652.5,1392.8,652.5z M1288.3,762.5l-273.5,206.4
	c-8.8,6.7-21.2,6.7-30.1,0.1L707,762.5H1288.3z M1392.8,1237.7H600.4c-0.4,0-0.7-0.3-0.7-0.7V819.8l319.4,237.4
	c23.5,17.5,51.4,26.7,80.6,26.7c0.1,0,0.3,0,0.4,0c29.4-0.1,57.4-9.5,80.9-27.2l312.5-235.8V1237
	C1393.5,1237.4,1393.2,1237.7,1392.8,1237.7z"/>
</svg>
