<svg xmlns="http://www.w3.org/2000/svg" xmlns:xlink="http://www.w3.org/1999/xlink" width="900" height="800" viewBox="0 0 200 177.78"><defs><clipPath id="b"><rect width="200" height="200"/></clipPath></defs><g id="a" clip-path="url(#b)"><rect width="200" height="200" fill="#f5f5f5"/><g transform="translate(5 1)"><path d="M-32.021,0h2.4L-33.3-10.569h-2.6L-39.565,0h2.219l.813-2.52h3.713Zm-2.71-8.372h.132l1.311,4.146h-2.769Zm9.148,8.5a2.64,2.64,0,0,0,2.468-1.392h.132V0h2.065V-11.162h-2.131V-6.79h-.125a2.552,2.552,0,0,0-2.41-1.421c-2.029,0-3.289,1.589-3.289,4.16S-27.62.125-25.583.125Zm.725-6.548c1.135,0,1.831.916,1.831,2.388s-.688,2.38-1.831,2.38-1.824-.894-1.824-2.388S-25.994-6.423-24.858-6.423ZM-15.813.125a2.64,2.64,0,0,0,2.468-1.392h.132V0h2.065V-11.162h-2.131V-6.79H-13.4a2.552,2.552,0,0,0-2.41-1.421c-2.029,0-3.289,1.589-3.289,4.16S-17.849.125-15.813.125Zm.725-6.548c1.135,0,1.831.916,1.831,2.388s-.688,2.38-1.831,2.38-1.824-.894-1.824-2.388S-16.223-6.423-15.088-6.423ZM-2.644,0V-10.569H-4.856V0ZM-.293,0H1.838V-4.863A1.44,1.44,0,0,1,3.267-6.416,1.225,1.225,0,0,1,4.6-5.068V0H6.65V-4.944A1.375,1.375,0,0,1,8.071-6.416c.9,0,1.348.476,1.348,1.436V0H11.55V-5.544a2.476,2.476,0,0,0-2.615-2.71A2.55,2.55,0,0,0,6.5-6.76H6.372A2.183,2.183,0,0,0,4.138-8.254,2.269,2.269,0,0,0,1.9-6.76H1.772V-8.079H-.293ZM16.531-1.479c-.74,0-1.26-.366-1.26-.967,0-.579.447-.908,1.362-.974l1.633-.1v.593A1.581,1.581,0,0,1,16.531-1.479Zm-.7,1.6a2.6,2.6,0,0,0,2.344-1.179H18.3V0h2.065V-5.515c0-1.729-1.208-2.739-3.347-2.739-2.029,0-3.4.938-3.538,2.432h1.963c.176-.483.688-.747,1.458-.747.879,0,1.362.381,1.362,1.055v.659l-1.956.117c-2.007.117-3.127.967-3.127,2.432A2.41,2.41,0,0,0,15.828.125ZM26.052-1.8c-1.157,0-1.816-.886-1.816-2.314s.667-2.307,1.816-2.307S27.9-5.53,27.9-4.109,27.209-1.8,26.052-1.8Zm-.029,4.863c2.439,0,3.984-1.194,3.984-3.091V-8.079H27.942v1.3H27.81A2.651,2.651,0,0,0,25.356-8.21c-2.051,0-3.311,1.6-3.311,4.1,0,2.432,1.252,3.992,3.267,3.992a2.558,2.558,0,0,0,2.432-1.3h.132V.073c0,.908-.667,1.436-1.809,1.436-.923,0-1.523-.315-1.633-.813H22.324C22.456,2.117,23.877,3.062,26.023,3.062ZM35.64-6.621a1.633,1.633,0,0,1,1.685,1.736H33.882A1.725,1.725,0,0,1,35.64-6.621ZM37.368-2.3a1.629,1.629,0,0,1-1.648.835,1.79,1.79,0,0,1-1.846-1.948v-.11h5.544v-.652c0-2.563-1.406-4.08-3.787-4.08-2.4,0-3.882,1.626-3.882,4.255S33.2.176,35.662.176c1.978,0,3.376-.959,3.691-2.476Z" transform="translate(95 126)"/><g transform="translate(75 55.5)" opacity="0.204"><path d="M184.71,104.237a3.96,3.96,0,1,0-3.96-3.96A3.965,3.965,0,0,0,184.71,104.237Zm0-5.6a1.638,1.638,0,1,1-1.637,1.638A1.64,1.64,0,0,1,184.71,98.639Zm0,0" transform="translate(-166.755 -88.398)"/><path d="M38.2.5H1.448A1.449,1.449,0,0,0,0,1.948v31.1A1.449,1.449,0,0,0,1.448,34.5H38.2a1.449,1.449,0,0,0,1.448-1.448V1.948A1.449,1.449,0,0,0,38.2.5ZM37.32,2.823V21.2L30.015,13.9a1.223,1.223,0,0,0-1.727,0L17.956,24.232l-6.6-6.6a1.222,1.222,0,0,0-1.728,0l-7.3,7.3V2.823Zm-35,29.354V28.222l8.169-8.169,6.6,6.6a1.221,1.221,0,0,0,1.728,0L29.152,16.321l8.169,8.169v7.687Zm0,0"/></g></g></g></svg>