<?xml version="1.0" encoding="UTF-8"?>
<svg xmlns="http://www.w3.org/2000/svg" xmlns:xlink="http://www.w3.org/1999/xlink" width="250pt" height="60pt" viewBox="0 0 250 60" version="1.1">
<defs>
<clipPath id="clip1">
  <rect x="0" y="0" width="250" height="60"/>
</clipPath>
<g id="surface5" clip-path="url(#clip1)">
<path style=" stroke:none;fill-rule:nonzero;fill:rgb(100%,100%,100%);fill-opacity:1;" d="M 88.121094 33.289062 L 95.449219 35.53125 C 94.949219 37.574219 94.152344 39.320312 93.105469 40.714844 C 92.058594 42.109375 90.714844 43.15625 89.167969 43.855469 C 87.625 44.550781 85.582031 44.898438 83.140625 44.898438 C 80.199219 44.898438 77.757812 44.453125 75.914062 43.605469 C 74.019531 42.757812 72.425781 41.261719 71.078125 39.070312 C 69.734375 36.925781 69.035156 34.136719 69.035156 30.796875 C 69.035156 26.3125 70.234375 22.875 72.625 20.433594 C 75.015625 17.988281 78.40625 16.792969 82.742188 16.792969 C 86.179688 16.792969 88.871094 17.492188 90.8125 18.886719 C 92.757812 20.28125 94.203125 22.375 95.148438 25.265625 L 87.773438 26.910156 C 87.523438 26.0625 87.226562 25.464844 86.976562 25.117188 C 86.527344 24.46875 85.929688 23.96875 85.234375 23.621094 C 84.535156 23.273438 83.789062 23.121094 82.941406 23.121094 C 81.046875 23.121094 79.601562 23.871094 78.554688 25.414062 C 77.808594 26.5625 77.410156 28.355469 77.410156 30.746094 C 77.410156 33.738281 77.855469 35.832031 78.753906 36.925781 C 79.652344 38.023438 80.945312 38.621094 82.589844 38.621094 C 84.1875 38.621094 85.433594 38.171875 86.230469 37.277344 C 87.125 36.328125 87.722656 35.035156 88.121094 33.289062 Z M 88.121094 33.289062 "/>
<path style=" stroke:none;fill-rule:nonzero;fill:rgb(100%,100%,100%);fill-opacity:1;" d="M 99.234375 30.847656 C 99.234375 26.410156 100.480469 22.972656 102.921875 20.480469 C 105.414062 17.988281 108.855469 16.792969 113.238281 16.792969 C 117.773438 16.792969 121.210938 17.988281 123.703125 20.433594 C 126.144531 22.875 127.390625 26.261719 127.390625 30.648438 C 127.390625 33.835938 126.84375 36.429688 125.796875 38.472656 C 124.75 40.515625 123.207031 42.058594 121.164062 43.207031 C 119.121094 44.351562 116.628906 44.898438 113.636719 44.898438 C 110.597656 44.898438 108.054688 44.402344 106.0625 43.457031 C 104.070312 42.457031 102.425781 40.914062 101.179688 38.820312 C 99.832031 36.679688 99.234375 34.035156 99.234375 30.847656 Z M 107.609375 30.898438 C 107.609375 33.636719 108.105469 35.582031 109.152344 36.777344 C 110.148438 37.972656 111.542969 38.570312 113.289062 38.570312 C 115.082031 38.570312 116.476562 37.972656 117.476562 36.828125 C 118.472656 35.632812 118.96875 33.539062 118.96875 30.5 C 118.96875 27.957031 118.472656 26.0625 117.425781 24.917969 C 116.378906 23.722656 114.984375 23.171875 113.238281 23.171875 C 111.542969 23.171875 110.199219 23.769531 109.152344 24.964844 C 108.105469 26.164062 107.609375 28.15625 107.609375 30.898438 Z M 107.609375 30.898438 "/>
<path style=" stroke:none;fill-rule:nonzero;fill:rgb(100%,100%,100%);fill-opacity:1;" d="M 131.578125 30.847656 C 131.578125 26.410156 132.824219 22.972656 135.265625 20.480469 C 137.757812 17.988281 141.195312 16.792969 145.582031 16.792969 C 150.117188 16.792969 153.554688 17.988281 156.046875 20.433594 C 158.488281 22.875 159.734375 26.261719 159.734375 30.648438 C 159.734375 33.835938 159.1875 36.429688 158.140625 38.472656 C 157.09375 40.515625 155.546875 42.058594 153.503906 43.207031 C 151.460938 44.351562 148.96875 44.898438 145.980469 44.898438 C 142.941406 44.898438 140.398438 44.402344 138.40625 43.457031 C 136.410156 42.457031 134.765625 40.914062 133.523438 38.820312 C 132.175781 36.679688 131.578125 34.035156 131.578125 30.847656 Z M 139.949219 30.898438 C 139.949219 33.636719 140.449219 35.582031 141.496094 36.777344 C 142.492188 37.972656 143.886719 38.570312 145.632812 38.570312 C 147.425781 38.570312 148.820312 37.972656 149.816406 36.828125 C 150.8125 35.632812 151.3125 33.539062 151.3125 30.5 C 151.3125 27.957031 150.8125 26.0625 149.765625 24.917969 C 148.722656 23.722656 147.324219 23.171875 145.582031 23.171875 C 143.886719 23.171875 142.542969 23.769531 141.496094 24.964844 C 140.449219 26.164062 139.949219 28.15625 139.949219 30.898438 Z M 139.949219 30.898438 "/>
<path style=" stroke:none;fill-rule:nonzero;fill:rgb(100%,100%,100%);fill-opacity:1;" d="M 164.917969 17.292969 L 178.871094 17.292969 C 181.910156 17.292969 184.203125 17.988281 185.699219 19.433594 C 187.191406 20.878906 187.988281 22.921875 187.988281 25.613281 C 187.988281 28.355469 187.144531 30.5 185.5 32.042969 C 183.855469 33.589844 181.3125 34.335938 177.972656 34.335938 L 173.339844 34.335938 L 173.339844 44.402344 L 164.917969 44.402344 Z M 173.339844 28.855469 L 175.382812 28.855469 C 176.976562 28.855469 178.121094 28.554688 178.769531 28.007812 C 179.417969 27.457031 179.765625 26.710938 179.765625 25.863281 C 179.765625 25.015625 179.46875 24.269531 178.921875 23.722656 C 178.371094 23.121094 177.277344 22.824219 175.730469 22.824219 L 173.339844 22.824219 Z M 173.339844 28.855469 "/>
<path style=" stroke:none;fill-rule:nonzero;fill:rgb(100%,100%,100%);fill-opacity:1;" d="M 193.074219 17.292969 L 215.546875 17.292969 L 215.546875 23.074219 L 201.496094 23.074219 L 201.496094 27.410156 L 214.550781 27.410156 L 214.550781 32.941406 L 201.496094 32.941406 L 201.496094 38.273438 L 215.996094 38.273438 L 215.996094 44.402344 L 193.121094 44.402344 L 193.121094 17.292969 Z M 193.074219 17.292969 "/>
<path style=" stroke:none;fill-rule:nonzero;fill:rgb(100%,100%,100%);fill-opacity:1;" d="M 221.328125 44.402344 L 221.328125 17.292969 L 235.28125 17.292969 C 237.875 17.292969 239.867188 17.492188 241.210938 17.941406 C 242.558594 18.390625 243.703125 19.1875 244.5 20.433594 C 245.347656 21.628906 245.746094 23.121094 245.746094 24.816406 C 245.746094 26.3125 245.449219 27.609375 244.800781 28.703125 C 244.152344 29.800781 243.253906 30.699219 242.160156 31.34375 C 241.460938 31.792969 240.464844 32.144531 239.21875 32.441406 C 240.214844 32.789062 240.964844 33.089844 241.410156 33.4375 C 241.710938 33.636719 242.160156 34.136719 242.757812 34.882812 C 243.355469 35.632812 243.753906 36.179688 243.953125 36.578125 L 247.988281 44.453125 L 238.523438 44.453125 L 234.035156 36.179688 C 233.488281 35.082031 232.941406 34.386719 232.542969 34.085938 C 231.945312 33.6875 231.246094 33.4375 230.5 33.4375 L 229.75 33.4375 L 229.75 44.453125 L 221.328125 44.453125 Z M 229.800781 28.253906 L 233.339844 28.253906 C 233.738281 28.253906 234.484375 28.15625 235.582031 27.90625 C 236.128906 27.808594 236.578125 27.507812 236.925781 27.058594 C 237.277344 26.609375 237.476562 26.0625 237.476562 25.464844 C 237.476562 24.566406 237.175781 23.921875 236.628906 23.472656 C 236.078125 23.023438 235.035156 22.773438 233.488281 22.773438 L 229.800781 22.773438 Z M 229.800781 28.253906 "/>
</g>
</defs>
<g id="surface1">
<path style=" stroke:none;fill-rule:nonzero;fill:rgb(87.45098%,14.117647%,14.117647%);fill-opacity:1;" d="M 2.109375 1.746094 L 22.242188 1.746094 L 22.242188 21.878906 L 2.109375 21.878906 Z M 2.109375 1.746094 "/>
<path style=" stroke:none;fill-rule:nonzero;fill:rgb(21.176471%,58.431373%,78.039216%);fill-opacity:1;" d="M 34.101562 8.871094 L 54.234375 8.871094 L 54.234375 29.003906 L 34.101562 29.003906 Z M 34.101562 8.871094 "/>
<path style=" stroke:none;fill-rule:nonzero;fill:rgb(21.176471%,58.431373%,78.039216%);fill-opacity:1;" d="M 34.101562 32.589844 L 54.234375 32.589844 L 54.234375 52.722656 L 34.101562 52.722656 Z M 34.101562 32.589844 "/>
<path style=" stroke:none;fill-rule:nonzero;fill:rgb(21.176471%,58.431373%,78.039216%);fill-opacity:1;" d="M 10.382812 32.589844 L 30.515625 32.589844 L 30.515625 52.722656 L 10.382812 52.722656 Z M 10.382812 32.589844 "/>
<use xlink:href="#surface5"/>
</g>
</svg>
