<?xml version="1.0" encoding="utf-8"?>
<!-- Generator: Adobe Illustrator 25.4.1, SVG Export Plug-In . SVG Version: 6.00 Build 0)  -->
<svg version="1.1" id="Layer_1" xmlns="http://www.w3.org/2000/svg" xmlns:xlink="http://www.w3.org/1999/xlink" x="0px" y="0px"
	 viewBox="0 0 202 63.4" style="enable-background:new 0 0 202 63.4;" xml:space="preserve">
<style type="text/css">
	.st0{fill:#172234;}
</style>
<g>
	<g>
		<path class="st0" d="M17,3.4c3.2,0,6,0.6,8.3,1.9c2.3,1.3,4.1,2.9,5.6,5c1.4,2.1,2.5,4.5,3.2,7.3c0.7,2.8,1,5.6,1,8.7
			c0,2.4-0.3,5-1,7.7c-0.7,2.7-1.7,5.2-3.2,7.4c-1.4,2.3-3.3,4.1-5.6,5.6c-2.3,1.5-5,2.2-8.3,2.2H0l0.5-1.8c0.7-2.3,1.1-4.7,1.1-7
			V12.2c0-2.3-0.4-4.7-1.1-7L0,3.4H17z M15.3,46.6c1.6,0,2.9-0.6,4.1-1.8c1.2-1.2,2.2-2.7,3-4.6c0.8-1.9,1.4-4.1,1.9-6.5
			c0.4-2.4,0.7-4.9,0.7-7.4c0-2.5-0.1-5-0.5-7.4c-0.4-2.4-0.9-4.6-1.7-6.5c-0.8-1.9-1.7-3.4-2.9-4.6S17.4,6,15.9,6h-4.9v40.6H15.3z"
			/>
		<path class="st0" d="M67.7,37.2c-0.4,1.3-1,2.7-1.7,4.2c-0.7,1.5-1.7,2.8-2.8,4.1c-1.1,1.3-2.4,2.3-3.8,3.1
			c-1.4,0.8-3,1.2-4.8,1.2c-2.4,0-4.6-0.4-6.5-1.3c-2-0.9-3.6-2.1-5-3.7c-1.4-1.6-2.4-3.5-3.2-5.6s-1.1-4.5-1.1-7.2
			c0-2.6,0.5-5.1,1.6-7.5c1-2.4,2.3-4.5,3.9-6.4c1.6-1.8,3.3-3.3,5.1-4.4c1.9-1.1,3.6-1.7,5.3-1.7c2.9,0,5.5,0.9,7.8,2.7
			c2.3,1.8,3.9,4.3,4.8,7.4v2.1H46.3c0,1.6,0.2,3.5,0.7,5.7c0.5,2.1,1.2,4.1,2.2,6c1,1.9,2.2,3.5,3.7,4.8c1.5,1.3,3.2,2,5.1,2
			c1.7,0,3.3-0.6,4.7-1.7c1.5-1.1,2.6-2.6,3.5-4.6L67.7,37.2z M46.4,22.2h13.1c-1.3-2.2-2.7-3.8-4.2-4.7s-2.9-1.4-4.2-1.4
			c-0.8,0-1.5,0.2-2.1,0.6c-0.6,0.4-1,0.9-1.4,1.5c-0.3,0.6-0.6,1.2-0.8,2C46.6,20.8,46.5,21.5,46.4,22.2z"/>
		<path class="st0" d="M95.7,12.8h5.6l-1.2,1.8c-1.5,2.2-2.6,4.6-3.5,7.1l-9.8,27.6h-4.2l-9.6-27.6c-0.4-1.2-0.9-2.4-1.5-3.6
			c-0.6-1.2-1.3-2.3-2-3.5l-1.1-1.8h12.5l0.1,1.8c0.1,2.4,0.6,4.7,1.4,7.1l5.9,16.9l6-16.9c0.8-2.3,1.3-4.7,1.4-7.1L95.7,12.8z"/>
		<path class="st0" d="M115,40.4c0,1.2,0.1,2.4,0.3,3.5c0.2,1.2,0.4,2.4,0.8,3.5l0.5,1.8h-12.5l0.5-1.8c0.7-2.3,1.1-4.7,1.1-7V12.2
			c0-2.3-0.4-4.7-1.1-7l-0.5-1.8L115,0V40.4z"/>
		<path class="st0" d="M120.1,32c0-2.6,0.5-5.1,1.6-7.5c1.1-2.4,2.4-4.5,4.1-6.4c1.6-1.8,3.5-3.3,5.4-4.4c2-1.1,3.8-1.7,5.6-1.7
			c2.6,0,4.9,0.4,6.9,1.3c2,0.9,3.8,2.1,5.2,3.7c1.5,1.6,2.6,3.5,3.3,5.6s1.2,4.5,1.2,7.1c0,2.6-0.6,5.1-1.8,7.5s-2.6,4.5-4.3,6.4
			c-1.7,1.8-3.5,3.3-5.4,4.4c-1.9,1.1-3.7,1.7-5.2,1.7c-2.6,0-4.9-0.4-6.9-1.3c-2.1-0.9-3.8-2.1-5.3-3.7c-1.5-1.6-2.6-3.5-3.3-5.6
			C120.4,37,120.1,34.6,120.1,32z M130.4,32.9c0.8,2.2,1.7,4.2,2.7,5.8s2,3,3,4.1c1,1.1,2.1,1.8,3.2,2.2c1.1,0.4,2.1,0.5,3.1,0.2
			c1-0.3,1.8-0.9,2.3-1.8c0.5-0.9,0.8-2.1,0.8-3.5c0-1.4-0.1-3-0.6-4.9c-0.4-1.8-1-3.9-1.9-6.1c-0.8-2.2-1.7-4.1-2.7-5.8
			c-1-1.7-2-3-3.1-4.1c-1.1-1.1-2.1-1.8-3.2-2.2c-1.1-0.4-2.1-0.5-3.1-0.2c-1,0.3-1.7,0.9-2.2,1.8c-0.5,0.9-0.8,2.1-0.8,3.5
			c0,1.4,0.1,3,0.6,4.9C128.9,28.7,129.6,30.7,130.4,32.9z"/>
		<path class="st0" d="M162.6,40.4c0,0.4,0.6,0.7,1.9,0.9c1.3,0.2,2.9,0.4,4.8,0.6c1.9,0.2,4,0.4,6.2,0.7c2.2,0.3,4.3,0.6,6.2,1
			c1.9,0.4,3.5,1,4.8,1.7c1.3,0.7,1.9,1.6,1.9,2.7c0,2.8-0.5,5.2-1.6,7.2c-1.1,2-2.6,3.6-4.5,4.8c-2,1.2-4.2,2.1-6.9,2.7
			c-2.6,0.6-5.5,0.8-8.6,0.8c-3.2,0-5.9-0.5-7.9-1.6c-2-1-3-2.6-3-4.7c0-0.5,0.2-1.2,0.6-2c0.4-0.8,0.9-1.6,1.6-2.4
			c0.7-0.8,1.4-1.7,2.1-2.6c0.8-0.9,1.5-1.6,2.3-2.3c-0.6-0.2-1-0.4-1.2-0.7c-0.6-0.7-1.2-1.4-1.8-2c-0.5-0.6-0.8-1.3-0.8-2
			c0-0.8,0.2-1.6,0.8-2.7c0.6-1,1.6-2.3,3.2-3.8c-1.7-1.1-3-2.6-3.9-4.3c-0.9-1.7-1.4-3.7-1.4-5.9c0-1.9,0.5-3.7,1.5-5.5
			c1-1.7,2.2-3.3,3.6-4.6c1.5-1.3,3-2.4,4.8-3.2c1.7-0.8,3.4-1.2,4.9-1.2c1.5,0,2.9,0.2,4.3,0.5c1.3,0.3,2.5,0.7,3.7,1.2l0.4-3.9
			c1.2-0.7,2.4-1.2,3.8-1.5c1.4-0.2,2.5-0.3,3.4-0.2v6.5c-0.5-0.6-1-1-1.5-1.3c-0.5-0.3-1-0.6-1.5-0.7c-0.7-0.2-1.5-0.2-2.2,0.2
			c-0.7,0.3-1.2,0.8-1.6,1.5c2,1.1,3.5,2.6,4.5,4.4c1.1,1.8,1.6,3.9,1.6,6.2c0,1.9-0.5,3.7-1.6,5.4s-2.3,3.3-3.8,4.6
			c-1.5,1.3-3.1,2.4-4.8,3.2c-1.7,0.8-3.3,1.2-4.6,1.2c-2.6,0-5-0.5-7.2-1.4c-0.6,0.3-1.2,0.7-1.7,1.2
			C162.9,39.6,162.6,40,162.6,40.4z M171.6,60c1,0,1.9-0.1,2.8-0.4c0.9-0.3,1.7-0.6,2.5-1.1c0.7-0.5,1.3-1.1,1.8-1.9
			c0.5-0.8,0.7-1.7,0.7-2.7c0-0.8-0.5-1.4-1.5-1.9c-1-0.5-2.2-1-3.7-1.4c-1.5-0.4-3-0.7-4.6-1c-1.6-0.3-3.1-0.6-4.5-0.9
			c-0.6,1.5-1,3-1.2,4.3s-0.1,2.6,0.3,3.6c0.4,1,1.2,1.9,2.4,2.5C167.7,59.7,169.4,60,171.6,60z M167,15.1c-1.6,0.4-2.4,1.7-2.3,3.8
			c0.1,2.1,0.9,4.9,2.4,8.2c1.5,3.2,3.2,5.7,5,7.4c1.8,1.7,3.6,2.4,5.2,1.9c1.6-0.4,2.4-1.6,2.4-3.8c-0.1-2.1-0.9-4.8-2.4-8.1
			c-1.5-3.3-3.2-5.8-5.1-7.5C170.4,15.3,168.7,14.7,167,15.1z"/>
		<path class="st0" d="M191.7,44.5c0-0.7,0.1-1.4,0.4-2.1s0.7-1.2,1.1-1.7c0.5-0.5,1-0.9,1.6-1.1c0.6-0.3,1.3-0.4,2-0.4
			c1.4,0,2.7,0.5,3.7,1.6c1,1,1.5,2.3,1.5,3.8c0,1.5-0.5,2.8-1.5,3.8c-1,1-2.2,1.6-3.7,1.6c-0.7,0-1.4-0.1-2-0.4
			c-0.6-0.3-1.2-0.7-1.6-1.2c-0.5-0.5-0.8-1.1-1.1-1.7S191.7,45.2,191.7,44.5z"/>
	</g>
</g>
</svg>
