<?xml version="1.0" encoding="utf-8"?>
<!-- Generator: Adobe Illustrator 26.4.1, SVG Export Plug-In . SVG Version: 6.00 Build 0)  -->
<svg version="1.1" id="Layer_1" xmlns="http://www.w3.org/2000/svg" xmlns:xlink="http://www.w3.org/1999/xlink" x="0px" y="0px"
	 viewBox="0 0 67.6 20.4" style="enable-background:new 0 0 67.6 20.4;" xml:space="preserve">
<style type="text/css">
	.st0{fill:#C1C0FF;}
	.st1{fill:#A2A1FF;}
	.st2{fill:#6563FF;}
	.st3{fill:#495057;}
</style>
<g>
	<path class="st0" d="M10,12.4c-0.2,0-0.3,0-0.5-0.1l-9-5.2C0,6.8-0.1,6.2,0.1,5.7c0.1-0.2,0.2-0.3,0.4-0.4l9-5.2
		c0.3-0.2,0.7-0.2,1,0l9,5.2c0.5,0.3,0.6,0.9,0.4,1.4c-0.1,0.2-0.2,0.3-0.4,0.4l-9,5.2C10.3,12.3,10.2,12.4,10,12.4z"/>
	<path class="st1" d="M19.5,9.3l-2-1.1l-7,4.1c-0.3,0.2-0.7,0.2-1,0l-7-4.1l-2,1.1C0,9.6-0.1,10.2,0.1,10.7c0.1,0.2,0.2,0.3,0.4,0.4
		l9,5.2c0.3,0.2,0.7,0.2,1,0l9-5.2c0.5-0.3,0.6-0.9,0.4-1.4C19.8,9.5,19.7,9.4,19.5,9.3z"/>
	<path class="st2" d="M19.5,13.3l-2-1.1l-7,4.1c-0.3,0.2-0.7,0.2-1,0l-7-4.1l-2,1.1c-0.5,0.3-0.6,0.9-0.4,1.4
		c0.1,0.2,0.2,0.3,0.4,0.4l9,5.2c0.3,0.2,0.7,0.2,1,0l9-5.2c0.5-0.3,0.6-0.9,0.4-1.4C19.8,13.5,19.7,13.4,19.5,13.3z"/>
	<g>
		<g>
			<path class="st3" d="M28,5.6c0.7,0,1.3,0.1,1.8,0.4c0.5,0.3,0.9,0.6,1.2,1.1c0.3,0.4,0.5,1,0.7,1.6c0.1,0.6,0.2,1.2,0.2,1.9
				c0,0.5-0.1,1.1-0.2,1.6s-0.4,1.1-0.7,1.6c-0.3,0.5-0.7,0.9-1.2,1.2s-1.1,0.5-1.8,0.5h-3.6l0.1-0.4c0.1-0.5,0.2-1,0.2-1.5v-6
				c0-0.5-0.1-1-0.2-1.5l-0.1-0.4H28z M27.6,14.9c0.3,0,0.6-0.1,0.9-0.4s0.5-0.6,0.6-1c0.2-0.4,0.3-0.9,0.4-1.4
				c0.1-0.5,0.1-1,0.1-1.6s0-1.1-0.1-1.6c-0.1-0.5-0.2-1-0.4-1.4c-0.2-0.4-0.4-0.7-0.6-1c-0.3-0.3-0.5-0.4-0.9-0.4h-1v8.7H27.6z"/>
			<path class="st3" d="M38.8,12.9c-0.1,0.3-0.2,0.6-0.4,0.9c-0.1,0.3-0.4,0.6-0.6,0.9c-0.2,0.3-0.5,0.5-0.8,0.7
				c-0.3,0.2-0.6,0.3-1,0.3c-0.5,0-1-0.1-1.4-0.3c-0.4-0.2-0.8-0.4-1.1-0.8c-0.3-0.3-0.5-0.7-0.7-1.2c-0.2-0.4-0.2-1-0.2-1.5
				c0-0.6,0.1-1.1,0.3-1.6c0.2-0.5,0.5-1,0.8-1.4c0.3-0.4,0.7-0.7,1.1-0.9c0.4-0.2,0.8-0.4,1.1-0.4c0.6,0,1.2,0.2,1.7,0.6
				c0.5,0.4,0.8,0.9,1,1.6v0.4h-4.5c0,0.3,0,0.7,0.1,1.2c0.1,0.4,0.3,0.9,0.5,1.3c0.2,0.4,0.5,0.7,0.8,1c0.3,0.3,0.7,0.4,1.1,0.4
				c0.4,0,0.7-0.1,1-0.4c0.3-0.2,0.6-0.6,0.7-1L38.8,12.9z M34.3,9.6h2.8c-0.3-0.5-0.6-0.8-0.9-1c-0.3-0.2-0.6-0.3-0.9-0.3
				c-0.2,0-0.3,0-0.4,0.1c-0.1,0.1-0.2,0.2-0.3,0.3c-0.1,0.1-0.1,0.3-0.2,0.4C34.3,9.3,34.3,9.5,34.3,9.6z"/>
			<path class="st3" d="M44.8,7.6H46L45.8,8c-0.3,0.5-0.6,1-0.7,1.5l-2.1,5.9H42L40,9.5c-0.1-0.3-0.2-0.5-0.3-0.8
				c-0.1-0.3-0.3-0.5-0.4-0.7L39,7.6h2.7l0,0.4c0,0.5,0.1,1,0.3,1.5l1.3,3.6l1.3-3.6c0.2-0.5,0.3-1,0.3-1.5L44.8,7.6z"/>
			<path class="st3" d="M49,13.5c0,0.3,0,0.5,0.1,0.7c0,0.3,0.1,0.5,0.2,0.7l0.1,0.4h-2.7l0.1-0.4c0.1-0.5,0.2-1,0.2-1.5v-6
				c0-0.5-0.1-1-0.2-1.5l-0.1-0.4L49,4.9V13.5z"/>
			<path class="st3" d="M50.1,11.7c0-0.6,0.1-1.1,0.3-1.6c0.2-0.5,0.5-1,0.9-1.4c0.3-0.4,0.7-0.7,1.2-0.9c0.4-0.2,0.8-0.4,1.2-0.4
				c0.6,0,1,0.1,1.5,0.3s0.8,0.4,1.1,0.8c0.3,0.3,0.6,0.7,0.7,1.2c0.1,0.4,0.3,1,0.3,1.5s-0.1,1.1-0.4,1.6s-0.6,1-0.9,1.4
				c-0.4,0.4-0.7,0.7-1.2,0.9s-0.8,0.4-1.1,0.4c-0.6,0-1-0.1-1.5-0.3c-0.4-0.2-0.8-0.4-1.1-0.8c-0.3-0.3-0.6-0.7-0.7-1.2
				C50.1,12.8,50.1,12.3,50.1,11.7z M52.3,11.9c0.2,0.5,0.4,0.9,0.6,1.2c0.2,0.3,0.4,0.6,0.6,0.9c0.2,0.2,0.4,0.4,0.7,0.5
				c0.2,0.1,0.4,0.1,0.7,0c0.2-0.1,0.4-0.2,0.5-0.4c0.1-0.2,0.2-0.4,0.2-0.7c0-0.3,0-0.6-0.1-1c-0.1-0.4-0.2-0.8-0.4-1.3
				c-0.2-0.5-0.4-0.9-0.6-1.2C54.2,9.5,54,9.2,53.7,9c-0.2-0.2-0.4-0.4-0.7-0.5c-0.2-0.1-0.4-0.1-0.7,0c-0.2,0.1-0.4,0.2-0.5,0.4
				c-0.1,0.2-0.2,0.4-0.2,0.7s0,0.6,0.1,1C52,11,52.1,11.5,52.3,11.9z"/>
			<path class="st3" d="M59.2,13.5c0,0.1,0.1,0.1,0.4,0.2c0.3,0,0.6,0.1,1,0.1c0.4,0,0.9,0.1,1.3,0.1s0.9,0.1,1.3,0.2
				c0.4,0.1,0.7,0.2,1,0.4c0.3,0.1,0.4,0.3,0.4,0.6c0,0.6-0.1,1.1-0.3,1.5c-0.2,0.4-0.6,0.8-1,1c-0.4,0.3-0.9,0.4-1.5,0.6
				c-0.6,0.1-1.2,0.2-1.8,0.2c-0.7,0-1.3-0.1-1.7-0.3c-0.4-0.2-0.6-0.6-0.6-1c0-0.1,0-0.3,0.1-0.4c0.1-0.2,0.2-0.3,0.3-0.5
				c0.1-0.2,0.3-0.4,0.4-0.6c0.2-0.2,0.3-0.3,0.5-0.5c-0.1,0-0.2-0.1-0.3-0.1c-0.1-0.1-0.3-0.3-0.4-0.4c-0.1-0.1-0.2-0.3-0.2-0.4
				c0-0.2,0-0.3,0.2-0.6c0.1-0.2,0.3-0.5,0.7-0.8c-0.4-0.2-0.6-0.6-0.8-0.9c-0.2-0.4-0.3-0.8-0.3-1.3c0-0.4,0.1-0.8,0.3-1.2
				c0.2-0.4,0.5-0.7,0.8-1c0.3-0.3,0.6-0.5,1-0.7c0.4-0.2,0.7-0.3,1-0.3s0.6,0,0.9,0.1c0.3,0.1,0.5,0.1,0.8,0.3L63,7
				c0.3-0.1,0.5-0.3,0.8-0.3c0.3,0,0.5-0.1,0.7,0V8c-0.1-0.1-0.2-0.2-0.3-0.3c-0.1-0.1-0.2-0.1-0.3-0.1c-0.1,0-0.3,0-0.5,0
				c-0.1,0.1-0.3,0.2-0.3,0.3c0.4,0.2,0.7,0.6,1,0.9c0.2,0.4,0.3,0.8,0.3,1.3c0,0.4-0.1,0.8-0.3,1.2s-0.5,0.7-0.8,1s-0.7,0.5-1,0.7
				c-0.4,0.2-0.7,0.3-1,0.3c-0.6,0-1.1-0.1-1.5-0.3c-0.1,0.1-0.3,0.1-0.4,0.3C59.2,13.4,59.2,13.5,59.2,13.5z M61.1,17.7
				c0.2,0,0.4,0,0.6-0.1c0.2-0.1,0.4-0.1,0.5-0.2c0.1-0.1,0.3-0.2,0.4-0.4c0.1-0.2,0.1-0.4,0.1-0.6c0-0.2-0.1-0.3-0.3-0.4
				c-0.2-0.1-0.5-0.2-0.8-0.3c-0.3-0.1-0.6-0.1-1-0.2s-0.7-0.1-1-0.2c-0.1,0.3-0.2,0.6-0.3,0.9c0,0.3,0,0.6,0.1,0.8
				c0.1,0.2,0.3,0.4,0.5,0.5C60.3,17.7,60.6,17.7,61.1,17.7z M60.1,8.1c-0.3,0.1-0.5,0.4-0.5,0.8c0,0.4,0.2,1,0.5,1.8
				c0.3,0.7,0.7,1.2,1.1,1.6s0.8,0.5,1.1,0.4c0.3-0.1,0.5-0.3,0.5-0.8c0-0.4-0.2-1-0.5-1.7c-0.3-0.7-0.7-1.2-1.1-1.6
				C60.8,8.2,60.5,8,60.1,8.1z"/>
			<path class="st3" d="M65.4,14.4c0-0.1,0-0.3,0.1-0.4c0.1-0.1,0.1-0.3,0.2-0.4c0.1-0.1,0.2-0.2,0.3-0.2c0.1-0.1,0.3-0.1,0.4-0.1
				c0.3,0,0.6,0.1,0.8,0.3c0.2,0.2,0.3,0.5,0.3,0.8s-0.1,0.6-0.3,0.8c-0.2,0.2-0.5,0.3-0.8,0.3c-0.1,0-0.3,0-0.4-0.1
				c-0.1-0.1-0.3-0.1-0.3-0.3c-0.1-0.1-0.2-0.2-0.2-0.4S65.4,14.6,65.4,14.4z"/>
		</g>
	</g>
</g>
</svg>
