<svg xmlns="http://www.w3.org/2000/svg" width="25" height="9.229" viewBox="0 0 25 9.229"><path d="M0-12.5a15.642,15.642,0,0,0-4.785.732v3.223a1.01,1.01,0,0,1-.586.977,11.422,11.422,0,0,0-2.783,1.9.994.994,0,0,1-.732.293.994.994,0,0,1-.732-.293l-2.588-2.588a.994.994,0,0,1-.293-.732.994.994,0,0,1,.293-.732A17.092,17.092,0,0,1,0-14.6,17.092,17.092,0,0,1,12.207-9.717a.994.994,0,0,1,.293.732.994.994,0,0,1-.293.732L9.619-5.664a.994.994,0,0,1-.732.293.994.994,0,0,1-.732-.293,12.026,12.026,0,0,0-2.783-1.9A.973.973,0,0,1,4.785-8.5v-3.223A14.746,14.746,0,0,0,0-12.5Z" transform="translate(12.5 14.6)" fill="#fff"></path></svg>