<svg xmlns="http://www.w3.org/2000/svg" width="62.827" height="62.391" viewBox="0 0 62.827 62.391"><g transform="translate(-1575.219 -3065.5)"><path d="M336.777,289.743c0,1.243-1.972,2.355-2.116,3.559-.148,1.23,1.5,2.779,1.21,3.96-.295,1.2-2.476,1.808-2.908,2.948s.789,3.053.22,4.135-2.835,1.155-3.531,2.162.038,3.15-.775,4.067-3.027.443-3.945,1.258-.711,3.067-1.722,3.766-3.041-.292-4.131.281-1.42,2.807-2.573,3.244-2.877-1.016-4.077-.721c-1.181.29-2.048,2.381-3.279,2.529-1.2.145-2.543-1.678-3.786-1.678s-2.582,1.823-3.786,1.678c-1.231-.148-2.1-2.239-3.279-2.529-1.2-.295-2.938,1.153-4.078.721s-1.492-2.676-2.573-3.244-3.125.416-4.131-.281-.8-2.953-1.721-3.766-3.131-.339-3.945-1.258-.076-3.056-.776-4.067-2.958-1.072-3.531-2.162.659-2.982.221-4.135-2.613-1.747-2.908-2.948c-.29-1.181,1.358-2.729,1.21-3.96-.145-1.2-2.116-2.316-2.116-3.559s1.972-2.355,2.116-3.559c.148-1.231-1.5-2.779-1.21-3.96.295-1.2,2.475-1.808,2.908-2.948s-.789-3.053-.221-4.135,2.836-1.156,3.532-2.162-.038-3.15.776-4.067,3.027-.443,3.945-1.258.711-3.067,1.722-3.766,3.042.292,4.131-.28,1.42-2.807,2.573-3.244,2.877,1.016,4.077.721c1.181-.29,2.048-2.381,3.279-2.529,1.2-.145,2.543,1.678,3.786,1.678s2.582-1.822,3.787-1.678c1.23.148,2.1,2.238,3.279,2.529,1.2.3,2.938-1.153,4.077-.721s1.492,2.676,2.573,3.244,3.124-.415,4.131.28.8,2.953,1.722,3.766,3.131.339,3.945,1.258.076,3.057.775,4.067,2.959,1.073,3.531,2.162-.658,2.982-.221,4.135,2.613,1.747,2.908,2.948c.29,1.181-1.358,2.73-1.21,3.96C334.805,287.388,336.777,288.5,336.777,289.743Z" transform="translate(1301.27 2806.952)" fill="#032a3e"></path><path d="M-14.148,0h7.28V-1.848h-4.494c.182-.658.462-.966,1.274-1.414l1.414-.756a3.2,3.2,0,0,0,1.89-2.9c0-1.75-1.3-2.814-3.486-2.814a3.332,3.332,0,0,0-3.668,3.4h2.31c0-1.064.49-1.652,1.372-1.652A1.088,1.088,0,0,1-9.108-6.832a1.669,1.669,0,0,1-1.05,1.512l-1.526.8C-13.434-3.612-14.148-2.3-14.148,0ZM-1.94.21C.65.21,2.036-1.526,2.036-4.76S.65-9.73-1.94-9.73-5.916-7.994-5.916-4.76-4.53.21-1.94.21Zm0-1.82c-1.232,0-1.82-.994-1.82-3.15s.588-3.15,1.82-3.15S-.12-6.9-.12-4.76-.708-1.61-1.94-1.61ZM9.394-2.345a2.458,2.458,0,0,1,.745-1.8,2.461,2.461,0,0,1,1.8-.738,2.45,2.45,0,0,1,1.8.745,2.45,2.45,0,0,1,.745,1.8,2.45,2.45,0,0,1-.745,1.8,2.45,2.45,0,0,1-1.8.745,2.45,2.45,0,0,1-1.8-.745A2.45,2.45,0,0,1,9.394-2.345Zm-5.9-3.179a2.45,2.45,0,0,1-.745-1.8,2.45,2.45,0,0,1,.745-1.8,2.45,2.45,0,0,1,1.8-.745,2.45,2.45,0,0,1,1.8.745,2.45,2.45,0,0,1,.745,1.8,2.456,2.456,0,0,1-.742,1.8,2.447,2.447,0,0,1-1.8.745A2.45,2.45,0,0,1,3.494-5.523ZM6.365.26H5.306L10.85-9.912h1.039Zm4.806-1.839a1.031,1.031,0,0,0,.766.321,1.048,1.048,0,0,0,.769-.318,1.048,1.048,0,0,0,.318-.769,1.048,1.048,0,0,0-.318-.769,1.048,1.048,0,0,0-.769-.318,1.048,1.048,0,0,0-.769.318,1.048,1.048,0,0,0-.318.769A1.031,1.031,0,0,0,11.171-1.579ZM4.527-6.556a1.031,1.031,0,0,0,.766.321,1.048,1.048,0,0,0,.769-.318,1.048,1.048,0,0,0,.318-.769,1.048,1.048,0,0,0-.318-.769,1.048,1.048,0,0,0-.769-.318,1.048,1.048,0,0,0-.769.318,1.048,1.048,0,0,0-.318.769A1.031,1.031,0,0,0,4.527-6.556ZM-7.427,15.28A5.012,5.012,0,0,0-2.191,10.1,5.012,5.012,0,0,0-7.427,4.92a5.012,5.012,0,0,0-5.236,5.18A5.012,5.012,0,0,0-7.427,15.28Zm0-2.03A2.854,2.854,0,0,1-10.3,10.1a2.854,2.854,0,0,1,2.87-3.15,2.869,2.869,0,0,1,2.87,3.15A2.869,2.869,0,0,1-7.427,13.25ZM-1.015,15H1.253V11.612H4.977V9.75H1.253V7.1H4.977V5.2H-1.015Zm7.434,0H8.687V11.612h3.724V9.75H8.687V7.1h3.724V5.2H6.419Z" transform="translate(1606.22 3094.5)" fill="#fff"></path></g></svg>