<svg xmlns="http://www.w3.org/2000/svg" xmlns:xlink="http://www.w3.org/1999/xlink" width="19.393" height="14.063" viewBox="0 0 19.393 14.063"><defs><linearGradient id="a" x1="0.808" y1="0.5" x2="0" y2="0.5" gradientUnits="objectBoundingBox"><stop offset="0" stop-color="#fff"></stop><stop offset="1" stop-color="#fff" stop-opacity="0"></stop></linearGradient></defs><path d="M1,14.075a1,1,0,0,1-1-1V1.012a1,1,0,0,1,1-1H13.064a1,1,0,0,1,.9.553,1.99,1.99,0,0,1,.726.51L18.876,5.7a2,2,0,0,1,0,2.686l-4.19,4.627a1.99,1.99,0,0,1-.727.51,1,1,0,0,1-.9.552Z" transform="translate(0 -0.012)" fill="url(#a)"></path></svg>