<svg xmlns="http://www.w3.org/2000/svg" width="22.518" height="18.246" viewBox="0 0 22.518 18.246"><path d="M8.938-14.713v.58a13.062,13.062,0,0,1-.87,4.667A14.277,14.277,0,0,1,5.59-5.273,11.947,11.947,0,0,1,1.424-2.188,13.181,13.181,0,0,1-4.192-1a12.856,12.856,0,0,1-7.066-2.057q.527.053,1.107.053A9.167,9.167,0,0,0-4.4-4.957a4.663,4.663,0,0,1-2.716-.949A4.414,4.414,0,0,1-8.728-8.174a3.467,3.467,0,0,0,.844.105,3.521,3.521,0,0,0,1.213-.211A4.492,4.492,0,0,1-9.308-9.861a4.4,4.4,0,0,1-1.055-2.9v-.053a4.989,4.989,0,0,0,2.109.58,4.452,4.452,0,0,1-2.057-3.85,4.425,4.425,0,0,1,.633-2.32,13.261,13.261,0,0,0,4.192,3.375,12.992,12.992,0,0,0,5.3,1.424A5.366,5.366,0,0,1-.29-14.66,4.42,4.42,0,0,1,1.055-17.9,4.42,4.42,0,0,1,4.3-19.248a4.5,4.5,0,0,1,3.375,1.424,9.658,9.658,0,0,0,2.953-1.107A4.433,4.433,0,0,1,8.569-16.4a9.755,9.755,0,0,0,2.689-.686A9.91,9.91,0,0,1,8.938-14.713Z" transform="translate(11.259 19.248)" fill="#fff"></path></svg>