<svg xmlns="http://www.w3.org/2000/svg" width="22.518" height="15.715" viewBox="0 0 22.518 15.715"><path d="M11-14.607a25.707,25.707,0,0,1,.264,3.639v1.688L11-5.643a3.811,3.811,0,0,1-.9,2.215,3.807,3.807,0,0,1-2.215.949q-1.424.105-3.4.158t-3.243.053H-.026Q-5.88-2.32-7.673-2.479l-.422-.053q-.422-.053-.686-.105A2.544,2.544,0,0,1-9.439-2.9a2.547,2.547,0,0,1-.686-.527,3.078,3.078,0,0,1-.527-.87,3.706,3.706,0,0,1-.29-.976l-.105-.369a32.029,32.029,0,0,1-.211-3.639v-1.687l.211-3.639a3.811,3.811,0,0,1,.9-2.215,3.478,3.478,0,0,1,2.268-.949q1.424-.105,3.375-.158t3.217-.053H-.026q4.746,0,7.91.211a3.412,3.412,0,0,1,2.215.949,2.176,2.176,0,0,1,.369.5,4.233,4.233,0,0,1,.264.58,3.816,3.816,0,0,1,.158.554,3.648,3.648,0,0,0,.105.422ZM3.032-9.967l.738-.369L-2.294-13.5v6.328Z" transform="translate(11.259 17.982)" fill="#fff"></path></svg>