<svg xmlns="http://www.w3.org/2000/svg" width="930" height="444.999" viewBox="0 0 930 444.999"><g transform="translate(-303.311 -1599.001)" opacity="0.571"><g transform="translate(105 8)"><g transform="translate(500.311 1591.001)" fill="none" stroke="#fff" stroke-width="1" opacity="0.079"><rect width="1" height="134" stroke="none"></rect><rect x="0.5" y="0.5" height="133" fill="none"></rect></g><g transform="translate(198.311 1725.001)" fill="none" stroke="#fff" stroke-width="1" opacity="0.079"><rect width="242" height="1" stroke="none"></rect><rect x="0.5" y="0.5" width="241" fill="none"></rect></g></g><g transform="translate(449 8)"><g transform="translate(500.311 1591.001)" fill="none" stroke="#fff" stroke-width="1" opacity="0.079"><rect width="1" height="134" stroke="none"></rect><rect x="0.5" y="0.5" height="133" fill="none"></rect></g><g transform="translate(198.311 1725.001)" fill="none" stroke="#fff" stroke-width="1" opacity="0.079"><rect width="242" height="1" stroke="none"></rect><rect x="0.5" y="0.5" width="241" fill="none"></rect></g></g><g transform="translate(793 8)"><g transform="translate(198.311 1725.001)" fill="none" stroke="#fff" stroke-width="1" opacity="0.079"><rect width="242" height="1" stroke="none"></rect><rect x="0.5" y="0.5" width="241" fill="none"></rect></g></g><g transform="translate(105 162.999)"><g transform="translate(500.311 1591.001)" fill="none" stroke="#fff" stroke-width="1" opacity="0.079"><rect width="1" height="134" stroke="none"></rect><rect x="0.5" y="0.5" height="133" fill="none"></rect></g><g transform="translate(198.311 1725.001)" fill="none" stroke="#fff" stroke-width="1" opacity="0.079"><rect width="242" height="1" stroke="none"></rect><rect x="0.5" y="0.5" width="241" fill="none"></rect></g></g><g transform="translate(449 162.999)"><g transform="translate(500.311 1591.001)" fill="none" stroke="#fff" stroke-width="1" opacity="0.079"><rect width="1" height="134" stroke="none"></rect><rect x="0.5" y="0.5" height="133" fill="none"></rect></g><g transform="translate(198.311 1725.001)" fill="none" stroke="#fff" stroke-width="1" opacity="0.079"><rect width="242" height="1" stroke="none"></rect><rect x="0.5" y="0.5" width="241" fill="none"></rect></g></g><g transform="translate(793 162.999)"><g transform="translate(198.311 1725.001)" fill="none" stroke="#fff" stroke-width="1" opacity="0.079"><rect width="242" height="1" stroke="none"></rect><rect x="0.5" y="0.5" width="241" fill="none"></rect></g></g><g transform="translate(105 317.999)"><g transform="translate(500.311 1591.001)" fill="none" stroke="#fff" stroke-width="1" opacity="0.079"><rect width="1" height="134" stroke="none"></rect><rect x="0.5" y="0.5" height="133" fill="none"></rect></g><g transform="translate(198.311 1725.001)" fill="none" stroke="#fff" stroke-width="1" opacity="0.079"><rect width="242" height="1" stroke="none"></rect><rect x="0.5" y="0.5" width="241" fill="none"></rect></g></g><g transform="translate(449 317.999)"><g transform="translate(500.311 1591.001)" fill="none" stroke="#fff" stroke-width="1" opacity="0.079"><rect width="1" height="134" stroke="none"></rect><rect x="0.5" y="0.5" height="133" fill="none"></rect></g><g transform="translate(198.311 1725.001)" fill="none" stroke="#fff" stroke-width="1" opacity="0.079"><rect width="242" height="1" stroke="none"></rect><rect x="0.5" y="0.5" width="241" fill="none"></rect></g></g><g transform="translate(793 317.999)"><g transform="translate(198.311 1725.001)" fill="none" stroke="#fff" stroke-width="1" opacity="0.079"><rect width="242" height="1" stroke="none"></rect><rect x="0.5" y="0.5" width="241" fill="none"></rect></g></g></g></svg>