<svg xmlns="http://www.w3.org/2000/svg" id="Chat_5" data-name="Chat#5" width="22" height="22" viewBox="0 0 22 22"><rect id="bound" width="22" height="22" fill="none"></rect><path id="Combined_Shape" data-name="Combined Shape" d="M15.875,15.852l-2.1-2.1H3a3,3,0,0,1-3-3V3A3,3,0,0,1,3,0H14.417a3,3,0,0,1,3,3v7.75q0,.133-.011.264L17.439,11v4.2a.916.916,0,0,1-.923.918A.9.9,0,0,1,15.875,15.852Z" transform="translate(2.75 2.75)" fill="#737588" opacity="0.3"></path><path id="Combined_Shape-2" data-name="Combined Shape" d="M10.616,3A1.447,1.447,0,0,1,9.231,1.5,1.448,1.448,0,0,1,10.616,0,1.447,1.447,0,0,1,12,1.5,1.447,1.447,0,0,1,10.616,3ZM6,3A1.447,1.447,0,0,1,4.616,1.5,1.447,1.447,0,0,1,6,0,1.448,1.448,0,0,1,7.385,1.5,1.447,1.447,0,0,1,6,3ZM1.385,3A1.447,1.447,0,0,1,0,1.5,1.448,1.448,0,0,1,1.385,0,1.447,1.447,0,0,1,2.769,1.5,1.447,1.447,0,0,1,1.385,3Z" transform="translate(5 8)" fill="#737588" opacity="0.3"></path></svg>