<svg xmlns="http://www.w3.org/2000/svg" id="Hidden" width="25" height="25" viewBox="0 0 25 25"><rect id="bound" width="25" height="25" fill="none"></rect><path id="Combined_Shape" data-name="Combined Shape" d="M.942,8.491C.625,8.491.308,8.477,0,8.45L8.45,0a19.584,19.584,0,0,1,1.867,2.242l0,.006A20.748,20.748,0,0,1,7.548,5.366C5.992,6.792,3.584,8.491.942,8.491Z" transform="translate(11.558 10.259)" fill="#737588"></path><path id="Combined_Shape-2" data-name="Combined Shape" d="M2.632,9.868h0A11.464,11.464,0,0,1,0,6.25,11.459,11.459,0,0,1,2.131,3.125,10.232,10.232,0,0,1,5.034.977,9.8,9.8,0,0,1,9.375,0a7.251,7.251,0,0,1,2.609.515L9.375,3.125A3.129,3.129,0,0,0,6.25,6.25L2.633,9.868Z" transform="translate(3.125 6.25)" fill="#737588"></path><rect id="Rectangle" width="19.792" height="2.083" transform="translate(5.313 19.203) rotate(-45)" fill="#737588" opacity="0.3"></rect></svg>