<svg xmlns="http://www.w3.org/2000/svg" xmlns:xlink="http://www.w3.org/1999/xlink" width="37.585" height="30.952" viewBox="0 0 37.585 30.952"><defs><linearGradient id="icn-grad-22" x1="0.5" x2="0.5" y2="1" gradientUnits="objectBoundingBox"><stop offset="0" stop-color="#483dd3"></stop><stop offset="1" stop-color="#60a3e6"></stop></linearGradient></defs><g transform="translate(-6.632 -13.768)" opacity="0.624"><path d="M9.316,14H20.37a3.316,3.316,0,0,1,0,6.632H9.316a3.316,3.316,0,0,1,0-6.632Zm19.9,17.686H40.267a3.316,3.316,0,1,1,0,6.632H29.213a3.316,3.316,0,1,1,0-6.632Z" transform="translate(0.632 2.581)" fill-rule="evenodd" opacity="0.577" fill="url(#22)"></path><path d="M36.952,23.265a6.633,6.633,0,1,1,6.633-6.633A6.633,6.633,0,0,1,36.952,23.265ZM12.633,40.952a6.633,6.633,0,1,1,6.633-6.633A6.633,6.633,0,0,1,12.633,40.952Z" transform="translate(0.632 3.768)" fill-rule="evenodd" fill="url(#22)"></path></g></svg>