<svg xmlns="http://www.w3.org/2000/svg" xmlns:xlink="http://www.w3.org/1999/xlink" width="40.841" height="34.715" viewBox="0 0 40.841 34.715"><defs><linearGradient id="a" x1="0.5" x2="0.5" y2="1" gradientUnits="objectBoundingBox"><stop offset="0" stop-color="#483dd3"></stop><stop offset="1" stop-color="#60a3e6"></stop></linearGradient></defs><g transform="translate(-4.084 -8.168)"><path d="M7.063,42.715H41.778a3.063,3.063,0,0,0,3.063-3.063V17.189a3.063,3.063,0,0,0-3.063-3.063H20.336L15.107,8.9A3.063,3.063,0,0,0,12.941,8H7.063A3.063,3.063,0,0,0,4,11.063V39.652A3.063,3.063,0,0,0,7.063,42.715Z" transform="translate(0.084 0.168)" fill-rule="evenodd" opacity="0.624" fill="url(#a)"></path><path d="M23.161,24.323a3.161,3.161,0,1,1,3.161-3.161A3.161,3.161,0,0,1,23.161,24.323Z" transform="translate(1.036 2.991)" fill="#fff" fill-rule="evenodd"></path><path d="M14,35.112C14.341,30.4,17.743,28,21.889,28c4.2,0,7.659,2.266,7.916,7.113a.659.659,0,0,1-.66.79H14.639C14.419,35.9,13.982,35.369,14,35.112Z" transform="translate(2.295 0.895)" fill="#fff" fill-rule="evenodd"></path></g></svg>