<svg xmlns="http://www.w3.org/2000/svg" xmlns:xlink="http://www.w3.org/1999/xlink" width="37.562" height="37.488" viewBox="0 0 37.562 37.488"><defs><linearGradient id="a" x1="0.5" x2="0.5" y2="1" gradientUnits="objectBoundingBox"><stop offset="0" stop-color="#483dd3"></stop><stop offset="1" stop-color="#60a3e6"></stop></linearGradient></defs><g transform="translate(-1.622)"><path d="M16.409,15.8A11.108,11.108,0,0,1,31.16,1.032L24.98,6.485a4.241,4.241,0,0,0-1.224,3.632l.322,1.612a2.374,2.374,0,0,0,1.731,1.728l1.615.321a4.263,4.263,0,0,0,3.639-1.222l5.464-6.168a11.108,11.108,0,0,1-14.8,14.722,4.374,4.374,0,0,1-.346.411L7.441,36.168a4.2,4.2,0,0,1-6.034.081l-.165-.165a4.18,4.18,0,0,1,.081-6.022L16,16.147A4.375,4.375,0,0,1,16.409,15.8Z" transform="translate(1.622 0)" opacity="0.624" fill="url(#a)"></path></g></svg>