<svg xmlns="http://www.w3.org/2000/svg" width="17.74" height="17.74" viewBox="0 0 17.74 17.74"><g transform="translate(-154.508 -454.598)" opacity="0.525"><g transform="translate(154.508 454.598)"><path d="M9.942,6H19.8a3.942,3.942,0,1,1,0,7.884H9.942A3.942,3.942,0,0,1,9.942,6Zm0,5.913A1.971,1.971,0,1,0,7.971,9.942,1.971,1.971,0,0,0,9.942,11.913Z" transform="translate(-6 -6)" fill="#273653" fill-rule="evenodd"></path><path d="M9.942,26H19.8a3.942,3.942,0,1,1,0,7.884H9.942a3.942,3.942,0,1,1,0-7.884ZM19.8,31.913a1.971,1.971,0,1,0-1.971-1.971A1.971,1.971,0,0,0,19.8,31.913Z" transform="translate(-6 -16.145)" fill="#273653" fill-rule="evenodd" opacity="0.3"></path></g></g></svg>