<svg xmlns="http://www.w3.org/2000/svg" xmlns:xlink="http://www.w3.org/1999/xlink" width="43.002" height="33" viewBox="0 0 43.002 33"><defs><linearGradient id="icn-grad-66" x1="0.5" x2="0.5" y2="1" gradientUnits="objectBoundingBox"><stop offset="0" stop-color="#483dd3"></stop><stop offset="1" stop-color="#60a3e6"></stop></linearGradient></defs><g transform="translate(-381.998 -2316.225)" opacity="0.624"><path d="M-1774.567,20744.1a4,4,0,0,1-4-4,4,4,0,0,1,4-4h23a4,4,0,0,1,4,4,4,4,0,0,1-4,4Zm0-12a4,4,0,0,1-4-4,4,4,0,0,1,4-4h35a4,4,0,0,1,4,4,4,4,0,0,1-4,4Zm0-13a4,4,0,0,1-4-4,4,4,0,0,1,4-4h20a4,4,0,0,1,4,4,4,4,0,0,1-4,4Z" transform="translate(2160.568 -18394.877)" opacity="0.817" fill="url(#icn-grad-66)"></path></g></svg>