<svg xmlns="http://www.w3.org/2000/svg" width="21.16" height="13.75" viewBox="0 0 21.16 13.75"><path d="M10.575,7.5A6.234,6.234,0,0,0,5.761,9.763l-1.924-1.6a8.751,8.751,0,0,1,13.492.019L15.4,9.777A6.237,6.237,0,0,0,10.575,7.5Zm0-5A11.223,11.223,0,0,0,1.922,6.56L0,4.961a13.751,13.751,0,0,1,21.16.013l-1.923,1.6A11.225,11.225,0,0,0,10.575,2.5Z" fill="#fff" opacity="0.839"></path><path d="M5.788,1.325,3.881,2.942l-.988.808-.943-.78L0,1.406a3.75,3.75,0,0,1,5.788-.081Z" transform="translate(7.647 10)" fill="#fff"></path></svg>