<svg xmlns="http://www.w3.org/2000/svg" width="22.281" height="17.238" viewBox="0 0 22.281 17.238"><g opacity="0.617"><path d="M6.223,18.181a.781.781,0,0,0,1.431.433l6.092-9.138a.781.781,0,0,0-.65-1.215H8.306V2.508a.781.781,0,0,0-1.431-.433L.783,11.213a.781.781,0,0,0,.65,1.215h4.79Z" transform="translate(8.402 -1.726)" fill="#273653"></path><path d="M3.6,14a1.4,1.4,0,1,1,0-2.8h6a1.4,1.4,0,0,1,0,2.8ZM1.4,8.4a1.4,1.4,0,1,1,0-2.8H6.3a1.4,1.4,0,1,1,0,2.8ZM3.6,2.8A1.4,1.4,0,1,1,3.6,0h6a1.4,1.4,0,0,1,0,2.8Z" transform="translate(0 1.119)" fill="#273653" opacity="0.3"></path></g></svg>