<svg xmlns="http://www.w3.org/2000/svg" xmlns:xlink="http://www.w3.org/1999/xlink" width="39.063" height="30.691" viewBox="0 0 39.063 30.691"><defs><linearGradient id="a" x1="0.5" x2="0.5" y2="1" gradientUnits="objectBoundingBox"><stop offset="0" stop-color="#483dd3"></stop><stop offset="1" stop-color="#60a3e6"></stop></linearGradient></defs><g transform="translate(0.5 0.521)" opacity="0.624"><path d="M10.235,30.029a1.344,1.344,0,0,0,2.462.745L23.176,15.056a1.344,1.344,0,0,0-1.118-2.089H13.819v-9.9a1.344,1.344,0,0,0-2.462-.745L.878,18.045A1.344,1.344,0,0,0,2,20.134h8.239Z" transform="translate(14.64 -1.726)" stroke="rgba(0,0,0,0)" stroke-miterlimit="10" stroke-width="1" fill="url(#a)"></path><path d="M5.1,25a1.5,1.5,0,0,1-1.5-1.5v-2A1.5,1.5,0,0,1,5.1,20H16.5A1.5,1.5,0,0,1,18,21.5v2A1.5,1.5,0,0,1,16.5,25ZM1.5,15A1.5,1.5,0,0,1,0,13.5v-2A1.5,1.5,0,0,1,1.5,10h9.6a1.5,1.5,0,0,1,1.5,1.5v2A1.5,1.5,0,0,1,11.1,15ZM5.1,5A1.5,1.5,0,0,1,3.6,3.5v-2A1.5,1.5,0,0,1,5.1,0H16.5A1.5,1.5,0,0,1,18,1.5v2A1.5,1.5,0,0,1,16.5,5Z" transform="translate(0 2.325)" stroke="rgba(0,0,0,0)" stroke-miterlimit="10" stroke-width="1" opacity="0.3" fill="url(#a)"></path></g></svg>