<svg xmlns="http://www.w3.org/2000/svg" xmlns:xlink="http://www.w3.org/1999/xlink" id="Layer_1" x="0px" y="0px" viewBox="0 0 24 24" style="enable-background:new 0 0 24 24;" xml:space="preserve"><style type="text/css">	.st0{fill:#7A7FDC;}</style><g>	<path class="st0" d="M22.8,15.1c-0.1-0.2-0.2-0.3-0.4-0.4l-2.1-1.2l-0.1,0l-7.7,4.5c-0.3,0.2-0.8,0.2-1.1,0l-7.7-4.5l-0.1,0  l-2.1,1.2c-0.5,0.3-0.7,1-0.4,1.5c0.1,0.2,0.2,0.3,0.4,0.4l9.9,5.7c0.3,0.2,0.8,0.2,1.1,0l9.9-5.7C23,16.3,23.1,15.6,22.8,15.1z"></path>	<path class="st0" d="M22.5,7.8l-9.9-5.7c-0.3-0.2-0.8-0.2-1.1,0L1.6,7.8C1.4,7.9,1.3,8,1.2,8.2C1,8.8,1.1,9.4,1.6,9.8l2,1.2  l7.9,4.5c0.2,0.1,0.3,0.1,0.5,0.1c0.2,0,0.3-0.1,0.5-0.1l7.8-4.5l2.1-1.2c0.2-0.1,0.3-0.2,0.4-0.4C23.1,8.8,23,8.1,22.5,7.8z"></path></g></svg>