<svg xmlns="http://www.w3.org/2000/svg" xmlns:xlink="http://www.w3.org/1999/xlink" id="Layer_1" x="0px" y="0px" viewBox="0 0 67.6 20.4" style="enable-background:new 0 0 67.6 20.4;" xml:space="preserve"><style type="text/css">	.st0{fill:#1E283C;}	.st1{fill:#7A7FDC;}</style><g>	<path class="st0" d="M27.5,4.6c1.2,0,2.2,0.4,3.1,1.3c0.8,0.9,1.2,1.9,1.2,3.2s-0.4,2.3-1.2,3.2c-0.8,0.9-1.8,1.3-3.1,1.3h-3.5V4.6  H27.5z M27.5,11.8c0.8,0,1.4-0.3,1.9-0.8c0.5-0.5,0.7-1.2,0.7-2s-0.2-1.5-0.7-2c-0.5-0.5-1.1-0.8-1.9-0.8h-1.8v5.6H27.5z"></path>	<path class="st0" d="M34.3,11c0.2,0.8,0.8,1.2,1.8,1.2c0.6,0,1.1-0.2,1.4-0.6l1.3,0.8c-0.6,0.9-1.6,1.4-2.8,1.4  c-1.1,0-1.9-0.3-2.5-1s-1-1.4-1-2.4c0-1,0.3-1.8,0.9-2.4c0.6-0.6,1.4-1,2.4-1c0.9,0,1.7,0.3,2.3,1c0.6,0.6,0.9,1.4,0.9,2.4  c0,0.2,0,0.4-0.1,0.7H34.3z M34.3,9.7h3.2c-0.1-0.4-0.3-0.8-0.6-1c-0.3-0.2-0.6-0.3-1-0.3c-0.4,0-0.8,0.1-1.1,0.3  C34.6,9,34.4,9.3,34.3,9.7z"></path>	<path class="st0" d="M44.3,7.1h1.8l-2.4,6.4h-1.9l-2.4-6.4h1.8l1.5,4.5L44.3,7.1z"></path>	<path class="st1" d="M46.9,13.5V4.2h1.6v9.3H46.9z"></path>	<path class="st1" d="M55.4,12.7c-0.7,0.6-1.5,1-2.4,1c-0.9,0-1.7-0.3-2.4-1c-0.6-0.6-1-1.4-1-2.4s0.3-1.7,1-2.4  c0.6-0.6,1.4-1,2.4-1c0.9,0,1.7,0.3,2.4,1c0.7,0.6,1,1.4,1,2.4S56.1,12,55.4,12.7z M51.8,11.6c0.3,0.3,0.7,0.5,1.2,0.5  c0.5,0,0.9-0.2,1.2-0.5c0.3-0.3,0.5-0.8,0.5-1.3S54.6,9.4,54.3,9C54,8.7,53.5,8.5,53,8.5c-0.5,0-0.9,0.2-1.2,0.5  c-0.3,0.3-0.5,0.8-0.5,1.3S51.5,11.2,51.8,11.6z"></path>	<path class="st1" d="M62.5,7.1h1.6v6.1c0,1-0.3,1.7-1,2.3c-0.6,0.5-1.4,0.8-2.3,0.8c-0.7,0-1.3-0.1-1.8-0.4  c-0.5-0.3-0.9-0.6-1.2-1.2l1.4-0.8c0.3,0.6,0.9,0.9,1.7,0.9c0.5,0,0.9-0.1,1.2-0.4c0.3-0.3,0.4-0.7,0.4-1.2v-0.7  c-0.5,0.6-1.2,1-2,1c-0.9,0-1.7-0.3-2.3-1s-0.9-1.4-0.9-2.3c0-0.9,0.3-1.7,0.9-2.3c0.6-0.6,1.4-1,2.3-1c0.9,0,1.6,0.3,2,1V7.1z   M59.4,11.5c0.3,0.3,0.8,0.5,1.3,0.5s0.9-0.2,1.3-0.5c0.3-0.3,0.5-0.7,0.5-1.3c0-0.5-0.2-0.9-0.5-1.2c-0.3-0.3-0.8-0.5-1.3-0.5  S59.7,8.6,59.4,9c-0.3,0.3-0.5,0.7-0.5,1.2C58.9,10.7,59.1,11.1,59.4,11.5z"></path>	<path class="st1" d="M67.3,13.3c-0.2,0.2-0.5,0.3-0.8,0.3c-0.3,0-0.6-0.1-0.8-0.3c-0.2-0.2-0.3-0.5-0.3-0.8c0-0.3,0.1-0.6,0.3-0.8  c0.2-0.2,0.5-0.3,0.8-0.3c0.3,0,0.6,0.1,0.8,0.3c0.2,0.2,0.3,0.5,0.3,0.8C67.6,12.9,67.5,13.1,67.3,13.3z"></path></g><g>	<path class="st1" d="M19.6,12.8c-0.1-0.2-0.2-0.3-0.4-0.4l-1.9-1.1l0,0l-6.9,4c-0.3,0.2-0.7,0.2-1,0l-6.9-4l0,0l-1.9,1.1  c-0.5,0.3-0.6,0.9-0.4,1.4c0.1,0.2,0.2,0.3,0.4,0.4l8.9,5.1c0.3,0.2,0.7,0.2,1,0l8.9-5.1C19.7,13.9,19.8,13.3,19.6,12.8z"></path>	<path class="st1" d="M19.3,6.2l-8.9-5.1c-0.3-0.2-0.7-0.2-1,0L0.6,6.2C0.4,6.3,0.3,6.4,0.2,6.6C0,7.1,0.1,7.7,0.6,8l1.8,1.1  l7.1,4.1c0.2,0.1,0.3,0.1,0.5,0.1c0.2,0,0.3-0.1,0.5-0.1l7-4L19.3,8c0.2-0.1,0.3-0.2,0.4-0.4C19.9,7.1,19.8,6.5,19.3,6.2z"></path></g></svg>