<svg xmlns="http://www.w3.org/2000/svg" width="67.386" height="49.006" viewBox="0 0 67.386 49.006"><g transform="translate(-62.33 46.496)"><path d="M24.861,24.022c0,1.725-.181,2.586-1.432,2.586-1.306,0-1.512-.783-1.512-2.349V10.49H11.776V26.662a10.127,10.127,0,0,0,2.265,6.951,7.571,7.571,0,0,0,6,2.729,9.851,9.851,0,0,0,5.049-1.53c-.952,3.606-3.091,5.409-6.3,5.409a10.565,10.565,0,0,1-3.549-.846,19.276,19.276,0,0,1-3.463-1.618v8.4a24.34,24.34,0,0,0,3.463,1.792,15.361,15.361,0,0,0,5.505,1.055,13.862,13.862,0,0,0,10.621-4.8C33.834,41.513,35,37.978,35,33.6V10.49H24.861V24.022ZM47.853.124C35.819,1.208,36.637,14.077,36.637,14.077v22.5c6.543,0,9.814-3.141,9.814-7.49V26.152h4.826V16.363H46.451v-1.31a5.443,5.443,0,0,1,1.084-3.535,3.58,3.58,0,0,1,2.846-1.236c.807.009,2.291.277,2.59,1.44l.022.093v10.2c0,3.747.706,6.755,2.223,9.024a12.737,12.737,0,0,0,4.747,4.222,13.383,13.383,0,0,0,6.311,1.554c.247,0,.7-.007,1.112-.026V26.423c-2.074,0-2.964-.383-3.624-1.176s-.982-2.358-.982-4.316h3.532V10.49H62.967c-.629-3.915-2.98-9.813-11.7-10.47,0,0-1.033-.039-1.842-.01-.631.023-1.57.113-1.57.113ZM13.568,35.766l.007.016a13.291,13.291,0,0,1-3.435,1.424v.053l-.034-.048a8.281,8.281,0,0,1-1.769.2,7.634,7.634,0,0,1-6.053-2.753A10.218,10.218,0,0,1,0,27.65V.678H10.141V27.65a10.206,10.206,0,0,0,2.278,7.011,8.863,8.863,0,0,0,1.149,1.105Z" transform="translate(62.33 -46.496)" fill="#fff"></path></g></svg>