<svg xmlns="http://www.w3.org/2000/svg" width="86" height="24" viewBox="0 0 86 24"><g transform="translate(0 -8)"><path d="M47.07,26V13.98H44.2l-3.19,5.08-3.19-5.08H34.94V26h2.62V18.2l2.46,3.71h1.9l2.5-3.76V26Z" fill="#fff"></path><path d="M59,20h0a3.67,3.67,0,0,0-3.67-3.78A3.62,3.62,0,0,0,51.64,20h0a3.67,3.67,0,0,0,3.67,3.78A3.62,3.62,0,0,0,59,20M48.9,20h0a6.45,6.45,0,0,1,12.89,0h0A6.45,6.45,0,0,1,48.9,20" fill="#fff"></path><path d="M68.25,23.61A3.44,3.44,0,0,0,71.9,20h0a3.46,3.46,0,0,0-3.65-3.62H66.18v7.24ZM63.52,14h4.73c3.81,0,6.44,2.59,6.44,6h0c0,3.38-2.63,6-6.44,6H63.52Z" fill="#fff"></path><path d="M76.77,13.98V26H86V23.65H79.42V21.12h5.71V18.77H79.42V16.33h6.49V13.98Z" fill="#fff"></path><path d="M27.96,8,13.98,16,0,8V32l6.99-4V20l6.99,4,6.99-4v8l6.99,4Z" fill="#fff"></path></g></svg>