<svg xmlns="http://www.w3.org/2000/svg" width="75.708" height="27.247" viewBox="0 0 75.708 27.247"><path d="M32.988,70.262c-4.926,5.785-9.65,12.96-9.7,18.323A6.348,6.348,0,0,0,25.461,93.7a10.531,10.531,0,0,0,7.112,2.6c3.563,0,7.1-1.432,9.871-2.541C47.109,91.894,98.679,69.5,98.679,69.5c.5-.249.4-.56-.218-.4C98.209,69.158,42.319,84.3,42.319,84.3a12.351,12.351,0,0,1-3.253.466c-4.3.025-8.117-2.359-8.086-7.383A16.476,16.476,0,0,1,32.988,70.262Z" transform="translate(-23.29 -69.054)" fill="#fff" fill-rule="evenodd" opacity="0.999"></path></svg>