<svg xmlns="http://www.w3.org/2000/svg" width="18" height="18.01" viewBox="0 0 18 18.01"><g id="Outgoing-box" transform="translate(0 0.01)"><rect id="bound" width="18" height="18" fill="none"></rect><path id="Combined_Shape" data-name="Combined Shape" d="M15,0V3a1.5,1.5,0,0,1-1.5,1.5H1.5A1.5,1.5,0,0,1,0,3V0H3.209l.408,1.224A1.5,1.5,0,0,0,5.041,2.25h5a1.5,1.5,0,0,0,1.342-.829L12.089,0Z" transform="translate(1.5 12.75)" fill="#737588"></path><path id="Path" d="M0,5.25,2.523.765A1.5,1.5,0,0,1,3.83,0h6.5a1.5,1.5,0,0,1,1.307.765L14.156,5.25h-2.49a1.5,1.5,0,0,0-1.342.829L9.615,7.5h-5L4.211,6.276A1.5,1.5,0,0,0,2.788,5.25Z" transform="translate(1.922 6)" fill="#737588" opacity="0.3"></path><path id="Shape" d="M2.5.09a.375.375,0,0,0-.617.286V1.843H.375A.375.375,0,0,0,0,2.218v.767a.375.375,0,0,0,.375.375H1.881V4.828a.375.375,0,0,0,.617.286L5.127,2.888a.375.375,0,0,0,0-.572Z" transform="translate(6.398 5.25) rotate(-90)" fill="#737588"></path></g></svg>