<svg xmlns="http://www.w3.org/2000/svg" width="15" height="12.183" viewBox="0 0 15 12.183"><path d="M5.958-8.68A6.608,6.608,0,0,0,7.5-10.27a6.163,6.163,0,0,1-1.77.476,3.066,3.066,0,0,0,1.352-1.694,6.052,6.052,0,0,1-1.951.742,3.067,3.067,0,0,0-2.246-.971A3.073,3.073,0,0,0-.19-8.642a3.47,3.47,0,0,0,.076.7,8.738,8.738,0,0,1-6.339-3.217A3.051,3.051,0,0,0-6.872-9.6,3.072,3.072,0,0,0-5.5-7.043a3.1,3.1,0,0,1-1.39-.39V-7.4A3.075,3.075,0,0,0-4.426-4.378a3.251,3.251,0,0,1-.809.1,3.875,3.875,0,0,1-.581-.048A3.08,3.08,0,0,0-2.941-2.189,6.157,6.157,0,0,1-6.758-.876,6.362,6.362,0,0,1-7.5-.914,8.688,8.688,0,0,0-2.779.466,8.687,8.687,0,0,0,5.968-8.28C5.968-8.414,5.968-8.547,5.958-8.68Z" transform="translate(7.5 11.716)" fill="#6a7a90"></path></svg>