<svg xmlns="http://www.w3.org/2000/svg" width="13.125" height="13.125" viewBox="0 0 13.125 13.125"><path d="M5.625-12.187H-5.628a.942.942,0,0,0-.935.946V-.009a.942.942,0,0,0,.935.946H5.625a.944.944,0,0,0,.937-.946V-11.241A.944.944,0,0,0,5.625-12.187ZM-2.6-.937H-4.541V-7.2h1.948V-.937Zm-.973-7.119A1.128,1.128,0,0,1-4.7-9.185a1.128,1.128,0,0,1,1.128-1.128A1.13,1.13,0,0,1-2.44-9.185,1.127,1.127,0,0,1-3.568-8.057ZM4.7-.937H2.751V-3.984c0-.727-.015-1.661-1.011-1.661C.727-5.646.571-4.854.571-4.037v3.1H-1.374V-7.2H.492v.855H.519A2.049,2.049,0,0,1,2.361-7.356c1.969,0,2.335,1.3,2.335,2.985Z" transform="translate(6.563 12.187)" fill="#6a7a90"></path></svg>