<svg xmlns="http://www.w3.org/2000/svg" width="79.997" height="35.49" viewBox="0 0 79.997 35.49"><path d="M40-26.225l-11.637.775L24.4-15.15l-1.7-9.925-3.787.25L21.887-10.1l3.988-.25,5.912-14.425L30.2-10.625l8.088-.512.375-3.263-4.3.275.287-2.512,4.3-.275.4-3.525-4.312.287.25-2.262L39.6-22.7ZM13.35-9.562l3.537-.225L18.5-24.8l-3.55.238Zm-33.1,2.075L-3.975-8.45l1-2.038L1.95-10.8l.538,1.95,7.25-.463L10.95-20.8l3.038-.2.375-3.5-9.375.613L4.625-20.4l2.787-.175L6.3-9.875,2.287-23.7l-2.975.2L-7.563-8.85l.262-2.6-4.537.287.238-2.488,4.55-.287.338-3.488-4.55.288.212-2.238,4.55-.3.338-3.487-8.1.525-.325,3.325c-.475-2.5-2.8-3.125-5.312-2.963l-4.862.312-.35,3.85a6.122,6.122,0,0,0-6.412-3.6,9.086,9.086,0,0,0-8.437,8.175,6.383,6.383,0,0,0,7.05,7.275A9.3,9.3,0,0,0-25.8-10.738L-26.137-7.1l3.525-.213.438-4.675Zm-5.537-8.775-.338,3.725L-29-12.325a4.853,4.853,0,0,1-3.613,2.362c-2.675.162-3.762-1.9-3.587-3.9a4.744,4.744,0,0,1,4.325-4.162,3.124,3.124,0,0,1,3.287,1.975Zm7.012-.963c-.162,1.75-1.825,1.9-3.6,2.012l.338-3.562C-19.225-18.925-18.125-18.837-18.275-17.225Zm2.638,8.85L-18.4-12.55a5.676,5.676,0,0,0,3.488-3.325ZM1.287-14l-2.963.188L.3-18.725Zm-21.262-9.325,7.1-.463.787-8.275,4.7,7.912,3.125-.2.5-5.037c1.225,3.612,3.65,5.112,6.925,4.9,4.988-.325,6.613-3.587,7.45-4.75L10.2-25.3l3.55-.237.5-4.787,2.4,4.6,4.55-.3-3.15-4.85a6.017,6.017,0,0,0,4-6.2L24.025-31.7l-.6,5.537,3.55-.238.6-5.537,5.45-9.8-3.875.275L26.275-35.75l-1.613-5.4-4.025.275.55,1.488c-1.062-1.175-2.95-1.325-4.537-1.213l-4.912.338-.413,4A6.519,6.519,0,0,0,4.65-40.05c-5.088.35-7.025,4.25-7.95,5.937l.5-5.15-3.562.237L-7.175-30.7-11.9-38.65l-3.375.225-1.237,13.087-3.838-12.75-2.988.2L-30.463-22.65l3.988-.262,1.012-2.275,4.95-.325ZM14.6-33.587l.363-3.6a5.683,5.683,0,0,1,2.862.25c.35.2.5.637.425,1.3a1.8,1.8,0,0,1-.95,1.512A7.375,7.375,0,0,1,14.6-33.587ZM.962-29.25a3.411,3.411,0,0,1-.9-2.912,4.33,4.33,0,0,1,1.613-3.05,4.67,4.67,0,0,1,2.75-1.15,3.311,3.311,0,0,1,1.525.313,5.989,5.989,0,0,1,1.388,1.013l3.9-.263-.15,1.5L3.2-33.262l-.3,2.987,4.275-.287a5.9,5.9,0,0,1-1.888,1.787,3.971,3.971,0,0,1-1.662.513A3.179,3.179,0,0,1,.962-29.25ZM-24.2-28.225l1.937-4.9,1.037,4.7Z" transform="translate(39.997 41.737)" fill="#fff"></path></svg>