<svg xmlns="http://www.w3.org/2000/svg" width="16.767" height="16.767" viewBox="0 0 16.767 16.767"><path d="M-2.369-6.118A4.162,4.162,0,0,0-.207-6.7,4.34,4.34,0,0,0,1.357-8.28a4.225,4.225,0,0,0,.575-2.162A4.225,4.225,0,0,0,1.357-12.6,4.251,4.251,0,0,0-.207-14.168a4.225,4.225,0,0,0-2.162-.575,4.225,4.225,0,0,0-2.162.575A4.34,4.34,0,0,0-6.106-12.6a4.162,4.162,0,0,0-.587,2.162A4.162,4.162,0,0,0-6.106-8.28,4.432,4.432,0,0,0-4.531-6.7,4.162,4.162,0,0,0-2.369-6.118Zm5.75,0L8.142-1.357,6.693.092,1.932-4.692v-.759L1.656-5.7A5.688,5.688,0,0,1-.2-4.611a6.327,6.327,0,0,1-2.173.379,6.18,6.18,0,0,1-3.14-.828A6.141,6.141,0,0,1-7.774-7.291a6.112,6.112,0,0,1-.851-3.151,6.115,6.115,0,0,1,.84-3.14,6.148,6.148,0,0,1,2.277-2.266,6.18,6.18,0,0,1,3.14-.828,6.112,6.112,0,0,1,3.151.851A6.079,6.079,0,0,1,3-13.57a6.185,6.185,0,0,1,.816,3.128,6.393,6.393,0,0,1-.379,2.2A5.688,5.688,0,0,1,2.346-6.394l.253.276Z" transform="translate(8.625 16.675)" fill="#949494"></path></svg>