<svg xmlns="http://www.w3.org/2000/svg" width="61.043" height="61.043" viewBox="0 0 61.043 61.043"><g transform="translate(-0.911 -0.935)"><path d="M33.315,2.865A30.522,30.522,0,1,0,63.836,33.387,30.522,30.522,0,0,0,33.315,2.865Zm0,58.307A27.785,27.785,0,1,1,61.1,33.387,27.785,27.785,0,0,1,33.315,61.172Z" transform="translate(-1.882 -1.93)" fill="#fff" fill-rule="evenodd"></path><path d="M77.692,31a21.772,21.772,0,0,1,12.16,0L83.775,44.463,77.692,31Z" transform="translate(-52.342 -20.298)" fill="#fff" fill-rule="evenodd"></path><path d="M63.29,40.477a21.762,21.762,0,0,1,5.859,5.5l-9.973,22.07-3.849-8.557H48.035l-3.848,8.557-9.959-22.09a21.742,21.742,0,0,1,5.843-5.476l7.964,17.667h7.317Zm-32.5,12.652A21.662,21.662,0,0,0,42.028,78.084Z" transform="translate(-20.249 -27.27)" fill="#fff" fill-rule="evenodd"></path><path d="M78,105.737a21.773,21.773,0,0,0,11.958,0L83.983,92.468Zm15.635-1.43A21.665,21.665,0,0,0,104.89,79.4Z" transform="translate(-52.55 -53.492)" fill="#fff" fill-rule="evenodd"></path></g></svg>