<svg xmlns="http://www.w3.org/2000/svg" width="55.762" height="55.762" viewBox="0 0 55.762 55.762"><g transform="translate(-0.911 -0.935)"><path d="M30.674,2.865A27.881,27.881,0,1,0,58.555,30.746,27.881,27.881,0,0,0,30.674,2.865Zm0,53.262A25.381,25.381,0,1,1,56.055,30.746,25.381,25.381,0,0,1,30.674,56.127Z" transform="translate(-1.882 -1.93)" fill="#fff" fill-rule="evenodd"></path><path d="M77.692,30.921a19.888,19.888,0,0,1,11.108,0l-5.551,12.3-5.557-12.3Z" transform="translate(-54.457 -21.068)" fill="#fff" fill-rule="evenodd"></path><path d="M60.414,40.477A19.879,19.879,0,0,1,65.767,45.5l-9.11,20.16-3.516-7.817H46.48l-3.515,7.817-9.1-20.179a19.861,19.861,0,0,1,5.338-5L46.48,56.616h6.684ZM30.723,52.035a19.788,19.788,0,0,0,10.269,22.8Z" transform="translate(-21.018 -28.332)" fill="#fff" fill-rule="evenodd"></path><path d="M78,103.458a19.889,19.889,0,0,0,10.924,0L83.465,91.338Zm14.283-1.306A19.79,19.79,0,0,0,102.564,79.4Z" transform="translate(-54.673 -55.653)" fill="#fff" fill-rule="evenodd"></path></g></svg>