<?xml version="1.0" encoding="utf-8"?>
<!-- Generator: Adobe Illustrator 27.0.1, SVG Export Plug-In . SVG Version: 6.00 Build 0)  -->
<svg version="1.1" id="Layer_1" xmlns="http://www.w3.org/2000/svg" xmlns:xlink="http://www.w3.org/1999/xlink" x="0px" y="0px"
	 viewBox="0 0 595.3 595.3" style="enable-background:new 0 0 595.3 595.3;" xml:space="preserve">
<style type="text/css">
	.st0{fill:#45467C;}
	.st1{fill:#D5EDEE;}
	.st2{fill:#2B2B4C;}
	.st3{fill:#15B054;}
	.st4{fill:#FDB816;}
	.st5{fill:#EF414E;}
	.st6{fill:#3E3E6A;}
	.st7{fill:#FBBA22;}
	.st8{fill:#FEFFFF;}
	.st9{fill:#1A1B30;}
	.st10{fill:#3B75BA;}
	.st11{fill:#EF4651;}
	.st12{fill:#EF4450;}
</style>
<g>
	<path class="st0" d="M50.4,90.4c0-0.7,0-1.3,0-2c1.9-2,1.6-4.8,2.4-7.2C57.4,66.1,72.1,50.9,96.6,51c134.1,0.3,268.2,0.1,402.3,0.1
		c2,0,4,0,6,0.2c18.6,1.1,34.3,14,38.4,32.2c2.6,11.8,1.4,23.8,0.9,35.7c-154.1,0-308.2,0-462.3,0c-10.1,0-20.3,0-30.4,0.1l0.1-0.2
		c-0.1-8.1-0.1-16.1-0.2-24.2C51.3,93.4,52.2,91.6,50.4,90.4z M348.4,93.4c25.3,0,50.5,0,75.8,0c6.7,0,9.8-3.3,9.4-9.3
		c-0.4-5.2-3.7-7.6-10.8-7.6c-49.4,0-98.7,0-148.1,0c-1.2,0-2.4-0.2-3.5,0.1c-3.4,0.9-6.2,2.8-7.1,6.3c-0.9,3.4-0.1,6.6,2.9,8.9
		c2.1,1.7,4.6,1.6,7.1,1.6C298.9,93.4,323.7,93.4,348.4,93.4z M183.1,93.5C183.1,93.5,183.1,93.6,183.1,93.5c1.2,0.1,2.3,0.1,3.5,0
		c5.4-0.2,9.2-3.7,9.3-8.4c0.1-4.8-4-8.6-9.5-8.7c-2.7-0.1-5.3-0.1-8,0c-4.9,0.2-8.4,3.9-8.3,8.7c0,4.8,3,8,8,8.3
		C179.8,93.6,181.4,93.5,183.1,93.5z M139.7,93.6C139.7,93.6,139.7,93.5,139.7,93.6c1.7,0,3.3,0.1,5,0c5.1-0.3,8.5-3.7,8.4-8.5
		c0-4.6-3.5-8.2-8.5-8.5c-2.6-0.1-5.3-0.1-7.9,0c-5.3,0.2-9.1,3.7-9.3,8.4c-0.2,4.9,3.8,8.5,9.4,8.7
		C137.7,93.6,138.7,93.6,139.7,93.6z M97.5,93.5C97.5,93.5,97.5,93.5,97.5,93.5c1.5,0,3,0.1,4.5,0c5.3-0.3,8.4-3.4,8.5-8.4
		c0-4.9-3.3-8.4-8.4-8.6c-3.1-0.2-6.3-0.3-9.4,0.1c-4.7,0.5-7.6,4.2-7.4,9c0.2,4.6,3.1,7.6,7.8,7.9C94.5,93.6,96,93.5,97.5,93.5z"/>
	<path class="st1" d="M51.4,506.4c0-126.6,0-253.1,0-379.7c0-2.5,0-5,0-7.5c10.1,0,20.3-0.1,30.4-0.1c154.1,0,308.2,0,462.3,0
		c0,129.3,0.1,258.5-0.1,387.8c0,12.2-7.2,21.8-16.7,29.2c-6.4,5-13.8,7.7-22,8c-138.7,0-277.4,0-416,0
		C70.6,543.8,51.9,525.1,51.4,506.4z M400.6,281.9c-6.1-1.5-12.3-0.7-18.4-0.5c-2.5-9.1-5-18.2-7.7-27.2c-1.7-6-5.9-8.6-11.1-7.2
		c-4.8,1.3-6.9,6.1-5.2,12.1c3,10.5,6,21,9.1,31.4c-0.6,0.8-1.1,1.6-1.8,2.4c-11.5,14.9-10.6,27,3.1,38.8c-1.3,0.1-2.7,0.2-4,0.3
		c-1.4-0.3-2.7,0-3.9,0.7c-4.3-0.1-7.2,3.2-11.1,4.1c-7.8-3.2-15.6-6.4-23.4-9.5c-2.7-1.1-4.2-2.5-4.8-5.6
		c-2-11.1-4.4-22.1-6.7-33.1c-1.3-6.1-5.2-8.9-10.5-7.8c-4.7,1-7.2,5.6-6.1,11.3c2.2,11.2,4.5,22.4,6.7,33.6
		c1.6,8.1,6.1,13.8,13.8,16.9c7.4,2.9,14.7,5.9,22.1,8.8c0,7.5,0,14.9-0.1,22.4c-8.9,1.6-17.8,0.5-26.7,0.6
		c-7.6,0.1-13.9,2.7-19.2,7.9c-6.2,6.2-12.5,12.4-18.7,18.7c-4.7,4.8-5.2,9.7-1.3,13.5c3.6,3.6,8.6,3.1,13.1-1.3
		c6-5.9,12-12,18-17.9c2-2,4.1-3.8,7.3-3.7c9.1,0.1,18.2,0.2,27.4,0.3c0,6.7-0.7,13.4,1.4,19.9c0.2,2-1.4,2.9-2.6,4
		c-5.2,4.9-10.4,9.8-15.6,14.7c-6.3,6.1-8.7,13.5-5.7,21.8c4.5,12.1,9.5,24,14.3,36c1.2,3,3.4,4.9,6.7,5.2
		c6.9,0.8,11.3-5.2,8.7-12.2c-4.1-10.7-8.4-21.2-12.6-31.8c-0.6-1.6-2.2-3.6-0.7-5.1c5-5.1,9.4-11,16-14.4
		c9.6,15.4,32.2,24.1,51,20.1c13.3-2.8,23.4-10.2,31.9-20.4c4,3.8,7.8,7.8,12,11.3c3.2,2.7,3.7,5.3,2.1,9.1
		c-4.4,10.3-8.5,20.8-12.6,31.3c-2,5.2-0.1,9.9,4.4,11.7c4.6,1.9,9.1-0.1,11.2-5.2c4.7-11.5,9.4-23,13.8-34.6c3.1-8.4,1.5-16-5-22.4
		c-5.2-5.1-10.6-10.1-15.9-15.1c-1.5-1.4-3-2.6-2.2-5c1.8-6.3,1.2-12.7,1.3-19.1c8.5,0,16.9,0,25.4-0.2c3.6-0.1,6.4,1.1,8.8,3.7
		c6,6.2,12.1,12.3,18.3,18.3c4.4,4.3,9.6,4.6,13.2,0.8c3.4-3.6,3.1-8.5-1.1-12.8c-6.5-6.6-13.1-13.2-19.8-19.7
		c-5-4.9-10.9-7.3-17.9-7.3c-9,0.1-17.9,0-26.9-0.1c-0.6-7.5,0.9-15-0.9-22.4c7.3-3.9,15.2-6.3,22.8-9.5c7.1-3,11.7-7.9,13.2-15.6
		c2.3-11.7,4.7-23.4,7-35.1c1.1-5.5-1.3-9.9-5.8-10.9c-5.3-1.3-9.3,1.5-10.7,7.6c-2.4,11-4.6,22-6.7,33.1c-0.6,3-1.8,4.6-4.6,5.7
		c-7.9,3.1-15.6,6.4-23.4,9.6c-4.2-0.8-7.3-4.5-11.9-4.2c-0.6-0.5-1.2-0.8-2-0.5c-2-0.1-4.1-0.2-6.1-0.3c0.2-0.3,0.4-0.8,0.8-1
		c9.6-5,12.4-11.2,10.7-21.9c-1.2-7.3-5.5-12.9-9.2-18.9c3-10.3,6-20.6,8.9-30.9c1.7-6-0.5-10.5-5.4-12c-4.8-1.4-9.1,1.5-10.8,7.5
		C405.7,263.8,403.2,272.8,400.6,281.9z M246.4,170.2c-33.6,0-67.1,0-100.7,0c-5.9,0-9.5,3.3-9.5,8.4c0,5.2,3.5,8.5,9.4,8.5
		c67.3,0,134.6,0,201.9,0c2.2,0,4.4-0.1,6.2-1.5c2.9-2.3,4.6-5.3,3.4-9.1c-1.4-4.6-4.7-6.4-9.5-6.4
		C313.9,170.2,280.1,170.2,246.4,170.2z M212.8,493.6c10.3,0,20.6,0,30.9,0c12.3,0,24.6,0.1,36.9-0.1c5.1-0.1,8.3-3.1,8.6-7.8
		c0.3-4.9-2.8-8.5-7.9-9.2c-1.1-0.1-2.3-0.1-3.5-0.1c-43.4,0-86.7,0-130.1,0c-1.8,0-3.7,0-5.4,0.5c-4.3,1.4-6.5,4.4-6.1,9
		c0.3,4.2,3.4,7.1,7.9,7.5c1.5,0.1,3,0.1,4.5,0.1C170,493.6,191.4,493.6,212.8,493.6z M204.1,289.6c18.6,0,37.2,0,55.8,0
		c2.1,0,4.4-0.1,6.4-0.7c3.8-1.1,5.7-3.9,5.9-7.8c0.1-3.9-1.7-6.7-5.3-8.2c-2.2-0.9-4.5-0.8-6.9-0.8c-36.5,0-73.1,0-109.6,0
		c-2.6,0-5.3-0.4-7.9,0.5c-4.1,1.3-6.4,4-6.3,8.5c0.1,4.4,2.5,7.1,6.7,8c1.8,0.4,3.6,0.4,5.4,0.4
		C166.9,289.6,185.5,289.6,204.1,289.6z M200.2,374.6c-17.9,0-35.9,0-53.8,0c-6.9,0-10.4,3-10.3,8.6c0.1,5.2,3.9,8.4,10.2,8.4
		c35.7,0,71.4,0,107.1,0c6.3,0,10.6-3.7,10.5-8.8c-0.1-5.1-4-8.2-10.3-8.3C235.8,374.6,218,374.6,200.2,374.6z M438.5,170.2
		c-18.1,0-36.2,0-54.3,0c-6,0-9.6,3.3-9.6,8.4c0,5.2,3.5,8.5,9.5,8.5c36,0,72.1,0,108.1,0c1.2,0,2.4,0,3.5-0.3c4-1,6.9-5,6.5-8.9
		c-0.4-4.6-4.1-7.8-9.4-7.8C474.7,170.2,456.6,170.2,438.5,170.2z M276.4,221.1c12.6,0,25.2,0,37.9,0c4.8,0,9.3-3.9,9.4-7.8
		c0.2-4.8-4-9.1-9.3-9.1c-25.1-0.1-50.2-0.1-75.2,0c-6.1,0-9.3,3.3-9.2,8.7c0.1,5.5,3.2,8.2,9.5,8.2
		C251.8,221.1,264.1,221.1,276.4,221.1z M276.7,255c12.4,0,24.9,0,37.3,0c2,0,4,0.3,5.6-1.4c2.3-2.4,4.9-4.6,3.6-8.5
		c-1.6-4.9-5-7.1-10.1-7.1c-24.6,0-49.1,0-73.7,0c-5.6,0-9.6,3.8-9.5,8.6c0,5.5,3.2,8.3,9.4,8.3C251.8,255,264.3,255,276.7,255z
		 M195.6,408.6c-11,0-21.9-0.1-32.9,0c-5.9,0-9.6,3.5-9.5,8.6c0.1,4.8,3.8,8.4,9.2,8.4c22.1,0.1,44.2,0.1,66.3,0
		c5.9,0,9.5-3.4,9.4-8.6c-0.1-5.2-3.5-8.3-9.6-8.3C217.5,408.5,206.5,408.6,195.6,408.6z M378.7,221.2c9.5,0,18.9,0,28.4,0
		c6.1,0,9.6-3.1,9.7-8.2c0.1-5.4-3.5-8.7-9.8-8.7c-18.9-0.1-37.8-0.1-56.8,0c-6.2,0-9.9,3.4-9.7,8.8c0.1,5.2,3.5,8.1,9.8,8.1
		C359.8,221.2,369.3,221.2,378.7,221.2z M183,323.6c6.6,0,13.3,0.1,19.9,0c5.8-0.1,9.7-3.6,9.8-8.5c0.1-4.8-3.7-8.6-9.6-8.6
		c-13.4-0.2-26.9-0.2-40.3,0c-6.1,0.1-9.6,3.4-9.7,8.5c0,5.2,3.7,8.6,10,8.7C169.8,323.7,176.4,323.6,183,323.6z M183,340.6
		c-6.8,0-13.6-0.1-20.4,0c-5.8,0.1-9.2,3.1-9.4,8c-0.2,4.8,3.4,8.8,8.8,8.9c13.9,0.2,27.9,0.2,41.8,0c5.4-0.1,9.1-4,9-8.7
		c-0.1-4.6-4-8.1-9.4-8.2C196.6,340.5,189.8,340.6,183,340.6z M182.7,255.2c6.8,0,13.6,0,20.4,0c5.5-0.1,9.4-3.3,9.6-7.9
		c0.3-4.9-3.6-8.9-9.2-9c-13.8-0.2-27.5-0.2-41.3,0c-5.4,0.1-9,3.8-9,8.6c0,5,3.5,8.2,9.1,8.3C169.1,255.2,175.9,255.2,182.7,255.2z
		 M183.1,221.2c6.8,0,13.6,0.1,20.4,0c5.4-0.1,9.2-3.7,9.2-8.4c0-4.7-3.8-8.5-9.2-8.5c-13.8-0.1-27.5-0.1-41.3,0
		c-5.4,0-9.1,3.8-9.1,8.5c0,5,3.4,8.3,9,8.4C169.2,221.2,176.1,221.2,183.1,221.2z M182.7,459.5c6.8,0,13.6,0.1,20.4,0
		c5.7-0.1,9.7-3.6,9.6-8.5c0-4.7-3.9-8.4-9.3-8.4c-13.8-0.1-27.5-0.1-41.3,0c-5.3,0-9,3.8-9,8.6c0,4.9,3.6,8.3,9.2,8.3
		C169.1,459.6,175.9,459.5,182.7,459.5z M255.1,340.8c-5.5,0-11,0-16.4,0c-5.4,0-8.5,2.9-8.7,7.9c-0.2,4.4,3.5,8.9,8.1,9
		c11.5,0.2,22.9,0.2,34.4,0c4.9-0.1,8.6-4.7,8.4-9.4c-0.3-4.6-3.5-7.4-8.8-7.5C266.4,340.7,260.8,340.8,255.1,340.8z M250.7,323.8
		c4,0,8,0,11.9,0c0.3,0,0.7,0,1,0c4.5-0.5,8.1-4.2,8.3-8.4c0.2-5.1-2-7.7-7.4-8.6c-8.9-1.5-17.8-1.5-26.6-0.1
		c-6.2,1-8.3,3.6-7.9,9.2c0.3,4.4,4.4,7.8,9.7,7.9C243.4,323.9,247,323.8,250.7,323.8z M250.6,459.5c4.3,0,8.6,0.1,12.9,0
		c5.3-0.1,8.3-3.2,8.3-8.4c0-5.2-2.9-8.4-8.2-8.5c-8.5-0.1-16.9-0.1-25.4,0c-5.3,0.1-8.3,3.2-8.3,8.4c0,5.2,2.9,8.4,8.2,8.5
		C242.3,459.6,246.5,459.5,250.6,459.5z M123,323.5C123,323.5,123,323.5,123,323.5c1.5,0,3,0.1,4.5-0.1c5.1-0.5,8.6-4,8.6-8.5
		c0-4.6-3.4-8.1-8.5-8.5c-2-0.2-4-0.1-5.9-0.1c-7,0.1-11.1,3.2-11.1,8.5c0,5.3,4.1,8.6,11,8.6C122,323.5,122.5,323.5,123,323.5z
		 M106.2,289.4c8.7,0,13-2.9,12.9-8.7c-0.1-5.7-4.3-8.4-12.7-8.4c-8.7,0-13,3-12.9,8.8C93.6,286.7,97.7,289.4,106.2,289.4z
		 M123.5,340.6c-1.7,0-3.3-0.1-5,0c-4.5,0.4-8,3.7-8,7.9c0,4.5,2.3,7.6,6.7,8.6c1.9,0.5,3.9,0.4,5.9,0.4c8.7,0,13-2.9,13-8.7
		C136.1,343.2,132,340.5,123.5,340.6z M123.2,255.2c1.5,0,3,0.1,4.5,0c4.9-0.3,8.2-3.6,8.4-8.1c0.2-4.1-2.9-7.9-7.3-8.7
		c-1.8-0.3-3.6-0.2-5.4-0.2c-8.6,0-13,3-12.9,8.8C110.6,252.6,114.6,255.2,123.2,255.2z M106,391.8c0-0.1,0-0.2,0-0.2
		c1.5,0,3,0.1,4.5,0c5-0.4,8.7-4.1,8.6-8.6c-0.1-4.6-3.7-8.1-8.8-8.3c-3-0.1-6-0.2-9,0.1c-4.3,0.3-7.6,3.6-7.8,7.7
		c-0.2,4.3,1.9,7.4,6.1,8.7C101.6,391.6,103.8,391.6,106,391.8z M106.1,493.5c1.7,0,3.3,0.1,5,0c4.7-0.3,7.1-3.2,7.9-7.5
		c0.7-3.9-2.1-7.9-6.2-8.9c-2-0.5-4.2-0.5-6.4-0.5c-8.7-0.1-13,2.9-12.9,8.7C93.6,490.9,97.6,493.6,106.1,493.5z M123.4,221.2
		c1.2,0,2.3,0,3.5,0c5.4-0.2,9.1-3.5,9.2-8.3c0.1-4.7-3.7-8.4-9-8.6c-2.5-0.1-5-0.1-7.4,0c-5.3,0.2-9.2,3.8-9.2,8.4
		c-0.1,4.9,3.8,8.4,9.5,8.6C121.1,221.2,122.3,221.2,123.4,221.2z M123.3,459.6c8.6,0,12.7-2.7,12.8-8.3c0.1-5.7-4.2-8.7-12.6-8.7
		c-8.8,0-13.2,2.9-13.1,8.7C110.6,456.9,114.7,459.6,123.3,459.6z M106.1,187.2c8.8,0,13.1-2.9,13-8.7c-0.2-5.6-4.3-8.3-12.9-8.3
		c-8.4,0-12.7,2.8-12.7,8.5C93.4,184.3,97.7,187.2,106.1,187.2z M123.1,425.6c1.5,0,3,0.1,4.5,0c4.9-0.3,8.6-4.1,8.6-8.6
		c-0.1-4.6-3.7-8.1-8.8-8.3c-1.5-0.1-3,0-4.5,0c-8.1,0-12.2,2.8-12.3,8.4C110.4,422.6,114.7,425.6,123.1,425.6z"/>
	<path class="st2" d="M348.4,93.4c-24.8,0-49.5,0-74.3,0c-2.5,0-5,0-7.1-1.6c-3-2.3-3.8-5.6-2.9-8.9c0.9-3.4,3.7-5.4,7.1-6.3
		c1.1-0.3,2.3-0.1,3.5-0.1c49.4,0,98.7,0,148.1,0c7.1,0,10.4,2.4,10.8,7.6c0.5,6.1-2.7,9.3-9.4,9.3C399,93.4,373.7,93.4,348.4,93.4z
		"/>
	<path class="st3" d="M183.1,93.5c-1.7,0-3.3,0.1-5,0c-5-0.4-8-3.6-8-8.3c0-4.8,3.4-8.4,8.3-8.7c2.7-0.1,5.3-0.1,8,0
		c5.4,0.1,9.6,4,9.5,8.7c-0.1,4.7-3.9,8.1-9.3,8.4C185.4,93.6,184.3,93.6,183.1,93.5C183.1,93.6,183.1,93.5,183.1,93.5z"/>
	<path class="st4" d="M139.7,93.6c-1,0-2,0-3,0c-5.6-0.2-9.5-3.9-9.4-8.7c0.2-4.7,4-8.2,9.3-8.4c2.6-0.1,5.3-0.1,7.9,0
		c5,0.3,8.5,3.9,8.5,8.5c0,4.8-3.3,8.2-8.4,8.5C143,93.6,141.4,93.5,139.7,93.6C139.7,93.5,139.7,93.6,139.7,93.6z"/>
	<path class="st5" d="M97.5,93.5c-1.5,0-3,0.1-4.5,0c-4.8-0.4-7.7-3.4-7.8-7.9c-0.2-4.8,2.7-8.5,7.4-9c3.1-0.3,6.3-0.2,9.4-0.1
		c5.1,0.3,8.4,3.8,8.4,8.6c0,5-3.1,8.1-8.5,8.4C100.4,93.6,98.9,93.5,97.5,93.5C97.5,93.5,97.5,93.5,97.5,93.5z"/>
	<path class="st2" d="M441.6,352.1c1.9,7.4,0.3,14.9,0.9,22.4c0,5.7,0,11.5,0,17.2c-0.2,6.4,0.5,12.8-1.3,19.1
		c-1.1,6.9-4.8,12.7-7.7,18.9c-8.4,10.2-18.6,17.6-31.9,20.4c-18.9,4-41.4-4.7-51-20.1c-4.6-5.3-7.1-11.5-8.6-18.2
		c-2-6.5-1.4-13.2-1.4-19.9c0-6,0.1-12,0.1-18c0-7.5,0-14.9,0.1-22.4c1.8-5.6,5.6-9.9,8.9-14.6c3.8-1,6.8-4.3,11.1-4.1
		c1.3,0.1,2.7,0.4,3.9-0.7c1.3-0.1,2.7-0.2,4-0.3c0.7,0.3,1.4,1,2.1,1c13.7,0.1,27.3,0,41,0c0.6,0,1.1-0.5,1.7-0.8
		c2,0.1,4.1,0.2,6.1,0.3c0.6,0.6,1.3,0.7,2,0.5c4.5-0.3,7.7,3.4,11.9,4.2c0,1.9,1.5,2.8,2.6,4C439.1,344,441,347.7,441.6,352.1z"/>
	<path class="st4" d="M246.4,170.2c33.7,0,67.5,0,101.2,0c4.7,0,8,1.8,9.5,6.4c1.2,3.9-0.5,6.8-3.4,9.1c-1.8,1.4-4,1.5-6.2,1.5
		c-67.3,0-134.6,0-201.9,0c-6,0-9.5-3.3-9.4-8.5c0-5.2,3.6-8.4,9.5-8.4C179.3,170.2,212.8,170.2,246.4,170.2z"/>
	<path class="st6" d="M413.5,331.9c-0.6,0.3-1.1,0.8-1.7,0.8c-13.7,0.1-27.3,0.1-41,0c-0.7,0-1.4-0.6-2.1-1
		c-13.7-11.8-14.7-23.9-3.1-38.8c0.6-0.8,1.2-1.6,1.7-2.4c4.4-3.9,9.9-6.1,14.9-9.2c6.2-0.3,12.3-1,18.4,0.5
		c5.7,1.6,10.1,5.5,15.1,8.2c3.7,6,8,11.5,9.2,18.9c1.7,10.7-1,16.9-10.7,21.9C413.9,331.1,413.7,331.6,413.5,331.9z"/>
	<path class="st4" d="M212.8,493.6c-21.4,0-42.9,0-64.3,0c-1.5,0-3,0-4.5-0.1c-4.5-0.4-7.5-3.2-7.9-7.5c-0.4-4.6,1.9-7.6,6.1-9
		c1.7-0.5,3.6-0.5,5.4-0.5c43.4,0,86.7,0,130.1,0c1.2,0,2.3-0.1,3.5,0.1c5.1,0.7,8.1,4.3,7.9,9.2c-0.3,4.7-3.4,7.8-8.6,7.8
		c-12.3,0.1-24.6,0.1-36.9,0.1C233.4,493.6,223.1,493.6,212.8,493.6z"/>
	<path class="st7" d="M204.1,289.6c-18.6,0-37.2,0-55.8,0c-1.8,0-3.7-0.1-5.4-0.4c-4.3-0.9-6.6-3.6-6.7-8c-0.1-4.4,2.2-7.1,6.3-8.5
		c2.6-0.9,5.3-0.5,7.9-0.5c36.5,0,73.1,0,109.6,0c2.3,0,4.7-0.1,6.9,0.8c3.6,1.5,5.4,4.3,5.3,8.2c-0.1,3.9-2.1,6.7-5.9,7.8
		c-2,0.6-4.3,0.7-6.4,0.7C241.4,289.6,222.7,289.6,204.1,289.6z"/>
	<path class="st4" d="M200.2,374.6c17.8,0,35.5,0,53.3,0c6.3,0,10.2,3.2,10.3,8.3c0.1,5.1-4.1,8.8-10.5,8.8c-35.7,0-71.4,0-107.1,0
		c-6.3,0-10.1-3.2-10.2-8.4c-0.1-5.6,3.4-8.6,10.3-8.6C164.4,374.5,182.3,374.6,200.2,374.6z"/>
	<path class="st5" d="M438.5,170.2c18.1,0,36.2,0,54.3,0c5.2,0,8.9,3.2,9.4,7.8c0.4,3.9-2.5,8-6.5,8.9c-1.1,0.3-2.3,0.3-3.5,0.3
		c-36,0-72.1,0-108.1,0c-6,0-9.5-3.3-9.5-8.5c0-5.1,3.6-8.4,9.6-8.4C402.2,170.2,420.4,170.2,438.5,170.2z"/>
	<path class="st8" d="M276.4,221.1c-12.3,0-24.6,0-36.9,0c-6.3,0-9.4-2.7-9.5-8.2c-0.1-5.4,3.1-8.7,9.2-8.7
		c25.1-0.1,50.2-0.1,75.2,0c5.3,0,9.4,4.3,9.3,9.1c-0.1,4-4.6,7.8-9.4,7.8C301.6,221.1,289,221.1,276.4,221.1z"/>
	<path class="st8" d="M276.7,255c-12.4,0-24.9,0-37.3,0c-6.2,0-9.4-2.8-9.4-8.3c0-4.8,3.9-8.6,9.5-8.6c24.6-0.1,49.1,0,73.7,0
		c5.1,0,8.5,2.2,10.1,7.1c1.3,4-1.3,6.1-3.6,8.5c-1.6,1.7-3.6,1.4-5.6,1.4C301.6,255,289.2,255,276.7,255z"/>
	<path class="st9" d="M441.6,352.1c-0.6-4.3-2.6-8-5.6-11.2c-1.1-1.2-2.6-2.1-2.6-4c7.8-3.2,15.5-6.5,23.4-9.6
		c2.8-1.1,4.1-2.7,4.6-5.7c2-11.1,4.3-22.1,6.7-33.1c1.3-6.1,5.4-8.8,10.7-7.6c4.5,1.1,6.9,5.5,5.8,10.9c-2.3,11.7-4.7,23.4-7,35.1
		c-1.5,7.7-6.1,12.6-13.2,15.6C456.9,345.7,449,348.2,441.6,352.1z"/>
	<path class="st9" d="M349.7,336.9c-3.3,4.6-7.1,9-8.9,14.6c-7.4-2.9-14.7-5.9-22.1-8.8c-7.7-3.1-12.2-8.7-13.8-16.9
		c-2.2-11.2-4.4-22.4-6.7-33.6c-1.1-5.7,1.4-10.3,6.1-11.3c5.3-1.1,9.3,1.8,10.5,7.8c2.3,11,4.6,22,6.7,33.1
		c0.6,3.1,2.1,4.5,4.8,5.6C334.1,330.5,341.9,333.7,349.7,336.9z"/>
	<path class="st9" d="M342,411.8c1.5,6.7,4,13,8.6,18.2c-6.6,3.3-11,9.2-16,14.4c-1.5,1.5,0.1,3.5,0.7,5.1
		c4.2,10.6,8.5,21.2,12.6,31.8c2.7,7-1.7,13-8.7,12.2c-3.3-0.4-5.5-2.2-6.7-5.2c-4.8-12-9.9-23.9-14.3-36
		c-3.1-8.3-0.7-15.7,5.7-21.8c5.1-5,10.4-9.8,15.6-14.7C340.6,414.6,342.1,413.7,342,411.8z"/>
	<path class="st9" d="M433.5,429.6c2.9-6.1,6.6-12,7.7-18.9c-0.8,2.4,0.7,3.6,2.2,5c5.4,5,10.7,10,15.9,15.1c6.5,6.3,8.2,14,5,22.4
		c-4.4,11.6-9.1,23.1-13.8,34.6c-2.1,5.2-6.7,7.1-11.2,5.2c-4.5-1.8-6.4-6.5-4.4-11.7c4.1-10.5,8.2-21,12.6-31.3
		c1.6-3.8,1.1-6.4-2.1-9.1C441.2,437.4,437.4,433.4,433.5,429.6z"/>
	<path class="st10" d="M195.6,408.6c11,0,21.9,0,32.9,0c6.1,0,9.6,3.1,9.6,8.3c0.1,5.2-3.5,8.6-9.4,8.6c-22.1,0.1-44.2,0.1-66.3,0
		c-5.4,0-9.2-3.6-9.2-8.4c-0.1-5.1,3.7-8.5,9.5-8.6C173.6,408.5,184.6,408.6,195.6,408.6z"/>
	<path class="st9" d="M340.7,373.9c0,6-0.1,12-0.1,18c-9.1-0.1-18.2-0.1-27.4-0.3c-3.2,0-5.2,1.7-7.3,3.7c-6,6-11.9,12-18,17.9
		c-4.5,4.4-9.5,4.9-13.1,1.3c-3.9-3.8-3.5-8.7,1.3-13.5c6.2-6.3,12.4-12.5,18.7-18.7c5.3-5.3,11.6-7.8,19.2-7.9
		C322.9,374.4,331.8,375.4,340.7,373.9z"/>
	<path class="st9" d="M442.5,391.7c0-5.7,0-11.5,0-17.2c9,0,17.9,0.1,26.9,0.1c7,0,13,2.4,17.9,7.3c6.6,6.5,13.2,13.1,19.8,19.7
		c4.2,4.3,4.5,9.2,1.1,12.8c-3.6,3.8-8.8,3.5-13.2-0.8c-6.2-6-12.3-12.2-18.3-18.3c-2.5-2.5-5.2-3.7-8.8-3.7
		C459.5,391.8,451,391.7,442.5,391.7z"/>
	<path class="st5" d="M378.7,221.2c-9.5,0-18.9,0-28.4,0c-6.2,0-9.6-2.9-9.8-8.1c-0.1-5.4,3.5-8.8,9.7-8.8c18.9-0.1,37.8-0.1,56.8,0
		c6.3,0,9.9,3.4,9.8,8.7c-0.1,5.2-3.6,8.2-9.7,8.2C397.6,221.2,388.2,221.2,378.7,221.2z"/>
	<path class="st10" d="M183,323.6c-6.6,0-13.3,0.1-19.9,0c-6.3-0.1-10-3.5-10-8.7c0-5,3.5-8.4,9.7-8.5c13.4-0.2,26.9-0.2,40.3,0
		c5.9,0.1,9.7,3.8,9.6,8.6c-0.1,4.9-3.9,8.4-9.8,8.5C196.3,323.7,189.7,323.6,183,323.6z"/>
	<path class="st10" d="M183,340.6c6.8,0,13.6-0.1,20.4,0c5.4,0.1,9.3,3.5,9.4,8.2c0.1,4.7-3.6,8.6-9,8.7c-13.9,0.2-27.9,0.2-41.8,0
		c-5.4-0.1-8.9-4-8.8-8.9c0.2-4.9,3.6-8,9.4-8C169.4,340.5,176.2,340.6,183,340.6z"/>
	<path class="st10" d="M182.7,255.2c-6.8,0-13.6,0.1-20.4,0c-5.7-0.1-9.1-3.3-9.1-8.3c0-4.8,3.6-8.6,9-8.6c13.8-0.2,27.5-0.2,41.3,0
		c5.7,0.1,9.5,4.1,9.2,9c-0.2,4.6-4.1,7.9-9.6,7.9C196.3,255.2,189.5,255.2,182.7,255.2z"/>
	<path class="st10" d="M183.1,221.2c-7,0-13.9,0.1-20.9,0c-5.6-0.1-9.1-3.4-9-8.4c0-4.8,3.7-8.5,9.1-8.5c13.8-0.1,27.5-0.1,41.3,0
		c5.4,0,9.2,3.8,9.2,8.5c0,4.7-3.8,8.3-9.2,8.4C196.7,221.2,189.9,221.2,183.1,221.2z"/>
	<path class="st10" d="M182.7,459.5c-6.8,0-13.6,0.1-20.4,0c-5.5-0.1-9.1-3.5-9.2-8.3c0-4.8,3.7-8.5,9-8.6c13.8-0.1,27.5-0.1,41.3,0
		c5.4,0,9.2,3.7,9.3,8.4c0,4.9-3.9,8.5-9.6,8.5C196.3,459.6,189.5,459.5,182.7,459.5z"/>
	<path class="st8" d="M255.1,340.8c5.6,0,11.3-0.1,16.9,0c5.3,0.1,8.5,2.9,8.8,7.5c0.3,4.7-3.5,9.3-8.4,9.4
		c-11.5,0.2-22.9,0.2-34.4,0c-4.6-0.1-8.3-4.6-8.1-9c0.2-5.1,3.3-7.9,8.7-7.9C244.2,340.7,249.6,340.8,255.1,340.8z"/>
	<path class="st8" d="M250.7,323.8c-3.6,0-7.3,0.1-10.9,0c-5.3-0.1-9.5-3.5-9.7-7.9c-0.4-5.5,1.7-8.1,7.9-9.2
		c8.9-1.4,17.8-1.5,26.6,0.1c5.4,0.9,7.6,3.5,7.4,8.6c-0.1,4.2-3.8,7.9-8.3,8.4c-0.3,0-0.7,0-1,0
		C258.6,323.8,254.7,323.8,250.7,323.8z"/>
	<path class="st9" d="M382.2,281.4c-5,3-10.5,5.2-14.9,9.2c-3-10.5-6.1-20.9-9.1-31.4c-1.7-6.1,0.4-10.8,5.2-12.1
		c5.2-1.4,9.4,1.2,11.1,7.2C377.1,263.2,379.6,272.3,382.2,281.4z"/>
	<path class="st9" d="M415.7,290.1c-5-2.7-9.5-6.6-15.1-8.2c2.6-9,5.2-18.1,7.8-27.1c1.8-6,6-8.9,10.8-7.5c5,1.4,7.1,6,5.4,12
		C421.7,269.5,418.7,279.8,415.7,290.1z"/>
	<path class="st8" d="M250.6,459.5c-4.1,0-8.3,0.1-12.4,0c-5.3-0.2-8.2-3.3-8.2-8.5c0-5.2,3-8.3,8.3-8.4c8.5-0.1,16.9-0.1,25.4,0
		c5.3,0.1,8.2,3.3,8.2,8.5c0,5.2-3,8.3-8.3,8.4C259.2,459.6,254.9,459.5,250.6,459.5z"/>
	<path class="st11" d="M123,323.5c-0.5,0-1,0-1.5,0c-6.9-0.1-11.1-3.3-11-8.6c0-5.3,4.1-8.5,11.1-8.5c2,0,4-0.1,5.9,0.1
		c5.1,0.4,8.6,3.9,8.5,8.5c0,4.5-3.5,8-8.6,8.5C126,323.6,124.5,323.5,123,323.5C123,323.5,123,323.5,123,323.5z"/>
	<path class="st11" d="M106.2,289.4c-8.5,0-12.6-2.7-12.7-8.4c-0.1-5.8,4.2-8.8,12.9-8.8c8.4,0,12.6,2.8,12.7,8.4
		C119.2,286.5,114.9,289.4,106.2,289.4z"/>
	<path class="st11" d="M123.5,340.6c8.6-0.1,12.6,2.6,12.6,8.3c0,5.8-4.3,8.7-13,8.7c-2,0-4,0.1-5.9-0.4c-4.4-1.1-6.7-4.1-6.7-8.6
		c0-4.3,3.5-7.6,8-7.9C120.1,340.5,121.8,340.6,123.5,340.6z"/>
	<path class="st11" d="M123.2,255.2c-8.6,0-12.6-2.5-12.8-8.2c-0.2-5.8,4.2-8.8,12.9-8.8c1.8,0,3.7-0.1,5.4,0.2
		c4.4,0.8,7.5,4.6,7.3,8.7c-0.2,4.5-3.5,7.7-8.4,8.1C126.2,255.3,124.7,255.2,123.2,255.2z"/>
	<path class="st12" d="M106,391.8c-2.1-0.2-4.4-0.2-6.4-0.8c-4.2-1.2-6.2-4.4-6.1-8.7c0.1-4.1,3.5-7.4,7.8-7.7c3-0.2,6-0.2,9-0.1
		c5.1,0.2,8.7,3.7,8.8,8.3c0.1,4.5-3.6,8.2-8.6,8.6c-1.5,0.1-3,0-4.5,0C106,391.6,106,391.7,106,391.8z"/>
	<path class="st11" d="M106.1,493.5c-8.6,0.1-12.6-2.6-12.7-8.3c-0.1-5.8,4.3-8.7,12.9-8.7c2.1,0,4.3,0,6.4,0.5
		c4.1,1,6.9,5.1,6.2,8.9c-0.8,4.3-3.2,7.2-7.9,7.5C109.5,493.6,107.8,493.5,106.1,493.5z"/>
	<path class="st11" d="M123.4,221.2c-1.2,0-2.3,0-3.5,0c-5.7-0.2-9.6-3.7-9.5-8.6c0.1-4.7,3.9-8.2,9.2-8.4c2.5-0.1,5-0.1,7.4,0
		c5.3,0.3,9.1,4,9,8.6c-0.1,4.8-3.8,8.1-9.2,8.3C125.7,221.2,124.6,221.2,123.4,221.2z"/>
	<path class="st12" d="M123.3,459.6c-8.6,0-12.7-2.7-12.8-8.3c-0.1-5.8,4.3-8.7,13.1-8.7c8.3,0,12.6,3,12.6,8.7
		C136,456.9,131.9,459.6,123.3,459.6z"/>
	<path class="st12" d="M106.1,187.2c-8.4,0-12.7-2.9-12.7-8.5c0-5.6,4.3-8.5,12.7-8.5c8.6,0,12.7,2.7,12.9,8.3
		C119.2,184.3,114.9,187.2,106.1,187.2z"/>
	<path class="st12" d="M123.1,425.6c-8.3,0-12.7-3-12.6-8.6c0.1-5.5,4.2-8.4,12.3-8.4c1.5,0,3,0,4.5,0c5.1,0.2,8.7,3.7,8.8,8.3
		c0.1,4.5-3.6,8.3-8.6,8.6C126,425.6,124.5,425.6,123.1,425.6z"/>
	<path class="st6" d="M364.6,332.1c-1.1,1.1-2.5,0.8-3.9,0.7C361.9,332,363.2,331.8,364.6,332.1z"/>
	<path class="st6" d="M421.6,332.7c-0.8,0.2-1.5,0.1-2-0.5C420.4,331.9,421,332.2,421.6,332.7z"/>
</g>
</svg>
