<?xml version="1.0" encoding="utf-8"?>
<!-- Generator: Adobe Illustrator 26.5.0, SVG Export Plug-In . SVG Version: 6.00 Build 0)  -->
<svg version="1.1" id="Layer_1" xmlns="http://www.w3.org/2000/svg" xmlns:xlink="http://www.w3.org/1999/xlink" x="0px" y="0px"
	 viewBox="0 0 283.5 283.5" style="enable-background:new 0 0 283.5 283.5;" xml:space="preserve">
<style type="text/css">
	.st0{fill:#757CBA;}
</style>
<g id="xA6Q2H.tif">
	<g>
		<path class="st0" d="M174.7,270.3c-35.6,0-71.3,0-106.9,0c-0.1-0.6-0.6-0.5-1-0.5c-20-3.6-33.4-21.4-33.2-40.5
			c0.3-45.2,0.1-90.3,0.1-135.5c0-21.9,18-39.8,39.8-39.9c32.2,0,64.4,0,96.6,0c21.8,0,39.8,18,39.8,39.9c0,45.5,0,91,0,136.5
			c0,17.3-11.1,32.6-27.6,38C179.7,269.1,177.2,269.6,174.7,270.3z M53.7,162c0,22.2,0,44.3,0,66.5c0,13.1,8.5,21.7,21.6,21.7
			c30.9,0,61.9,0,92.8,0c13.1,0,21.6-8.6,21.6-21.7c0-44.3,0-88.5,0-132.8c0-13.3-8.5-21.8-21.7-21.8c-30.9,0-61.7,0-92.6,0
			c-13.2,0-21.7,8.5-21.7,21.8C53.7,117.8,53.7,139.9,53.7,162z"/>
		<path class="st0" d="M249.9,207.5c-0.7,0.3-0.5,1-0.8,1.5c-2.1,4.4-6.6,6.9-11.3,5.9c-4.7-0.9-8-5.1-8-10.1c0-50,0-100.1,0-150.1
			c0-10.4-5.7-18.3-15.1-20.8c-2.2-0.6-4.4-0.7-6.7-0.7c-36.5,0-73.1,0-109.6,0c-5.2,0-9.6-3.7-10.1-8.6c-0.6-5.3,2.4-9.9,7.5-11.2
			c0.9-0.3,2-0.3,3-0.3c37.2,0,74.4,0,111.6,0c19.3,0,36.2,14.7,39,33.9c0.1,0.3,0.1,0.6,0.5,0.7
			C249.9,101.1,249.9,154.3,249.9,207.5z"/>
	</g>
</g>
</svg>
