<?xml version="1.0" encoding="utf-8"?>
<!-- Generator: Adobe Illustrator 27.0.1, SVG Export Plug-In . SVG Version: 6.00 Build 0)  -->
<svg version="1.1" id="Layer_1" xmlns="http://www.w3.org/2000/svg" xmlns:xlink="http://www.w3.org/1999/xlink" x="0px" y="0px"
	 viewBox="0 0 595.3 595.3" style="enable-background:new 0 0 595.3 595.3;" xml:space="preserve">
<style type="text/css">
	.st0{fill:#FFDE6E;}
	.st1{fill:#FFCD54;}
	.st2{fill:#F5F5F5;}
	.st3{fill:#E56557;}
	.st4{fill:#F37361;}
	.st5{fill:#9AC4E9;}
	.st6{fill:#ABD695;}
	.st7{fill:#E5E5E5;}
	.st8{fill:#141836;}
	.st9{fill:#80B2E0;}
	.st10{fill:#9AC184;}
	.st11{fill:#EE5C6C;}
</style>
<g>
	<path class="st0" d="M382.4,389.6c28.8-1.1,50.4-13.9,64-39.5c4.2-7.8,6.6-16.3,6.9-25.2c0.1-3.9,1.4-5.4,5.6-5.4
		c17.6,0.2,35.2,0,52.9,0.1c23.5,0.1,41.1,17.9,41.2,41.5c0.1,17.3,0.1,34.6,0,51.9c-0.1,23.7-17.5,41.3-41.2,41.5
		c-16.3,0.1-32.6,0.1-48.9,0c-3.4,0-5.5,1.1-7.6,3.6c-7.9,9.2-16,18.2-24,27.3c-3.4-8-3.4-16.4-2.9-24.8c0.3-5.2-1.5-6.3-6.4-6.3
		c-21.8,0.2-39.6-17.9-39.6-39.8C382.4,406.2,382.4,397.9,382.4,389.6z"/>
	<path class="st1" d="M382.4,389.6c0,8.3,0,16.6,0,24.8c0,21.8,17.9,40,39.6,39.8c4.9,0,6.7,1,6.4,6.3c-0.5,8.4-0.5,16.8,2.9,24.8
		c-4,3.9-8.7,3.8-13.3,1.9c-4.9-2-7.2-6.3-7.5-11.4c-0.2-5.3-0.3-10.6,0-15.9c0.2-3.5-0.6-4.9-4.5-4.9c-12.7-0.2-23.5-4.8-32-14.5
		c-2-2.3-3.2-4.3-1.7-7.5c1.9-4.2,1.2-8.8,1.2-13.3c0-8.1,0.3-16.3-0.1-24.4c-0.3-4.9,1.3-6.7,6-5.9
		C380.4,389.6,381.4,389.5,382.4,389.6z"/>
	<path class="st1" d="M384.2,436.9l-7.3,6.6c0,0-7.7-5.1-7.7-15.9s0-44,0-44l7.7,1.3"/>
	<rect x="154.5" y="156.1" class="st2" width="299.7" height="233.5"/>
	<path class="st3" d="M42.2,332.6c1.8-2.3,1.7-5.2,2.4-7.8c8.1-26.7,32.1-45,60.5-45.8c5.6-0.2,11.3,0.1,16.9,0.2
		c-0.4,1.8-2,1.4-3.2,1.8c-29,7.6-49.8,34-48.9,65.1c0.8,27.2-0.1,54.5,0.3,81.8c0.3,20.7,9.6,37.1,26,49.6
		c12,9.1,25.8,12.7,40.5,12.7c4.6,0,5.6,1.6,5.4,5.7c-0.3,8-0.3,16,0,23.9c0.2,6,1.2,11.9,5.8,16.3c-4.5,6.4-14.6,7.1-20.3,5
		c-8.2-3-13.1-9.7-13.3-19.1c-0.2-9-0.3-17.9,0-26.9c0.2-4.3-1.2-5.2-5.3-5.1c-28.9,0-52.2-15-62.3-40.1c-1.9-4.7-3-9.7-4.5-14.5
		C42.2,401.1,42.2,366.9,42.2,332.6z"/>
	<path class="st4" d="M147.9,536.1c-4.6-4.5-5.7-10.3-5.8-16.3c-0.2-8-0.3-16,0-23.9c0.2-4.2-0.8-5.7-5.4-5.7
		c-14.7-0.1-28.5-3.6-40.5-12.7c-16.4-12.5-25.7-28.8-26-49.6c-0.4-27.3,0.5-54.5-0.3-81.8c-0.9-31,19.9-57.5,48.9-65.1
		c1.2-0.3,2.8,0.1,3.2-1.8c0.7,0,1.4,0,2.1,0c1.1,0.8,2.3,0.5,3.5,0.5c0.1,13.1,0.3,26.2,0.3,39.3c0.1,30,19.2,56.7,47.5,66.7
		c16.5,5.8,33.4,3.4,50.2,3.7c20.4,0,40.9,0.2,61.3,0.1c3.1,0,5.2,0.8,7.3,3.2c12.5,14.5,25.1,28.8,37.7,43.1
		c1.9,2.2,2.5,4.1,1.7,7.1c-7.5,27.9-32.8,47-63,47.2c-25.8,0.1-51.5,0.1-77.3-0.1c-3.7,0-6.1,1.2-8.4,4
		C172.8,508,160.3,522,147.9,536.1z"/>
	<path class="st5" d="M387.3,53.4c38.7,0,77.5-0.6,116.2,0.1c23.9,0.5,44.6,19.7,46.6,44.8c1.8,23.2,1.1,46.5,0.6,69.7
		c-0.5,26.7-18.6,45.4-41.6,49.4c-3.3,0.6-6.7,0.7-9.9,0.4c-4.3-0.4-5.4,1.4-5.2,5.4c0.3,6.3,0.1,12.6,0.1,18.9
		c0,7.9-3.9,13.9-10.2,16.1c-6.5,2.3-12.7-0.2-18.7-5.7l-3.1-3.1c-6.5-5.8-8.1-13.3-8.2-22.4c-0.3-34.4-22.6-62-55.7-69.7
		c-7-1.6-14.2-1.5-21.3-1.5c-10.8,0-21.6-0.1-32.4-0.1c0-18.1-0.1-36.2,0.1-54.3c0.2-16.2,7.6-28.7,20.3-38.6
		C371.5,57.8,379.4,55.5,387.3,53.4z"/>
	<path class="st6" d="M106,53.4c27.8,0,55.6-0.1,83.4-0.1c2.5,0,5-0.1,7.4-0.2c23.8,0.7,40,20.9,39.1,41.8
		c-0.7,16.1-0.1,32.2-0.2,48.4c-0.1,22.9-16.9,40.1-39.7,40.5c-4.2,0.1-5.5,1.2-5.2,5.3c0.3,5,0.1,10,0.1,15
		c-0.1,5.4-2.6,9.2-7.6,11.2c-4.7,1.9-10,0.6-13.6-3.3c-1.6-1.7-3.1-3.4-4.7-5.1c-5.9-6.9-11.9-13.8-17.7-20.8
		c-1.5-1.7-3.1-2.4-5.3-1.9c-11.7-0.1-23.4-0.2-35-0.3c-1.9-0.6-3.7-1.3-5.6-1.7c-15-3.6-28.6-20.2-28.3-36
		c0.4-18.7-0.1-37.5,0.2-56.2c0.2-11.4,5.4-20.5,14.2-27.7C92.9,57.6,99.3,55.2,106,53.4z"/>
	<path class="st7" d="M142,184c2.1-0.4,3.8,0.2,5.3,1.9c5.9,7,11.8,13.9,17.7,20.8c-2.2,5.1-3,10.5-3,15.9c0,32.7-0.5,65.4,0.1,98.1
		c0.5,25.1,12.3,44.4,33.5,58c9.2,5.9,19.5,8.6,30.1,10.4c-16.8-0.2-33.7,2.1-50.2-3.7c-28.3-10-47.4-36.6-47.5-66.7
		c0-13.1-0.2-26.2-0.3-39.3c0.1-0.2,0.2-0.4,0.2-0.6c0-13.6,0.5-27.2,0-40.8C127.2,218.7,130.4,200.3,142,184z"/>
	<g>
		<path class="st8" d="M341,235.8c13.7,0.2,25,5.9,32.3,18.1c7.5,12.2,7.7,25.1,0.8,37.6c-1.8,3.3-1.7,5.2,1.2,7.3
			c1,0.7,1.9,1.7,2.6,2.7c1.7,2.6,1.8,5.2-0.4,7.5c-2.2,2.3-4.8,2.3-7.5,0.6c-0.2-0.1-0.5-0.3-0.6-0.5c-3.4-5.4-7.1-4.4-12.4-1.9
			c-14,6.8-27.8,4.8-39.8-5.1c-12-10-16.1-23.3-12.2-38.3c3.9-15.1,14.3-24.1,29.5-27.4C336.6,236,338.6,236.1,341,235.8z
			 M341,247.4c-1.7-0.1-4,0.1-6.3,0.8c-10.2,3.1-16.7,9.7-18.8,20.2c-2,10.1,1.1,18.8,9.2,25.3c8.3,6.6,17.5,7.6,27.3,3.4
			c2.5-1.1,3.6-2.1,0.9-4.2c-1.6-1.3-3.1-2.9-4.4-4.5c-2-2.4-1.8-5.7,0.3-7.8c2.2-2.2,5.2-2.3,7.7-0.2c1.4,1.2,2.7,2.6,4,3.9
			c3,3,3,3,4.7-1.1C372.5,266.3,360,247.6,341,247.4z"/>
		<path class="st8" d="M271.3,235.4c3.3,0,5.5,1.7,6.6,4.7c7.9,20.8,15.7,41.6,23.5,62.5c1.2,3.2-0.2,6.3-3,7.5
			c-3,1.3-6.2,0-7.6-3.4c-1.3-3.1-2.5-6.2-3.6-9.4c-0.6-1.8-1.5-2.5-3.5-2.5c-8.5,0.1-16.9,0.1-25.4,0c-2,0-2.9,0.8-3.5,2.6
			c-0.8,2.5-1.8,4.9-2.8,7.3c-1.9,5-4.6,6.8-8.1,5.5c-3.6-1.3-4.5-4.6-2.6-9.8c6.6-17.3,13.2-34.6,19.8-51.9
			c1.1-2.9,2.1-5.8,3.4-8.7C265.8,236.8,268.1,235.3,271.3,235.4z M271.1,254.6c-3.5,9.3-6.8,17.7-10,26.2c-0.5,1.4-1,2.6,1.4,2.6
			c6.3-0.1,12.6,0,19.4,0C278.3,273.7,274.9,264.5,271.1,254.6z"/>
		<path class="st8" d="M202.7,273.6c0-10,0-19.9,0-29.9c0-5.8,1.8-7.6,7.6-7.6c7.6,0,15.2,0,22.8,0c4.3,0,6.8,2.2,6.8,5.7
			c0,3.5-2.5,5.7-6.8,5.7c-5.2,0-10.5,0.1-15.7,0c-2.1,0-3.2,0.3-3.1,2.8c0.2,4.7,0.1,9.5,0,14.2c-0.1,2,0.6,2.6,2.6,2.5
			c4.6-0.1,9.2-0.1,13.8,0c4.6,0.1,7.1,2.2,7.1,5.9c0,3.7-2.5,5.7-7.1,5.8c-4,0-8,0.3-11.9-0.1c-3.8-0.4-4.5,1.1-4.4,4.6
			c0.3,7.2,0.2,14.4,0,21.7c-0.1,3.6-2.7,6.1-5.9,6c-3.1-0.1-5.3-2.4-5.7-5.8c-0.1-1,0-2,0-3C202.7,292.6,202.7,283.1,202.7,273.6z"
			/>
	</g>
	<path class="st9" d="M387.3,53.4c-8,2.1-15.8,4.4-22.5,9.6c-12.7,9.8-20,22.4-20.3,38.6c-0.2,18.1-0.1,36.2-0.1,54.3
		c-6.6,0-13.3,0-19.9,0.2c-3,0.1-4.1-0.8-4.1-3.9c0.1-18-0.3-35.9,0.2-53.9c0.6-20,18.7-40,38.8-44
		C368.7,52.5,378.1,53.5,387.3,53.4z"/>
	<path class="st10" d="M106,53.4c-6.7,1.8-13.1,4.2-18.6,8.7c-8.8,7.2-14,16.3-14.2,27.7c-0.3,18.7,0.2,37.5-0.2,56.2
		c-0.3,15.8,13.3,32.4,28.3,36c1.9,0.5,3.7,1.1,5.6,1.7c-8.6,0.2-17.3,1.2-25.6-1.8c-17.3-6.2-26.9-18.7-27.6-36.9
		C53,126.5,53,107.9,54,89.4c0.9-18.2,17.3-36.3,39.1-36.3C97.4,53.2,101.7,53.3,106,53.4z"/>
	<path class="st11" d="M127.9,279.1c-0.1,0.2-0.1,0.4-0.2,0.6c-1.2,0-2.5,0.3-3.5-0.5C125.4,279.1,126.6,279.1,127.9,279.1z"/>
	<path class="st0" d="M382.4,389.6c28.8-1.1,50.4-13.9,64-39.5c4.2-7.8,6.6-16.3,6.9-25.2c0.1-3.9,1.4-5.4,5.6-5.4
		c17.6,0.2,35.2,0,52.9,0.1c23.5,0.1,41.1,17.9,41.2,41.5c0.1,17.3,0.1,34.6,0,51.9c-0.1,23.7-17.5,41.3-41.2,41.5
		c-16.3,0.1-32.6,0.1-48.9,0c-3.4,0-5.5,1.1-7.6,3.6c-7.9,9.2-16,18.2-24,27.3c-3.4-8-3.4-16.4-2.9-24.8c0.3-5.2-1.5-6.3-6.4-6.3
		c-21.8,0.2-39.6-17.9-39.6-39.8C382.4,406.2,382.4,397.9,382.4,389.6z"/>
</g>
</svg>
