<?xml version="1.0" encoding="utf-8"?>
<!-- Generator: Adobe Illustrator 27.0.1, SVG Export Plug-In . SVG Version: 6.00 Build 0)  -->
<svg version="1.1" id="Layer_1" xmlns="http://www.w3.org/2000/svg" xmlns:xlink="http://www.w3.org/1999/xlink" x="0px" y="0px"
	 viewBox="0 0 250 60" style="enable-background:new 0 0 250 60;" xml:space="preserve">
<style type="text/css">
	.st0{fill:#DF2424;}
	.st1{fill:#3695C7;}
	.st2{clip-path:url(#SVGID_00000048462274694745151670000000824584622205695667_);}
	.st3{fill:#FFFFFF;}
</style>
<g id="surface1">
	<path class="st0" d="M2.1,1.7h20.1v20.1H2.1V1.7z"/>
	<path class="st1" d="M34.1,8.9h20.1V29H34.1V8.9z"/>
	<path class="st1" d="M34.1,32.6h20.1v20.1H34.1V32.6z"/>
	<path class="st1" d="M10.4,32.6h20.1v20.1H10.4V32.6z"/>
	<g>
		<g>
			<defs>
				<rect id="SVGID_1_" y="0" width="250" height="60"/>
			</defs>
			<clipPath id="SVGID_00000018233157702612591800000014084399270865618364_">
				<use xlink:href="#SVGID_1_"  style="overflow:visible;"/>
			</clipPath>
			<g id="surface5" style="clip-path:url(#SVGID_00000018233157702612591800000014084399270865618364_);">
				<path class="st3" d="M88.1,33.3l7.3,2.2c-0.5,2-1.3,3.8-2.3,5.2s-2.4,2.4-3.9,3.1c-1.5,0.7-3.6,1-6,1c-2.9,0-5.4-0.4-7.2-1.3
					c-1.9-0.8-3.5-2.3-4.8-4.5c-1.3-2.1-2-4.9-2-8.3c0-4.5,1.2-7.9,3.6-10.4c2.4-2.4,5.8-3.6,10.1-3.6c3.4,0,6.1,0.7,8.1,2.1
					c1.9,1.4,3.4,3.5,4.3,6.4l-7.4,1.6c-0.2-0.8-0.5-1.4-0.8-1.8c-0.4-0.6-1-1.1-1.7-1.5c-0.7-0.3-1.4-0.5-2.3-0.5
					c-1.9,0-3.3,0.8-4.4,2.3c-0.7,1.1-1.1,2.9-1.1,5.3c0,3,0.4,5.1,1.3,6.2c0.9,1.1,2.2,1.7,3.8,1.7c1.6,0,2.8-0.4,3.6-1.3
					C87.1,36.3,87.7,35,88.1,33.3z"/>
				<path class="st3" d="M99.2,30.8c0-4.4,1.2-7.9,3.7-10.4c2.5-2.5,5.9-3.7,10.3-3.7c4.5,0,8,1.2,10.5,3.6
					c2.4,2.4,3.7,5.8,3.7,10.2c0,3.2-0.5,5.8-1.6,7.8s-2.6,3.6-4.6,4.7c-2,1.1-4.5,1.7-7.5,1.7c-3,0-5.6-0.5-7.6-1.4
					c-2-1-3.6-2.5-4.9-4.6C99.8,36.7,99.2,34,99.2,30.8z M107.6,30.9c0,2.7,0.5,4.7,1.5,5.9c1,1.2,2.4,1.8,4.1,1.8
					c1.8,0,3.2-0.6,4.2-1.7c1-1.2,1.5-3.3,1.5-6.3c0-2.5-0.5-4.4-1.5-5.6c-1-1.2-2.4-1.7-4.2-1.7c-1.7,0-3,0.6-4.1,1.8
					C108.1,26.2,107.6,28.2,107.6,30.9z"/>
				<path class="st3" d="M131.6,30.8c0-4.4,1.2-7.9,3.7-10.4c2.5-2.5,5.9-3.7,10.3-3.7c4.5,0,8,1.2,10.5,3.6
					c2.4,2.4,3.7,5.8,3.7,10.2c0,3.2-0.5,5.8-1.6,7.8s-2.6,3.6-4.6,4.7c-2,1.1-4.5,1.7-7.5,1.7c-3,0-5.6-0.5-7.6-1.4
					c-2-1-3.6-2.5-4.9-4.6C132.2,36.7,131.6,34,131.6,30.8z M139.9,30.9c0,2.7,0.5,4.7,1.5,5.9c1,1.2,2.4,1.8,4.1,1.8
					c1.8,0,3.2-0.6,4.2-1.7c1-1.2,1.5-3.3,1.5-6.3c0-2.5-0.5-4.4-1.5-5.6c-1-1.2-2.4-1.7-4.2-1.7c-1.7,0-3,0.6-4.1,1.8
					C140.4,26.2,139.9,28.2,139.9,30.9z"/>
				<path class="st3" d="M164.9,17.3h14c3,0,5.3,0.7,6.8,2.1c1.5,1.4,2.3,3.5,2.3,6.2c0,2.7-0.8,4.9-2.5,6.4
					c-1.6,1.5-4.2,2.3-7.5,2.3h-4.6v10.1h-8.4V17.3z M173.3,28.9h2c1.6,0,2.7-0.3,3.4-0.8c0.6-0.6,1-1.3,1-2.1s-0.3-1.6-0.8-2.1
					c-0.6-0.6-1.6-0.9-3.2-0.9h-2.4V28.9z"/>
				<path class="st3" d="M193.1,17.3h22.5v5.8h-14.1v4.3h13.1v5.5h-13.1v5.3H216v6.1h-22.9L193.1,17.3L193.1,17.3z"/>
				<path class="st3" d="M221.3,44.4V17.3h14c2.6,0,4.6,0.2,5.9,0.6c1.3,0.4,2.5,1.2,3.3,2.5c0.8,1.2,1.2,2.7,1.2,4.4
					c0,1.5-0.3,2.8-0.9,3.9c-0.6,1.1-1.5,2-2.6,2.6c-0.7,0.4-1.7,0.8-2.9,1.1c1,0.3,1.7,0.6,2.2,1c0.3,0.2,0.8,0.7,1.3,1.4
					c0.6,0.8,1,1.3,1.2,1.7l4,7.9h-9.5l-4.5-8.3c-0.5-1.1-1.1-1.8-1.5-2.1c-0.6-0.4-1.3-0.6-2-0.6h-0.8v11L221.3,44.4L221.3,44.4z
					 M229.8,28.3h3.5c0.4,0,1.1-0.1,2.2-0.3c0.5-0.1,1-0.4,1.3-0.8c0.4-0.4,0.6-1,0.6-1.6c0-0.9-0.3-1.5-0.8-2
					c-0.6-0.4-1.6-0.7-3.1-0.7h-3.7V28.3z"/>
			</g>
		</g>
	</g>
</g>
</svg>
