<svg width="373" height="275" viewBox="0 0 373 275" fill="none" xmlns="http://www.w3.org/2000/svg">
<g clip-path="url(#clip0_756_5992)">
<path d="M82.8118 75.8664L13.2273 122.451L81.7705 225.005L151.355 178.42L82.8118 75.8664Z" fill="#F5F5F5"/>
<path d="M115.404 173.589L114.598 178.43L79.9951 173.465L80.8013 168.562L115.404 173.589Z" fill="#E0E0E0"/>
<path d="M97.9785 156.087L102.939 156.832L97.4204 190.905L92.4595 190.222L97.9785 156.087Z" fill="#E0E0E0"/>
<path d="M66.1044 112.768C66.1664 112.83 59.1591 117.609 50.5395 123.38C41.8578 129.152 34.8505 133.807 34.7885 133.745C34.7265 133.683 41.7338 128.904 50.3534 123.132C59.035 117.36 66.0424 112.706 66.1044 112.768Z" fill="#E0E0E0"/>
<path d="M91.7153 106.375C91.7773 106.437 80.1811 114.319 65.7944 123.877C51.4697 133.497 39.7495 141.193 39.6875 141.131C39.6255 141.068 51.2217 133.186 65.6084 123.629C79.9951 114.009 91.6532 106.313 91.7153 106.375Z" fill="#E0E0E0"/>
<path d="M96.8622 114.071C96.9242 114.133 85.3281 122.015 70.9414 131.573C56.6167 141.193 44.8965 148.888 44.8345 148.826C44.7725 148.764 56.3686 140.882 70.7553 131.325C85.08 121.705 96.8002 113.947 96.8622 114.071Z" fill="#E0E0E0"/>
<path d="M101.947 121.705C102.009 121.767 90.413 129.649 76.0263 139.207C61.7016 148.826 49.9814 156.522 49.9194 156.46C49.8574 156.398 61.4536 148.516 75.8403 138.958C90.227 129.401 101.885 121.643 101.947 121.705Z" fill="#E0E0E0"/>
<path d="M107.094 129.401C107.156 129.463 95.56 137.345 81.1733 146.902C66.8486 156.522 55.1284 164.218 55.0664 164.156C55.0044 164.094 66.6006 156.212 80.9873 146.654C95.374 137.034 107.032 129.339 107.094 129.401Z" fill="#E0E0E0"/>
<path d="M315.465 144.582L257.014 183.713L314.558 269.811L373.009 230.68L315.465 144.582Z" fill="#F5F5F5"/>
<path d="M342.863 226.653L342.18 230.75L313.159 226.529L313.779 222.433L342.863 226.653Z" fill="#E0E0E0"/>
<path d="M328.228 212.006L332.383 212.565L327.732 241.238L323.577 240.617L328.228 212.006Z" fill="#E0E0E0"/>
<path d="M288.389 184.539C295.649 179.679 301.487 175.67 301.43 175.585C301.373 175.499 295.442 179.369 288.183 184.229C280.923 189.089 275.085 193.098 275.142 193.183C275.199 193.269 281.13 189.398 288.389 184.539Z" fill="#E0E0E0"/>
<path d="M322.957 170.176C323.019 170.238 313.283 176.879 301.253 184.947C289.222 193.015 279.363 199.469 279.363 199.407C279.301 199.345 289.036 192.705 301.129 184.636C313.097 176.63 322.895 170.114 322.957 170.176Z" fill="#E0E0E0"/>
<path d="M327.236 176.63C327.298 176.692 317.562 183.333 305.532 191.401C293.501 199.469 283.641 205.924 283.641 205.862C283.579 205.8 293.315 199.159 305.407 191.091C317.376 183.085 327.174 176.568 327.236 176.63Z" fill="#E0E0E0"/>
<path d="M331.576 183.085C331.638 183.147 321.903 189.788 309.872 197.856C297.842 205.924 287.982 212.379 287.982 212.316C287.92 212.254 297.656 205.614 309.748 197.546C321.717 189.477 331.514 183.023 331.576 183.085Z" fill="#E0E0E0"/>
<path d="M335.855 189.54C335.917 189.602 326.181 196.242 314.151 204.31C302.121 212.379 292.261 218.833 292.261 218.771C292.199 218.709 301.935 212.068 314.027 204C325.995 195.932 335.793 189.477 335.855 189.54Z" fill="#E0E0E0"/>
<path d="M223.045 79.6591L159.286 45.5317L109.073 139.498L172.832 173.625L223.045 79.6591Z" fill="#F5F5F5"/>
<path d="M161.912 144.234L157.882 145.599L147.588 117.174L151.618 115.809L161.912 144.234Z" fill="#E0E0E0"/>
<path d="M168.113 123.815L169.602 127.911L141.386 137.593L139.898 133.497L168.113 123.815Z" fill="#E0E0E0"/>
<path d="M173.676 74.3767C181.588 78.6118 188.042 81.9716 188.09 81.8809C188.138 81.7902 181.763 78.2835 173.851 74.0483C165.939 69.8132 159.485 66.4534 159.437 66.5441C159.388 66.6347 165.763 70.1415 173.676 74.3767Z" fill="#E0E0E0"/>
<path d="M203.46 98.8037C203.398 98.9279 192.732 93.2802 179.586 86.205C166.439 79.1919 155.835 73.358 155.835 73.296C155.897 73.1718 166.563 78.8195 179.71 85.8947C192.856 92.9698 203.46 98.7417 203.46 98.8037Z" fill="#E0E0E0"/>
<path d="M199.677 105.879C199.615 106.003 188.949 100.355 175.803 93.2802C162.656 86.2671 152.052 80.4332 152.052 80.3711C152.115 80.247 162.781 85.8947 175.927 92.9699C189.135 99.983 199.739 105.755 199.677 105.879Z" fill="#E0E0E0"/>
<path d="M195.895 112.892C195.833 113.016 185.167 107.369 172.02 100.293C158.874 93.2803 148.27 87.4464 148.27 87.3843C148.332 87.2602 158.998 92.9079 172.144 99.9831C185.353 106.996 195.957 112.768 195.895 112.892Z" fill="#E0E0E0"/>
<path d="M192.174 119.905C192.112 120.029 181.446 114.381 168.3 107.306C155.153 100.293 144.549 94.4591 144.549 94.397C144.611 94.2729 155.277 99.9206 168.424 106.996C181.57 114.071 192.236 119.843 192.174 119.905Z" fill="#E0E0E0"/>
<path opacity="0.2" d="M192.484 0H190.872V27.3076H192.484V0Z" fill="black"/>
<path d="M154.347 60.325H229.071C229.071 60.325 222.188 27.3076 191.182 27.3076C163.525 27.3076 154.347 60.325 154.347 60.325Z" fill="#82D293"/>
<path d="M192.484 0H190.872V27.3076H192.484V0Z" fill="#82D293"/>
<path d="M357.993 272.952C357.993 273.014 277.812 273.138 178.966 273.138C80.119 273.138 0 273.076 0 272.952C0 272.89 80.119 272.766 179.028 272.766C277.874 272.828 357.993 272.89 357.993 272.952Z" fill="#263238"/>
<path d="M19.8437 234.101C21.9521 234.163 23.9364 235.342 25.3007 236.893C26.6649 238.445 27.5331 240.431 28.0912 242.479C29.1454 246.389 28.5253 251.044 27.3471 254.954C23.1303 253.464 20.4638 248.934 19.2856 246.513C17.4252 242.727 16.309 234.783 19.8437 234.101Z" fill="#82D293"/>
<path d="M33.4243 259.732C32.0601 257.808 32.0601 255.14 33.1143 253.03C34.1685 250.919 36.2149 249.43 38.4473 248.747C39.5015 248.437 40.6797 248.313 41.6099 248.871C42.478 249.43 42.7881 250.547 42.7261 251.54C42.6021 252.533 42.106 253.464 41.4858 254.271C39.3774 257.064 36.897 259.422 33.4243 259.732Z" fill="#82D293"/>
<path d="M33.9204 272.828C33.9204 272.828 33.8584 272.517 33.7344 272.021C33.6103 271.462 33.4863 270.718 33.3003 269.787C32.9902 267.925 32.4321 265.256 32.8662 262.277C33.2383 259.36 34.4165 256.815 35.6567 255.326C36.2768 254.581 36.8349 254.023 37.269 253.712C37.4551 253.526 37.6411 253.402 37.7651 253.34C37.8891 253.278 37.9512 253.216 37.9512 253.216C38.0132 253.278 36.959 253.899 35.7807 255.45C34.6025 256.94 33.4863 259.422 33.1142 262.339C32.7422 265.256 33.2383 267.863 33.4863 269.787C33.6103 270.718 33.7344 271.524 33.8584 272.021C33.9204 272.517 33.9204 272.828 33.9204 272.828Z" fill="#263238"/>
<path d="M21.2079 240.059C21.2079 240.059 21.2699 240.183 21.394 240.369C21.518 240.617 21.642 240.927 21.828 241.3C22.2001 242.107 22.7582 243.348 23.3783 244.837C24.6806 247.816 26.3549 251.913 28.1532 256.567C29.9516 261.16 31.4398 265.38 32.494 268.421C33.0521 269.973 33.4242 271.214 33.7343 272.083C33.8583 272.517 33.9823 272.828 34.0443 273.076C34.1063 273.324 34.1684 273.448 34.1063 273.448C34.1063 273.448 34.0443 273.324 33.9823 273.138C33.8583 272.89 33.7963 272.579 33.6102 272.145C33.3002 271.276 32.8661 270.035 32.308 268.545C31.1918 265.504 29.6415 261.346 27.8432 256.691C26.0448 252.099 24.3705 247.941 23.1303 244.962C22.5102 243.472 22.0141 242.293 21.704 241.424C21.518 241.052 21.394 240.679 21.3319 240.431C21.2079 240.183 21.1459 240.059 21.2079 240.059Z" fill="#263238"/>
<path d="M28.8354 264.139C26.3549 259.856 21.6421 256.94 16.7431 256.629C15.5029 256.567 13.9526 256.753 13.3945 257.87C12.8364 258.988 13.5805 260.353 14.4487 261.284C17.9834 265.132 23.9985 266.497 28.8974 264.511" fill="#82D293"/>
<path d="M18.6655 259.981C18.6655 259.981 18.9756 259.981 19.4717 259.981C19.7197 259.981 20.0298 260.043 20.4019 260.105C20.7739 260.167 21.146 260.229 21.5801 260.353C22.0142 260.477 22.5102 260.54 23.0063 260.726C23.5024 260.85 24.0605 261.098 24.6186 261.346C25.7349 261.843 26.8511 262.463 27.9673 263.332C29.0835 264.201 30.0137 265.132 30.7578 266.063C31.1299 266.56 31.4399 266.994 31.75 267.491C32.06 267.925 32.2461 268.359 32.4941 268.794C32.7422 269.166 32.8662 269.601 32.9902 269.911C33.1142 270.221 33.2383 270.532 33.3003 270.78C33.4243 271.276 33.5483 271.525 33.4863 271.525C33.4243 271.525 33.1142 270.47 32.3081 268.856C32.06 268.484 31.874 268.049 31.5639 267.615C31.3159 267.18 30.9438 266.746 30.5718 266.249C29.8276 265.318 28.8974 264.387 27.8433 263.581C26.727 262.774 25.6108 262.091 24.5566 261.595C23.9985 261.346 23.5024 261.16 23.0063 260.974C22.5102 260.788 22.0142 260.664 21.5801 260.54C19.7817 260.105 18.6655 260.043 18.6655 259.981Z" fill="#263238"/>
<path d="M300.136 65.4766C298.338 65.911 297.408 68.0211 297.222 69.883C297.036 71.7449 297.284 73.7309 296.478 75.4066C295.61 77.3305 293.501 78.758 293.439 80.8681C293.377 82.1714 294.183 83.3506 294.121 84.6539C294.059 86.7641 291.889 88.3777 291.827 90.4878C291.765 91.9773 292.757 93.4669 292.509 94.9564C292.323 96.1355 291.393 97.0665 291.021 98.1836C290.277 100.418 291.765 102.838 293.749 104.142C295.982 105.569 298.834 105.879 301.315 105.073C303.795 104.266 305.903 102.342 306.896 99.9214C308.012 97.2527 307.764 94.2116 307.516 91.3567C306.772 82.3576 306.214 73.3585 305.841 64.2974" fill="#263238"/>
<path d="M294.865 97.2525C294.803 97.1904 295.361 97.0663 295.672 96.2595C295.858 95.8871 295.92 95.3286 295.858 94.77C295.858 94.1494 295.609 93.5287 295.423 92.784C295.237 92.0392 294.927 91.1704 295.113 90.2394C295.299 89.2464 295.982 88.5017 296.602 87.6948C296.912 87.3225 297.222 86.888 297.47 86.3915C297.656 85.9571 297.718 85.3985 297.594 84.902C297.284 83.909 296.292 83.1643 295.796 81.9851C295.547 81.4265 295.547 80.7438 295.672 80.1853C295.796 79.6267 296.044 79.0681 296.292 78.5716C296.788 77.5786 297.284 76.6477 297.532 75.6547C297.966 73.6687 297.78 71.8068 298.09 70.2552C298.338 68.7036 299.02 67.5245 299.64 66.9659C299.95 66.6556 300.26 66.4694 300.446 66.4073C300.632 66.3453 300.756 66.2832 300.756 66.2832C300.756 66.3453 300.322 66.4694 299.702 67.09C299.082 67.7106 298.524 68.8278 298.276 70.3173C298.152 71.062 298.152 71.9309 298.09 72.7998C298.028 73.7307 298.028 74.7237 297.78 75.7167C297.594 76.7718 297.036 77.7027 296.54 78.6958C296.044 79.6888 295.672 80.8059 296.044 81.8609C296.416 82.916 297.408 83.6608 297.842 84.84C298.028 85.3985 297.966 86.0191 297.718 86.5157C297.47 87.0122 297.16 87.4466 296.85 87.881C296.23 88.6879 295.547 89.4326 295.423 90.3015C295.237 91.1704 295.485 91.9772 295.734 92.7219C295.92 93.4667 296.168 94.1494 296.168 94.77C296.168 95.3906 296.106 95.9492 295.92 96.3216C295.734 96.756 295.485 97.0043 295.299 97.1284C294.989 97.1904 294.865 97.2525 294.865 97.2525Z" fill="#455A64"/>
<path d="M289.967 111.961L284.385 128.098L261.069 129.339L257.162 138.028L281.533 140.51C286.37 142.496 291.951 140.076 293.749 135.111L300.26 116.926L289.967 111.961Z" fill="#B78876"/>
<path d="M338.274 264.201C338.274 264.201 321.158 209.834 320.786 208.034C320.476 206.421 326.987 167.321 327.794 157.205L304.663 158.074C304.663 158.074 304.663 158.136 304.663 158.26L294.865 158.819L303.671 269.973H314.337L313.283 233.046C319.856 250.672 329.22 268.608 329.22 268.608L338.274 264.201Z" fill="#B78876"/>
<path d="M313.717 246.327C313.717 246.017 313.593 233.977 313.593 233.977C313.469 234.722 309.5 223.55 309.624 222.868C309.624 222.495 313.717 246.327 313.717 246.327Z" fill="#A36957"/>
<path d="M309.128 217.53C309.128 217.53 309.066 217.779 309.066 218.213C309.066 218.647 309.066 219.268 309.066 220.075C309.066 220.447 309.128 220.882 309.19 221.316C309.252 221.751 309.314 222.247 309.438 222.744C309.624 223.737 309.934 224.854 310.306 225.971C311.051 228.205 311.919 230.191 312.539 231.619C312.849 232.239 313.097 232.86 313.283 233.294C313.469 233.667 313.593 233.915 313.593 233.915C313.593 233.915 313.531 233.667 313.407 233.294C313.283 232.86 313.035 232.301 312.787 231.556C312.229 230.129 311.423 228.143 310.678 225.909C310.306 224.792 309.996 223.737 309.81 222.744C309.686 222.247 309.624 221.751 309.562 221.316C309.5 220.882 309.438 220.447 309.438 220.075C309.376 219.33 309.314 218.709 309.314 218.275C309.19 217.779 309.19 217.53 309.128 217.53Z" fill="#A36957"/>
<path d="M303.485 270.531V269.538L314.399 269.042V273.138L313.717 273.2C310.741 273.386 298.524 273.883 296.478 273.262C294.307 272.642 303.485 270.531 303.485 270.531Z" fill="#455A64"/>
<path d="M314.585 272.952C314.585 272.952 314.523 272.952 314.399 272.952C314.213 272.952 314.089 272.952 313.841 273.014C313.283 273.014 312.663 273.076 311.857 273.076C310.182 273.138 307.888 273.2 305.345 273.2C302.803 273.2 300.509 273.2 298.834 273.138C298.028 273.138 297.408 273.076 296.85 273.076C296.664 273.076 296.478 273.076 296.292 273.076C296.168 273.076 296.106 273.076 296.106 273.076C296.106 273.076 296.168 273.076 296.292 273.076C296.478 273.076 296.602 273.076 296.85 273.076C297.408 273.076 298.028 273.076 298.834 273.138C300.509 273.138 302.803 273.2 305.345 273.2C307.888 273.2 310.182 273.138 311.857 273.076C312.663 273.076 313.283 273.014 313.841 273.014C314.027 273.014 314.213 273.014 314.399 273.014C314.461 272.952 314.585 272.952 314.585 272.952Z" fill="#263238"/>
<path d="M299.95 273.262C299.888 273.262 299.888 272.766 299.578 272.331C299.268 271.835 298.896 271.587 298.896 271.587C298.896 271.524 299.392 271.773 299.702 272.269C300.012 272.766 300.012 273.324 299.95 273.262Z" fill="#263238"/>
<path d="M302.778 271.256C302.944 271.516 303.102 271.712 303.131 271.693C303.16 271.675 303.049 271.449 302.883 271.189C302.717 270.929 302.559 270.734 302.53 270.752C302.501 270.771 302.612 270.996 302.778 271.256Z" fill="#263238"/>
<path d="M303.622 270.935C303.801 271.094 303.964 271.203 303.987 271.177C304.01 271.152 303.883 271.002 303.705 270.842C303.526 270.682 303.362 270.573 303.339 270.599C303.317 270.625 303.443 270.775 303.622 270.935Z" fill="#263238"/>
<path d="M303.985 270.225C304.293 270.22 304.543 270.189 304.542 270.154C304.542 270.12 304.292 270.096 303.983 270.101C303.675 270.105 303.426 270.137 303.426 270.171C303.427 270.205 303.677 270.229 303.985 270.225Z" fill="#263238"/>
<path d="M304.787 269.415C304.787 269.477 304.539 269.601 304.167 269.601C303.795 269.601 303.485 269.539 303.485 269.539C303.485 269.477 303.795 269.539 304.105 269.477C304.477 269.477 304.725 269.415 304.787 269.415Z" fill="#263238"/>
<path d="M302.803 270.718C302.803 270.718 302.555 270.78 302.121 270.718C301.935 270.718 301.625 270.656 301.377 270.532C301.253 270.47 301.129 270.47 300.943 270.346C300.881 270.283 300.819 270.221 300.757 270.159C300.757 270.035 300.757 269.911 300.881 269.911C301.563 269.539 302.183 269.911 302.431 270.283C302.555 270.47 302.617 270.656 302.679 270.718C302.679 270.842 302.679 270.904 302.679 270.904C302.679 270.904 302.617 270.656 302.369 270.283C302.245 270.097 302.059 269.973 301.749 269.911C301.501 269.849 301.129 269.849 300.943 269.973C300.819 270.035 300.881 270.159 301.005 270.283C301.129 270.346 301.253 270.408 301.377 270.47C301.625 270.532 301.873 270.594 302.121 270.656C302.493 270.718 302.803 270.656 302.803 270.718Z" fill="#263238"/>
<path d="M302.617 270.718C302.617 270.718 302.493 270.532 302.555 270.221C302.555 270.097 302.617 269.911 302.741 269.725C302.865 269.601 303.051 269.353 303.299 269.353C303.485 269.353 303.547 269.539 303.485 269.663C303.485 269.787 303.423 269.911 303.361 269.973C303.237 270.159 303.113 270.283 303.051 270.408C302.803 270.656 302.679 270.718 302.617 270.718C302.679 270.718 302.803 270.594 302.989 270.346C303.113 270.221 303.175 270.097 303.299 269.911C303.423 269.787 303.485 269.477 303.299 269.477C303.113 269.477 302.927 269.663 302.865 269.787C302.741 269.911 302.679 270.097 302.679 270.221C302.555 270.532 302.617 270.718 302.617 270.718Z" fill="#263238"/>
<path d="M314.337 269.973C314.337 269.973 314.027 269.973 313.531 270.035C313.035 270.097 312.353 270.283 311.795 270.78C311.237 271.276 310.864 271.897 310.678 272.331C310.492 272.828 310.492 273.138 310.492 273.076C310.492 273.076 310.492 273.014 310.492 272.828C310.492 272.703 310.554 272.455 310.616 272.269C310.74 271.773 311.113 271.152 311.733 270.655C312.353 270.159 313.035 269.973 313.531 269.911C313.779 269.911 313.965 269.911 314.151 269.911C314.275 269.911 314.337 269.973 314.337 269.973Z" fill="#263238"/>
<path d="M309.128 272.083C309.128 272.145 308.446 272.207 307.516 272.207C306.648 272.207 305.904 272.083 305.904 272.083C305.904 272.021 306.586 272.083 307.516 272.083C308.384 272.083 309.128 272.021 309.128 272.083Z" fill="#263238"/>
<path d="M311.236 272.021C311.236 272.021 311.174 272.145 311.112 272.331C311.05 272.517 310.988 272.642 310.988 272.642C310.926 272.642 310.926 272.455 310.988 272.269C311.05 272.145 311.174 272.021 311.236 272.021Z" fill="#263238"/>
<path d="M311.88 271.328C312 271.206 312.077 271.087 312.052 271.063C312.028 271.039 311.911 271.119 311.791 271.241C311.671 271.364 311.594 271.482 311.619 271.506C311.643 271.53 311.76 271.45 311.88 271.328Z" fill="#263238"/>
<path d="M313.159 270.594C313.159 270.656 313.035 270.656 312.849 270.656C312.663 270.718 312.601 270.78 312.539 270.78C312.539 270.78 312.601 270.594 312.787 270.532C313.035 270.47 313.159 270.532 313.159 270.594Z" fill="#263238"/>
<path d="M313.847 270.464C313.943 270.427 314.01 270.37 313.998 270.338C313.985 270.306 313.898 270.311 313.802 270.349C313.706 270.386 313.639 270.442 313.652 270.474C313.664 270.506 313.752 270.502 313.847 270.464Z" fill="#263238"/>
<path d="M329.034 269.6L328.6 268.67L338.336 263.767L340.072 267.49L339.452 267.801C336.786 269.166 325.872 274.69 323.763 274.938C321.469 275.248 329.034 269.6 329.034 269.6Z" fill="#455A64"/>
<path d="M340.072 267.242C340.072 267.242 340.01 267.304 339.886 267.366C339.762 267.428 339.576 267.553 339.39 267.615C338.894 267.863 338.336 268.173 337.654 268.483C336.165 269.228 334.119 270.221 331.762 271.276C329.468 272.331 327.36 273.262 325.809 273.883C325.065 274.193 324.507 274.441 324.011 274.628C323.825 274.69 323.639 274.752 323.515 274.814C323.391 274.876 323.329 274.876 323.329 274.876C323.329 274.876 323.391 274.814 323.515 274.814C323.639 274.752 323.825 274.69 324.011 274.628C324.507 274.441 325.127 274.131 325.809 273.821C327.36 273.138 329.468 272.269 331.762 271.214C334.057 270.159 336.165 269.166 337.654 268.483C338.336 268.173 338.956 267.863 339.452 267.615C339.638 267.553 339.762 267.428 339.948 267.366C340.01 267.242 340.072 267.242 340.072 267.242Z" fill="#263238"/>
<path d="M326.926 273.511C326.864 273.511 326.677 273.138 326.181 272.828C325.747 272.518 325.251 272.456 325.251 272.394C325.251 272.331 325.747 272.331 326.243 272.704C326.739 273.076 326.926 273.511 326.926 273.511Z" fill="#263238"/>
<path d="M328.667 270.534C328.925 270.703 329.15 270.817 329.168 270.788C329.187 270.76 328.993 270.599 328.735 270.43C328.477 270.261 328.253 270.148 328.234 270.176C328.216 270.205 328.409 270.365 328.667 270.534Z" fill="#263238"/>
<path d="M329.358 269.849C329.587 269.922 329.78 269.954 329.791 269.921C329.801 269.889 329.624 269.803 329.395 269.731C329.167 269.659 328.973 269.627 328.963 269.659C328.952 269.692 329.129 269.777 329.358 269.849Z" fill="#263238"/>
<path d="M329.403 269.092C329.682 268.961 329.897 268.83 329.882 268.799C329.868 268.768 329.629 268.849 329.35 268.979C329.071 269.11 328.856 269.241 328.871 269.272C328.885 269.303 329.123 269.222 329.403 269.092Z" fill="#263238"/>
<path d="M329.716 268.049C329.716 268.049 329.53 268.297 329.22 268.483C328.91 268.669 328.6 268.732 328.6 268.669C328.6 268.607 328.848 268.545 329.158 268.359C329.468 268.173 329.716 268.049 329.716 268.049Z" fill="#263238"/>
<path d="M328.414 270.035C328.414 270.035 328.166 270.159 327.794 270.345C327.608 270.407 327.36 270.47 327.049 270.532C326.925 270.532 326.739 270.594 326.615 270.532C326.553 270.532 326.429 270.47 326.367 270.407C326.305 270.345 326.305 270.221 326.367 270.097C326.801 269.477 327.608 269.601 327.98 269.787C328.166 269.911 328.29 270.035 328.352 270.097C328.414 270.221 328.476 270.283 328.476 270.283C328.476 270.283 328.29 270.035 327.918 269.849C327.732 269.787 327.484 269.725 327.235 269.725C326.987 269.787 326.677 269.911 326.491 270.097C326.429 270.221 326.491 270.345 326.677 270.345C326.801 270.345 326.987 270.345 327.111 270.345C327.36 270.345 327.608 270.283 327.856 270.221C328.166 270.097 328.414 269.973 328.414 270.035Z" fill="#263238"/>
<path d="M328.29 270.097C328.29 270.097 328.104 269.973 328.042 269.662C327.98 269.538 327.98 269.352 327.98 269.104C328.042 268.918 328.104 268.669 328.352 268.545C328.538 268.483 328.848 268.793 328.91 268.918C328.972 269.042 328.724 268.98 328.724 269.042C328.724 269.228 328.662 269.414 328.6 269.538C328.476 269.973 328.352 270.097 328.29 270.097C328.29 270.035 328.414 269.911 328.476 269.6C328.538 269.476 328.538 269.29 328.538 269.104C328.538 268.918 328.538 268.669 328.352 268.731C328.166 268.793 328.104 269.042 328.042 269.166C327.98 269.352 328.042 269.538 328.042 269.662C328.166 269.973 328.29 270.097 328.29 270.097Z" fill="#263238"/>
<path d="M338.646 264.635C338.646 264.635 338.336 264.759 337.902 265.008C337.467 265.256 336.971 265.69 336.599 266.373C336.289 267.056 336.227 267.738 336.227 268.235C336.289 268.731 336.413 269.042 336.351 269.042C336.351 269.042 336.289 268.98 336.289 268.856C336.227 268.731 336.165 268.545 336.165 268.297C336.103 267.8 336.165 267.056 336.475 266.373C336.847 265.69 337.405 265.194 337.839 264.946C338.088 264.821 338.274 264.759 338.398 264.697C338.584 264.635 338.646 264.635 338.646 264.635Z" fill="#263238"/>
<path d="M334.739 268.669C334.739 268.669 334.181 269.104 333.375 269.476C332.569 269.849 331.886 270.035 331.886 270.035C331.886 269.973 332.569 269.724 333.313 269.414C334.119 268.98 334.739 268.607 334.739 268.669Z" fill="#263238"/>
<path d="M336.723 267.801C336.785 267.801 336.723 267.987 336.723 268.111C336.723 268.297 336.723 268.421 336.723 268.421C336.661 268.421 336.599 268.297 336.599 268.111C336.599 267.925 336.661 267.739 336.723 267.801Z" fill="#263238"/>
<path d="M336.961 266.813C337.02 266.652 337.042 266.512 337.01 266.5C336.977 266.488 336.903 266.609 336.844 266.77C336.785 266.931 336.763 267.071 336.795 267.082C336.827 267.094 336.901 266.974 336.961 266.813Z" fill="#263238"/>
<path d="M337.84 265.628C337.84 265.69 337.716 265.753 337.591 265.815C337.467 265.939 337.405 266.063 337.343 266.063C337.281 266.063 337.343 265.877 337.467 265.753C337.715 265.628 337.84 265.628 337.84 265.628Z" fill="#263238"/>
<path d="M338.441 265.308C338.513 265.235 338.552 265.156 338.527 265.132C338.503 265.108 338.425 265.148 338.353 265.221C338.281 265.295 338.242 265.374 338.267 265.398C338.291 265.422 338.37 265.382 338.441 265.308Z" fill="#263238"/>
<path d="M326.305 138.773L324.507 116.616L333.809 116.802C333.809 116.802 334.243 113.513 332.879 106.376C332.01 101.969 329.096 99.3006 325.809 97.687V97.6249L325.499 97.5629C321.344 95.6389 316.942 95.3286 316.942 95.3286L305.531 95.4527C305.531 95.4527 296.788 94.3356 291.951 100.604C290.091 103.024 284.323 119.471 284.323 119.471L298.028 126.112L296.726 116.989C296.726 116.989 296.974 123.567 297.842 125.677C298.338 126.856 299.64 130.456 299.64 130.456L299.454 141.379L326.305 138.773Z" fill="#82D293"/>
<path d="M320.042 113.451L318.306 120.65H334.305L333.251 108.548L320.042 113.451Z" fill="#82D293"/>
<path d="M334.305 120.65C334.305 120.588 333.499 120.526 332.197 120.464C330.894 120.402 329.096 120.34 327.05 120.34C325.065 120.34 323.205 120.464 321.903 120.526C320.6 120.65 319.794 120.712 319.794 120.774C319.794 120.836 320.6 120.774 321.903 120.774C323.205 120.712 325.003 120.712 327.05 120.65C329.034 120.65 330.832 120.65 332.197 120.65C333.499 120.712 334.305 120.712 334.305 120.65Z" fill="#263238"/>
<path d="M319.298 108.486C319.236 108.486 319.236 109.169 319.236 110.348C319.236 111.465 319.298 113.078 319.36 114.754C319.422 116.492 319.484 118.043 319.608 119.161C319.67 120.278 319.732 121.023 319.794 121.023C319.856 121.023 319.856 120.34 319.856 119.161C319.856 118.043 319.794 116.43 319.732 114.754C319.67 113.016 319.608 111.465 319.484 110.348C319.422 109.169 319.36 108.486 319.298 108.486Z" fill="#263238"/>
<g opacity="0.3">
<path d="M304.725 114.754C304.725 114.754 308.26 141.193 318.306 140.448C318.306 140.448 322.833 140.386 324.259 137.407V136.228L304.725 114.754Z" fill="black"/>
</g>
<g opacity="0.3">
<path d="M319.298 110.038L317.438 122.947L318.678 125.243L320.662 120.774H319.794L319.298 110.038Z" fill="black"/>
</g>
<path d="M299.764 130.456C299.764 130.456 299.64 130.27 299.516 129.836C299.33 129.401 299.144 128.843 298.896 128.098C298.4 126.608 297.842 124.56 297.346 122.264C296.912 119.968 296.664 117.795 296.602 116.244C296.54 115.499 296.54 114.816 296.54 114.382C296.54 113.947 296.54 113.699 296.602 113.699C296.664 113.699 296.664 114.63 296.85 116.182C296.974 117.733 297.222 119.843 297.718 122.14C298.152 124.436 298.71 126.484 299.144 127.974C299.33 128.656 299.516 129.277 299.64 129.711C299.702 130.208 299.764 130.394 299.764 130.456Z" fill="#263238"/>
<path d="M303.181 136.75C303.399 137.472 303.656 138.033 303.754 138.003C303.852 137.973 303.755 137.364 303.537 136.642C303.319 135.92 303.062 135.359 302.964 135.389C302.866 135.419 302.963 136.028 303.181 136.75Z" fill="#263238"/>
<path d="M305.159 137.904C305.097 137.904 304.787 137.097 304.787 135.98C304.787 134.863 305.035 133.994 305.097 134.056C305.159 134.056 305.097 134.925 305.097 135.98C305.159 137.035 305.283 137.904 305.159 137.904Z" fill="#263238"/>
<path d="M291.238 122.987C295.129 124.933 298.32 126.436 298.366 126.344C298.412 126.252 295.295 124.6 291.405 122.654C287.514 120.708 284.323 119.205 284.277 119.297C284.231 119.389 287.348 121.041 291.238 122.987Z" fill="#263238"/>
<path d="M304.043 97.6248C304.105 94.4596 304.105 91.1702 304.105 91.1702C304.105 91.1702 300.074 90.3634 299.392 85.0881C298.71 80.061 300.571 68.207 300.571 68.207C306.462 65.9728 312.539 68.0208 316.57 72.7376L315.577 98.2454C315.453 101.224 312.849 103.459 309.686 103.335C306.462 103.148 303.981 100.604 304.043 97.6248Z" fill="#B78876"/>
<path d="M300.26 77.6406C300.26 78.013 300.509 78.3233 300.881 78.3233C301.253 78.3233 301.563 78.0751 301.563 77.7027C301.563 77.3303 301.315 77.02 300.943 77.02C300.633 77.02 300.323 77.2683 300.26 77.6406Z" fill="#263238"/>
<path d="M300.012 76.7716C300.074 76.8336 300.633 76.5233 301.315 76.5233C302.059 76.5233 302.555 76.8957 302.617 76.8336C302.679 76.7716 302.555 76.6474 302.369 76.4612C302.121 76.2751 301.749 76.0889 301.315 76.0889C300.881 76.0889 300.447 76.213 300.261 76.3992C300.074 76.5233 300.012 76.7095 300.012 76.7716Z" fill="#263238"/>
<path d="M307.64 78.0752C307.64 78.4476 307.888 78.7579 308.26 78.7579C308.632 78.7579 308.942 78.5097 308.942 78.1373C308.942 77.7649 308.694 77.4546 308.322 77.4546C308.012 77.4546 307.702 77.7649 307.64 78.0752Z" fill="#263238"/>
<path d="M307.64 77.2061C307.702 77.2682 308.26 76.9579 308.942 76.9579C309.686 76.9579 310.182 77.3303 310.244 77.2682C310.306 77.2061 310.182 77.082 309.996 76.8958C309.748 76.7096 309.376 76.5234 308.942 76.5234C308.508 76.5234 308.074 76.6476 307.888 76.8338C307.64 77.0199 307.578 77.1441 307.64 77.2061Z" fill="#263238"/>
<path d="M304.849 82.5434C304.849 82.4813 304.415 82.4192 303.671 82.2951C303.485 82.2951 303.299 82.233 303.299 82.1089C303.237 81.9848 303.361 81.7986 303.423 81.5503C303.609 81.1159 303.795 80.6194 303.981 80.1229C304.787 78.1369 305.408 76.4612 305.283 76.4612C305.221 76.3991 304.477 78.0128 303.671 79.9988C303.485 80.4953 303.299 80.9297 303.113 81.4262C303.051 81.6124 302.927 81.8607 302.989 82.171C303.051 82.2951 303.175 82.4192 303.299 82.4813C303.423 82.5434 303.547 82.5434 303.609 82.5434C304.353 82.5434 304.849 82.6054 304.849 82.5434Z" fill="#263238"/>
<path d="M304.105 91.1703C304.105 91.1703 307.64 91.4806 311.237 89.4946C311.237 89.4946 309.438 93.0943 304.167 92.4736L304.105 91.1703Z" fill="#A36957"/>
<path d="M309.934 75.096C309.81 75.3443 309.252 75.2201 308.632 75.096C308.012 74.9719 307.454 74.8478 307.392 74.5995C307.33 74.3513 307.95 73.9789 308.818 74.1651C309.624 74.3513 310.12 74.9098 309.934 75.096Z" fill="#263238"/>
<path d="M302.679 74.041C302.617 74.2893 302.059 74.4134 301.377 74.4134C300.695 74.4134 300.075 74.4134 300.013 74.1651C299.95 73.9169 300.509 73.4825 301.315 73.4825C302.183 73.4204 302.741 73.7928 302.679 74.041Z" fill="#263238"/>
<path d="M304.849 84.2811C304.725 84.219 304.539 84.3432 304.477 84.4673C304.415 84.6535 304.415 84.8396 304.601 84.9638C304.725 85.0879 304.973 85.0879 305.097 84.9638C305.221 84.8396 305.283 84.5914 305.221 84.4673C305.159 84.2811 304.911 84.219 304.725 84.2811" fill="#A36957"/>
<path d="M305.035 84.3433C305.097 84.3433 304.911 84.1571 304.601 84.2192C304.477 84.2813 304.291 84.4054 304.229 84.5916C304.167 84.7778 304.229 85.0881 304.477 85.2743C304.725 85.4605 304.973 85.3984 305.159 85.2743C305.345 85.1501 305.407 84.9019 305.407 84.7778C305.345 84.4675 305.097 84.4054 305.097 84.4675C305.097 84.5295 305.159 84.5916 305.159 84.8398C305.159 84.964 305.097 85.026 305.035 85.0881C304.973 85.1502 304.787 85.1502 304.725 85.0881C304.663 85.026 304.601 84.9019 304.601 84.7778C304.601 84.6537 304.663 84.5916 304.787 84.5295C304.849 84.3433 304.973 84.4054 305.035 84.3433Z" fill="#263238"/>
<path d="M314.151 78.9439C313.531 80.3713 311.981 81.5505 312.229 83.1021C312.353 84.0951 313.035 85.0881 312.911 86.0811C312.725 87.3844 311.423 88.2533 311.237 89.4946C310.989 91.0461 312.539 92.2874 313.097 93.7148C313.965 95.825 312.849 98.2454 312.849 100.48C312.787 104.017 315.825 107.307 319.298 107.555C320.724 107.679 322.337 107.245 323.019 106.003C323.639 105.01 323.515 103.707 323.887 102.59C324.445 100.914 325.995 99.7349 326.367 97.9972C326.988 94.894 323.205 92.2874 323.453 89.1222C323.577 87.7568 324.383 86.5776 324.755 85.2743C325.251 83.5365 324.817 81.6126 323.639 80.2472C322.709 79.1301 321.344 78.3853 320.538 77.2061C319.608 75.8408 319.608 74.103 319.298 72.4894C318.492 68.5794 315.515 65.166 311.795 63.8006C308.012 62.4352 303.609 63.1179 300.447 65.5384C300.447 65.5384 299.516 69.6345 303.733 70.3172C307.95 70.9999 309.872 70.1931 310.368 71.8688C310.368 71.8688 309.872 73.8548 311.609 75.7166C313.283 77.6406 314.895 77.2682 314.151 78.9439Z" fill="#263238"/>
<path d="M320.848 107.307C320.848 107.307 320.724 107.307 320.476 107.245C320.228 107.183 319.856 107.121 319.422 106.934C318.554 106.624 317.252 105.879 316.198 104.514C315.639 103.831 315.143 103.024 314.833 102.031C314.461 101.1 314.275 99.9834 314.275 98.8662C314.275 97.7491 314.399 96.5079 314.709 95.3287C314.895 94.708 315.081 94.1495 315.329 93.5288C315.577 92.9082 315.825 92.3497 316.011 91.729C316.198 91.1084 316.136 90.4878 316.011 89.9292C315.825 89.3086 315.577 88.75 315.329 88.2535C315.081 87.6949 314.771 87.1364 314.585 86.5778C314.399 86.0193 314.337 85.3986 314.461 84.778C314.709 83.5988 315.391 82.7299 315.825 81.861C316.26 80.9922 316.384 80.0612 316.384 79.1924C316.322 77.5167 315.577 76.2754 315.019 75.5307C314.399 74.7859 313.965 74.5376 313.965 74.4756C313.965 74.4756 314.461 74.7238 315.143 75.4065C315.763 76.0892 316.57 77.3925 316.632 79.1303C316.694 79.9992 316.508 80.9922 316.073 81.9231C315.639 82.8541 314.957 83.7229 314.771 84.778C314.523 85.8331 315.081 86.9502 315.639 88.0673C315.887 88.6259 316.198 89.1845 316.384 89.8051C316.57 90.4257 316.57 91.1705 316.384 91.7911C316.198 92.4117 315.887 93.0323 315.701 93.5909C315.453 94.1495 315.267 94.7701 315.143 95.3287C314.833 96.5079 314.647 97.687 314.709 98.8042C314.709 101.038 315.453 103.024 316.508 104.328C317.562 105.693 318.74 106.376 319.608 106.748C320.352 107.245 320.848 107.307 320.848 107.307Z" fill="#455A64"/>
<path d="M320.228 76.0271C320.228 76.0271 319.918 76.0892 319.298 76.1512C318.678 76.2133 317.81 76.2753 316.756 76.0892C315.701 75.903 314.399 75.4065 313.531 74.1032C313.097 73.4825 312.973 72.7378 312.663 71.993C312.415 71.3103 311.919 70.6897 311.237 70.2553C309.872 69.3864 308.26 69.2623 306.896 69.1381C305.469 68.9519 304.167 68.7037 303.299 68.021C302.369 67.4004 301.935 66.5315 301.811 65.9729C301.749 65.6626 301.749 65.4144 301.749 65.2902C301.749 65.1041 301.811 65.042 301.811 65.042C301.873 65.042 301.749 65.3523 301.935 65.9729C302.059 66.5315 302.555 67.2762 303.423 67.8969C304.291 68.5175 305.531 68.7658 306.958 68.8899C308.322 69.0761 309.996 69.1381 311.423 70.0691C312.167 70.5035 312.725 71.2483 312.973 71.993C313.221 72.7378 313.407 73.4825 313.779 74.0411C314.523 75.2203 315.763 75.7168 316.818 75.965C317.872 76.1512 318.74 76.1512 319.298 76.1512C319.918 75.965 320.228 75.965 320.228 76.0271Z" fill="#455A64"/>
<path d="M318.678 70.9377C318.678 70.9377 318.43 71.0618 317.934 71.0618C317.438 71.0618 316.756 70.9998 315.95 70.6274C315.577 70.4412 315.143 70.1929 314.771 69.8206C314.399 69.4482 314.089 69.0137 313.779 68.5172C313.221 67.5863 312.663 66.4071 311.547 65.9106C310.43 65.4141 309.128 65.5382 308.074 65.6003C306.958 65.7244 305.966 65.7244 305.097 65.6003C304.229 65.4762 303.609 65.1038 303.237 64.7935C303.051 64.6073 302.927 64.4832 302.865 64.359C302.803 64.2349 302.741 64.1729 302.803 64.1729C302.803 64.1729 302.989 64.359 303.361 64.6694C303.733 64.9797 304.353 65.2279 305.159 65.352C305.966 65.4762 306.958 65.4141 308.074 65.29C309.19 65.2279 310.43 65.0417 311.733 65.6003C312.353 65.8485 312.849 66.345 313.221 66.8415C313.593 67.338 313.841 67.8966 314.151 68.3311C314.399 68.8276 314.709 69.262 315.019 69.5723C315.329 69.8826 315.701 70.1929 316.074 70.3791C316.818 70.7515 317.5 70.8756 317.934 70.8756C318.43 70.9377 318.678 70.9377 318.678 70.9377Z" fill="#455A64"/>
<path d="M322.709 106.003C322.647 106.003 322.895 105.569 323.081 104.824C323.329 104.079 323.515 102.9 323.515 101.473C323.453 100.045 323.143 98.3697 322.213 96.756C321.779 95.9492 321.096 95.2045 320.538 94.3356C320.29 93.9012 320.042 93.4047 319.918 92.8461C319.794 92.2875 319.856 91.729 320.042 91.1704C320.414 90.1153 321.034 89.1844 321.158 88.1914C321.345 87.1984 320.848 86.3295 320.352 85.5227C320.104 85.0883 319.856 84.7159 319.67 84.2814C319.484 83.847 319.36 83.4126 319.298 82.9781C319.174 82.1092 319.298 81.3024 319.36 80.6197C319.546 79.1923 319.422 78.0131 319.05 77.3304C318.74 76.5857 318.306 76.3995 318.306 76.3374C318.306 76.3374 318.306 76.3374 318.368 76.3995C318.43 76.3995 318.492 76.4615 318.554 76.5236C318.74 76.6477 318.926 76.896 319.112 77.2683C319.484 78.0131 319.67 79.1923 319.546 80.6197C319.484 81.3645 319.422 82.1092 319.484 82.9161C319.546 83.7229 319.98 84.5297 320.476 85.3365C320.724 85.7709 320.972 86.1433 321.158 86.6398C321.345 87.1363 321.407 87.6949 321.344 88.1914C321.22 89.2465 320.538 90.1774 320.228 91.2325C320.042 91.729 319.98 92.2255 320.104 92.722C320.228 93.2185 320.414 93.6529 320.662 94.0873C321.22 94.9562 321.903 95.701 322.337 96.5078C323.267 98.1835 323.639 99.9212 323.639 101.411C323.639 102.838 323.391 104.017 323.143 104.762C323.019 105.135 322.895 105.445 322.771 105.631C322.771 105.879 322.709 106.003 322.709 106.003Z" fill="#455A64"/>
<path d="M297.47 221.626C297.47 221.626 293.315 182.03 293.067 167.383C292.819 152.736 299.64 138.276 299.64 138.276L326.367 137.159C326.367 137.159 331.638 151.992 331.762 158.26C331.948 170.362 328.538 182.34 328.91 191.96L329.778 221.626" fill="#263238"/>
<path d="M330.646 172.907C330.646 172.907 330.522 173.031 330.212 173.218C330.15 173.28 330.026 173.342 329.964 173.404C329.902 173.466 329.778 173.59 329.716 173.652C329.53 173.838 329.282 174.024 329.096 174.335C328.228 175.39 327.608 177.252 326.988 179.61C326.677 180.789 326.305 182.093 325.623 183.396C325.437 183.706 325.251 184.016 325.003 184.327C324.879 184.451 324.755 184.637 324.631 184.761L324.197 185.196C323.639 185.754 322.957 186.189 322.213 186.499C320.724 187.182 319.05 187.492 317.5 188.237C315.949 188.981 314.771 190.471 314.089 192.147C313.345 193.822 312.911 195.622 312.229 197.236C311.609 198.849 310.802 200.463 309.438 201.456C308.136 202.511 306.462 202.759 305.035 202.821C303.609 202.884 302.245 202.884 301.067 203.07C299.888 203.256 298.834 203.628 298.09 204.187C297.346 204.745 296.912 205.49 296.726 206.173C296.54 206.793 296.54 207.352 296.602 207.724C296.664 208.097 296.788 208.221 296.726 208.221C296.726 208.221 296.602 208.035 296.54 207.724C296.416 207.352 296.416 206.793 296.602 206.173C296.788 205.49 297.222 204.745 298.028 204.125C298.772 203.504 299.888 203.07 301.067 202.884C302.307 202.697 303.609 202.697 305.035 202.635C306.462 202.511 308.012 202.263 309.252 201.27C310.492 200.339 311.299 198.787 311.919 197.174C312.539 195.56 312.973 193.76 313.779 192.085C314.523 190.347 315.763 188.795 317.376 188.051C318.988 187.244 320.662 186.933 322.151 186.313C322.895 186.002 323.577 185.63 324.073 185.072L324.445 184.699C324.569 184.575 324.693 184.389 324.755 184.265C325.003 184.016 325.127 183.644 325.313 183.334C325.995 182.093 326.367 180.789 326.677 179.61C327.298 177.252 327.98 175.328 328.91 174.273C329.096 173.962 329.344 173.776 329.53 173.59C329.654 173.528 329.716 173.404 329.778 173.342C329.84 173.28 329.964 173.218 330.026 173.155C330.522 172.969 330.646 172.907 330.646 172.907Z" fill="#FAFAFA"/>
<path d="M330.832 154.599C330.832 154.599 330.832 154.785 330.894 155.157C330.894 155.53 330.832 156.026 330.708 156.647C330.398 157.95 329.468 159.688 327.67 161.301C326.801 162.108 325.747 162.915 324.569 163.598C323.391 164.28 322.027 164.963 320.724 165.77C319.36 166.515 317.996 167.384 316.756 168.563C315.515 169.68 314.585 171.169 313.779 172.783C312.911 174.335 312.167 175.948 311.175 177.376C310.678 178.058 310.12 178.679 309.5 179.238C308.88 179.796 308.198 180.231 307.454 180.603C306.028 181.348 304.601 181.782 303.299 182.217C301.997 182.651 300.757 182.961 299.64 183.458C298.586 183.892 297.594 184.389 296.85 184.947C296.106 185.506 295.486 186.064 295.114 186.561C294.307 187.554 294.121 188.299 294.059 188.299C294.059 188.299 294.121 188.113 294.245 187.802C294.369 187.492 294.617 186.995 295.051 186.499C295.424 185.94 296.044 185.382 296.788 184.823C297.532 184.265 298.524 183.706 299.578 183.272C300.695 182.775 301.935 182.403 303.237 182.03C304.539 181.596 305.966 181.161 307.33 180.417C308.012 180.044 308.694 179.61 309.314 179.113C309.934 178.555 310.492 177.996 310.926 177.314C311.919 175.948 312.663 174.335 313.469 172.783C314.337 171.169 315.267 169.68 316.508 168.501C317.748 167.321 319.174 166.453 320.538 165.708C321.903 164.963 323.205 164.28 324.445 163.598C325.623 162.915 326.677 162.17 327.546 161.363C329.282 159.812 330.274 158.074 330.584 156.833C330.894 155.343 330.77 154.599 330.832 154.599Z" fill="#FAFAFA"/>
<path d="M293.191 169.432C293.191 169.432 293.191 169.369 293.129 169.307C293.129 169.245 293.067 169.121 293.005 168.935C292.943 168.625 292.881 168.066 293.067 167.445C293.439 166.204 294.803 164.591 296.974 163.846C298.09 163.473 299.33 163.225 300.633 162.915C301.935 162.543 303.299 162.108 304.353 160.991C304.849 160.432 305.283 159.812 305.655 159.129C306.028 158.446 306.276 157.702 306.586 156.895C307.144 155.343 307.578 153.668 308.57 152.116C309.5 150.564 311.051 149.509 312.601 148.951C314.151 148.392 315.763 148.144 317.252 147.772C318.74 147.461 320.104 147.027 321.282 146.406C322.461 145.724 323.391 144.855 324.011 143.924C325.375 142.062 325.685 140.138 325.747 138.897C325.747 137.593 325.561 136.911 325.623 136.911C325.623 136.911 325.871 137.593 325.871 138.897C325.871 140.2 325.561 142.124 324.197 144.048C323.515 144.979 322.585 145.91 321.406 146.592C320.228 147.275 318.802 147.71 317.314 148.02C315.825 148.392 314.275 148.64 312.725 149.199C311.175 149.758 309.748 150.751 308.818 152.24C307.888 153.73 307.454 155.405 306.896 156.957C306.586 157.764 306.338 158.508 305.966 159.253C305.593 159.998 305.097 160.619 304.601 161.177C303.485 162.294 302.059 162.791 300.757 163.101C299.454 163.411 298.214 163.66 297.098 164.032C294.927 164.777 293.563 166.266 293.191 167.445C293.005 168.066 293.005 168.563 293.067 168.873C293.129 169.307 293.191 169.432 293.191 169.432Z" fill="#FAFAFA"/>
<path d="M328.538 202.945C328.538 202.945 328.538 203.069 328.6 203.318C328.6 203.566 328.6 203.938 328.476 204.435C328.228 205.366 327.546 206.669 326.119 207.786C325.437 208.345 324.631 208.841 323.639 209.276C322.709 209.71 321.655 210.02 320.538 210.331C319.422 210.641 318.306 211.013 317.19 211.572C316.073 212.069 315.019 212.813 314.151 213.806C313.221 214.737 312.477 215.792 311.609 216.723C310.74 217.654 309.748 218.399 308.756 218.957C306.71 220.075 304.601 220.447 302.865 220.509C301.129 220.509 299.702 220.137 298.834 219.826C298.4 219.64 298.028 219.516 297.78 219.392C297.532 219.268 297.408 219.206 297.408 219.206C297.408 219.206 297.532 219.268 297.78 219.33C298.028 219.454 298.338 219.578 298.834 219.702C299.764 220.013 301.129 220.323 302.865 220.261C304.601 220.199 306.648 219.826 308.632 218.709C309.624 218.151 310.554 217.406 311.423 216.537C312.291 215.606 313.035 214.613 313.965 213.62C314.895 212.627 315.949 211.82 317.128 211.324C318.244 210.765 319.422 210.455 320.538 210.083C321.655 209.772 322.647 209.462 323.639 209.027C324.569 208.655 325.375 208.159 326.057 207.662C327.422 206.607 328.166 205.366 328.414 204.435C328.6 203.504 328.476 202.945 328.538 202.945Z" fill="#FAFAFA"/>
<path d="M325.499 120.712L320.352 120.836C320.042 122.574 319.174 123.753 319.174 123.753C314.833 116.244 311.485 106.19 310.678 102.155C310.802 101.721 310.927 101.287 311.113 100.79C311.299 100.231 311.113 99.1144 311.051 98.4937C310.927 97.6249 310.678 96.3836 310.554 95.825C310.306 94.0873 310.058 93.839 309.438 94.0252C308.632 94.2735 309.748 98.8041 309.128 98.9282C308.756 98.9902 308.322 97.4387 308.198 96.1354C308.074 94.832 307.516 90.9221 307.082 90.6738C306.462 90.3015 305.904 90.9221 306.09 92.1633C306.276 93.4667 306.462 97.2525 305.78 97.3146C305.097 97.3766 304.539 90.86 304.539 90.86C304.539 90.86 304.663 89.4326 303.857 89.4946C302.431 89.5567 303.547 96.3836 303.671 97.0663C303.733 97.5007 303.051 97.6249 302.989 97.1284C302.927 96.6319 302.555 90.6118 301.129 90.6738C300.012 90.7359 301.997 96.3215 301.377 97.6249C300.757 98.9282 300.323 93.2184 299.268 93.2805C298.896 93.2805 298.586 93.4046 299.33 96.6319C299.702 98.3696 300.819 101.597 301.811 104.204C303.485 113.141 310.74 141.876 322.213 136.6C328.6 133.683 331.204 120.65 331.204 120.65L325.499 120.712Z" fill="#B78876"/>
<path d="M303.423 97.5629C303.423 97.5629 303.485 97.5629 303.547 97.5629C303.609 97.5629 303.795 97.4388 303.795 97.1905C303.795 96.8182 303.733 96.2596 303.609 95.5148C303.547 94.7701 303.299 93.9012 303.299 92.8461C303.299 92.3496 303.299 91.7911 303.361 91.1704C303.361 90.8601 303.361 90.5498 303.423 90.3016C303.485 89.9913 303.671 89.6809 303.857 89.743C304.105 89.743 304.229 89.9292 304.291 90.1774C304.353 90.4257 304.415 90.736 304.353 90.9843C304.477 92.5979 304.663 94.3356 305.035 96.1355C305.097 96.3837 305.159 96.5699 305.221 96.8182C305.283 96.9423 305.283 97.0664 305.345 97.1905C305.407 97.2526 305.407 97.3147 305.469 97.3767C305.531 97.4388 305.594 97.5008 305.718 97.5629C305.966 97.5629 306.028 97.3767 306.09 97.2526C306.152 97.1285 306.152 97.0043 306.214 96.8802C306.276 96.632 306.276 96.3837 306.338 96.1355C306.4 95.1425 306.4 94.0874 306.276 93.0323C306.276 92.4738 306.09 91.9773 306.214 91.4808C306.276 91.2325 306.338 90.9843 306.524 90.9222C306.586 90.8601 306.71 90.8601 306.772 90.8601C306.834 90.8601 306.896 90.9222 306.896 90.9222C306.958 90.9843 306.958 90.9222 306.958 90.9843C307.144 91.4187 307.268 91.9773 307.392 92.5358C307.516 93.0944 307.578 93.653 307.702 94.2115C307.764 94.7701 307.888 95.3287 307.95 95.9493C308.012 96.5078 308.074 97.1285 308.26 97.687C308.322 97.9973 308.446 98.2456 308.57 98.5559C308.632 98.68 308.694 98.8662 308.818 98.9903C308.88 99.0524 309.004 99.1765 309.19 99.1145C309.376 99.0524 309.438 98.9283 309.438 98.8662C309.562 98.4938 309.5 98.1835 309.5 97.8732C309.5 97.5629 309.438 97.2526 309.438 96.9423C309.376 96.4458 309.314 95.8872 309.314 95.3907C309.314 95.1425 309.314 94.8942 309.314 94.646C309.314 94.5218 309.376 94.3977 309.376 94.3356C309.376 94.2736 309.438 94.2736 309.438 94.2736H309.5C309.934 94.0874 310.058 94.646 310.182 95.1425C310.306 95.639 310.368 96.1355 310.43 96.632C310.616 97.625 310.802 98.5559 310.926 99.4869C310.989 99.9213 310.989 100.418 310.864 100.852C310.74 101.287 310.554 101.721 310.43 102.156V102.218V102.28C311.175 105.631 312.229 108.61 313.221 111.279C314.213 113.947 315.205 116.244 316.073 118.106C316.942 119.968 317.686 121.395 318.244 122.388C318.492 122.885 318.74 123.195 318.864 123.505C318.988 123.753 319.112 123.878 319.112 123.878C319.112 123.878 319.05 123.753 318.926 123.505C318.802 123.195 318.554 122.822 318.306 122.388C317.81 121.395 317.066 119.905 316.197 118.044C315.329 116.182 314.399 113.885 313.469 111.217C312.539 108.548 311.485 105.569 310.74 102.28V102.342C310.864 101.907 311.051 101.473 311.175 101.038C311.361 100.542 311.299 100.045 311.237 99.5489C311.113 98.5559 310.927 97.625 310.74 96.632C310.616 96.1355 310.616 95.639 310.492 95.1425C310.43 94.8942 310.368 94.646 310.244 94.3977C310.182 94.2736 310.058 94.1495 309.872 94.0253C309.686 93.9633 309.5 93.9633 309.376 94.0253H309.252C309.19 94.0253 309.128 94.0874 309.128 94.0874C309.066 94.1495 309.004 94.2115 308.942 94.3356C308.88 94.4598 308.88 94.646 308.818 94.7701C308.818 95.0183 308.818 95.3286 308.818 95.5769C308.818 96.0734 308.88 96.632 308.942 97.1285C308.942 97.4388 309.004 97.7491 309.004 98.0594C309.004 98.3697 309.004 98.68 308.942 98.8662C308.942 98.9283 308.88 98.9283 308.942 98.9283C308.942 98.9283 308.942 98.9903 308.942 98.9283C308.942 98.9283 308.942 98.9283 308.88 98.8662C308.818 98.8042 308.756 98.68 308.694 98.5559C308.57 98.3077 308.508 97.9973 308.446 97.7491C308.322 97.1905 308.198 96.632 308.136 96.0113C308.074 95.4528 308.012 94.8321 307.888 94.2736C307.826 93.715 307.702 93.1565 307.578 92.5979C307.454 92.0393 307.392 91.4808 307.082 90.9222C307.082 90.8601 306.958 90.736 306.896 90.6739C306.834 90.6119 306.772 90.6119 306.648 90.5498C306.462 90.4878 306.276 90.5498 306.152 90.6119C305.842 90.7981 305.78 91.1084 305.718 91.4187C305.656 91.729 305.656 91.9773 305.718 92.2876C305.78 92.5358 305.78 92.7841 305.78 93.0944C305.842 94.1495 305.904 95.1425 305.842 96.1355C305.842 96.3837 305.78 96.632 305.78 96.8802C305.78 97.0043 305.718 97.1285 305.656 97.1905C305.656 97.2526 305.593 97.2526 305.593 97.3147C305.593 97.3767 305.531 97.3147 305.531 97.3767C305.594 97.3147 305.531 97.3767 305.531 97.3147C305.531 97.3147 305.469 97.2526 305.469 97.1905C305.407 97.0664 305.407 97.0043 305.345 96.8802C305.283 96.632 305.221 96.4458 305.159 96.1975C304.787 94.3977 304.601 92.6599 304.477 91.0463C304.477 90.736 304.477 90.4257 304.353 90.1154C304.291 89.9913 304.229 89.8051 304.105 89.6809C303.981 89.5568 303.795 89.4947 303.671 89.4947H303.733C303.485 89.4327 303.299 89.6189 303.175 89.743C303.051 89.8671 303.051 90.0533 302.989 90.2395C302.927 90.5498 302.927 90.8601 302.927 91.1704C302.927 91.7911 302.927 92.3496 302.927 92.8461C302.927 93.9012 303.175 94.7701 303.299 95.5148C303.423 96.2596 303.485 96.8182 303.547 97.1905C303.609 97.3767 303.423 97.5008 303.361 97.5008C303.485 97.5629 303.423 97.5629 303.423 97.5629Z" fill="#A36957"/>
<path d="M263.053 129.215C263.053 129.215 261.317 129.153 259.457 129.649C256.232 130.518 250.713 133.87 250.527 137.966H254.558C254.558 137.966 252.325 142.745 252.946 142.31C254.682 141.131 258.093 137.717 258.093 137.717L263.053 129.215Z" fill="#B78876"/>
<path d="M316.964 49.7394C317.324 53.837 317.698 57.1514 317.801 57.1424C317.903 57.1334 317.694 53.8044 317.334 49.7068C316.974 45.6093 316.6 42.2949 316.497 42.3039C316.395 42.3129 316.604 45.6419 316.964 49.7394Z" fill="#263238"/>
<path d="M329.378 51.2822C332.794 46.4786 335.495 42.5361 335.411 42.4765C335.327 42.4169 332.491 46.2627 329.075 51.0663C325.66 55.87 322.959 59.8125 323.043 59.8721C323.126 59.9317 325.963 56.0859 329.378 51.2822Z" fill="#263238"/>
<path d="M335.691 61.9353C339.616 61.128 342.781 60.3919 342.76 60.2912C342.74 60.1905 339.541 60.7632 335.616 61.5705C331.691 62.3778 328.526 63.1139 328.547 63.2146C328.568 63.3153 331.766 62.7425 335.691 61.9353Z" fill="#263238"/>
<path d="M131.837 145.537L109.885 258.368L107.032 273.138L253.441 272.394C260.015 272.332 265.844 266.498 267.952 257.871L293.935 151.371C295.547 144.793 292.013 137.966 287.052 137.966L138.906 138.152C135.557 138.09 132.705 141.131 131.837 145.537Z" fill="#82D293"/>
<g opacity="0.5">
<path d="M131.837 145.537L109.885 258.368L107.032 273.138L253.441 272.394C260.015 272.332 265.844 266.498 267.952 257.871L293.935 151.371C295.547 144.793 292.013 137.966 287.052 137.966L138.906 138.152C135.557 138.09 132.705 141.131 131.837 145.537Z" fill="black"/>
</g>
<path d="M239.427 250.734L223.924 125.739C223.304 120.588 219.211 116.802 214.374 116.802L180.392 116.926C177.849 116.926 175.493 117.981 173.695 119.905L157.571 137.097L63.0657 137.593C57.2987 137.593 52.8338 143.117 53.64 149.261L68.0267 264.822C68.6468 269.911 72.7396 273.759 77.5145 273.759L242.217 273.449C260.573 273.821 262.309 268.422 262.309 268.422C241.287 272.952 239.427 250.734 239.427 250.734Z" fill="#82D293"/>
<path d="M114.694 211.599C118.998 213.422 123.071 215.222 127.204 216.888C128.336 217.332 128.886 217.904 128.781 219.168C128.653 220.665 129.632 222.74 128.59 223.55C127.769 224.184 126.001 222.742 124.634 222.175C119.366 219.999 114.126 217.722 108.825 215.547C107.824 215.129 107.539 214.612 107.327 213.561C106.679 210.145 107.803 208.271 111.04 206.83C116.296 204.467 121.263 201.521 126.335 198.736C127.548 198.084 127.655 198.278 127.914 199.625C128.639 203.302 127.359 205.349 123.92 206.667C120.835 207.87 118.008 209.69 115.071 211.25C115.005 211.253 114.943 211.322 114.694 211.599Z" fill="white"/>
<path d="M175.107 208.717C170.638 206.868 166.534 205.102 162.372 203.505C161.206 203.061 160.752 202.42 160.827 201.223C160.875 200.128 160.823 199.003 160.675 197.917C160.516 196.599 160.941 196.579 162.008 197.027C167.313 199.301 172.649 201.507 177.953 203.748C182.356 205.6 182.356 205.6 182.382 210.436C182.384 211.198 182.176 211.639 181.505 212.001C175.312 215.302 169.118 218.602 162.926 221.936C162.128 222.37 161.733 222.322 161.752 221.294C161.748 221.228 161.747 221.195 161.744 221.129C161.352 216.176 161.352 216.176 165.692 213.823C168.723 212.159 171.723 210.53 175.107 208.717Z" fill="white"/>
<path d="M156.073 191.733C155.459 193.319 154.903 194.736 154.314 196.155C149.682 207.8 145.049 219.412 140.449 231.055C139.98 232.237 139.454 232.89 138.107 232.754C136.727 232.618 134.839 233.534 134.139 232.539C133.58 231.769 134.877 230.086 135.374 228.804C140.032 217.025 144.722 205.212 149.38 193.433C149.79 192.387 150.289 191.867 151.469 191.912C152.944 191.977 154.408 191.81 156.073 191.733Z" fill="#FED487"/>
<path d="M262.929 64.4214C262.557 64.2352 262.247 63.8628 262.247 63.4284L261.999 57.6565C261.999 57.2842 262.123 56.9738 262.433 56.7256C262.743 56.4773 263.053 56.4153 263.425 56.4773C264.356 56.7256 265.348 56.4773 266.216 55.9188C267.022 55.4223 267.518 54.6155 267.642 53.8086C267.766 53.0018 267.518 52.0709 266.96 51.3261C266.34 50.5193 265.41 49.9608 264.542 49.8366C262.681 49.6504 260.635 51.0779 260.139 52.9398C259.953 53.5604 259.333 53.9328 258.713 53.7466C258.092 53.5604 257.72 52.9398 257.906 52.3191C258.713 49.3401 261.813 47.1679 264.79 47.4782C266.34 47.6644 267.828 48.5333 268.821 49.8366C269.751 51.0779 270.185 52.6295 269.937 54.119C269.689 55.5464 268.82 56.9118 267.518 57.7807C266.588 58.4013 265.472 58.7737 264.356 58.8357L264.542 63.3042C264.542 63.9249 264.046 64.4834 263.425 64.4834C263.239 64.4834 263.053 64.4834 262.929 64.4214Z" fill="#82D293"/>
<path d="M263.674 67.7725C264.187 67.7725 264.604 67.3557 264.604 66.8416C264.604 66.3274 264.187 65.9106 263.674 65.9106C263.16 65.9106 262.743 66.3274 262.743 66.8416C262.743 67.3557 263.16 67.7725 263.674 67.7725Z" fill="#82D293"/>
<path d="M243.024 56.291C243.024 56.291 243.024 56.1669 243.086 55.9186C243.086 55.6704 243.148 55.298 243.21 54.8015C243.21 54.305 243.334 53.7464 243.52 53.0017C243.582 52.6293 243.644 52.2569 243.768 51.8845C243.892 51.5122 244.016 51.0777 244.14 50.6433C244.76 48.9055 245.69 46.7954 247.24 44.7473C248.791 42.6993 250.961 40.6512 253.752 39.0996C255.116 38.2928 256.728 37.7342 258.34 37.1757C260.015 36.8033 261.813 36.4309 263.611 36.493C264.542 36.4309 265.472 36.5551 266.402 36.6792C266.898 36.7412 267.332 36.8654 267.828 36.9274C268.324 36.9895 268.758 37.1136 269.255 37.2998C271.177 37.7963 273.037 38.6652 274.774 39.8444C278.308 42.0786 281.347 45.7403 282.959 50.1468C283.765 52.3811 284.199 54.8015 284.199 57.2219C284.261 59.7045 283.765 62.187 282.897 64.4833L282.587 65.166L282.525 65.2901L282.587 65.3522C284.137 68.9518 285.688 72.4273 287.176 75.8408L287.424 75.5305C284.199 74.2892 281.099 73.11 278.122 71.9308L277.998 71.8688L277.936 71.9308C275.332 74.4133 272.293 76.089 269.193 77.02C266.092 77.8888 262.929 77.9509 260.077 77.4544C257.224 76.9579 254.62 75.8408 252.449 74.4133C250.279 72.9859 248.543 71.3102 247.24 69.5104C245.938 67.7726 245.07 65.9107 244.388 64.2971C243.83 62.6214 243.458 61.194 243.272 59.9527C243.21 59.3321 243.148 58.8356 243.086 58.3391C243.086 57.9046 243.086 57.4702 243.086 57.1599C243.086 56.8496 243.086 56.6013 243.086 56.4151C243.024 56.3531 243.024 56.291 243.024 56.291C243.024 56.291 243.024 56.3531 243.024 56.5393C243.024 56.7254 243.024 56.9737 243.024 57.284C243.024 57.5943 243.024 58.0288 243.024 58.4632C243.086 58.9597 243.148 59.4562 243.21 60.0768C243.334 61.3181 243.706 62.8076 244.264 64.4833C244.884 66.0969 245.752 67.9588 247.116 69.7586C248.481 71.5584 250.217 73.2962 252.387 74.7236C254.558 76.1511 257.162 77.3303 260.077 77.8268C262.991 78.3853 266.154 78.3233 269.379 77.4544C272.541 76.5855 275.704 74.8478 278.308 72.3032L278.122 72.3653C281.099 73.5444 284.199 74.7236 287.424 75.9649L287.92 76.1511L287.734 75.6546C286.246 72.2411 284.757 68.7036 283.207 65.166V65.3522L283.517 64.6074C284.385 62.187 284.881 59.6424 284.819 57.1599C284.819 54.6774 284.385 52.1949 283.579 49.8985C281.905 45.368 278.804 41.7063 275.208 39.4099C273.409 38.2928 271.487 37.3619 269.565 36.8654C269.069 36.6792 268.572 36.6171 268.138 36.493C267.642 36.4309 267.146 36.3068 266.712 36.2447C265.72 36.1827 264.79 36.0585 263.86 36.0585C261.999 35.9965 260.201 36.3689 258.465 36.8033C256.79 37.2998 255.178 37.9204 253.814 38.7272C250.961 40.3409 248.791 42.3889 247.24 44.4991C245.69 46.6092 244.76 48.7194 244.202 50.5192C244.078 50.9536 243.954 51.388 243.83 51.7604C243.706 52.1328 243.644 52.5672 243.582 52.8776C243.458 53.5602 243.334 54.1809 243.334 54.6774C243.272 55.1739 243.272 55.5463 243.272 55.7945C242.962 56.1669 242.962 56.291 243.024 56.291Z" fill="#263238"/>
</g>
<defs>
<clipPath id="clip0_756_5992">
<rect width="373" height="275" fill="white"/>
</clipPath>
</defs>
</svg>
