<?xml version="1.0" encoding="utf-8"?>
<!-- Generator: Adobe Illustrator 27.1.1, SVG Export Plug-In . SVG Version: 6.00 Build 0)  -->
<svg style="max-width:250px;margin-bottom:30px;" version="1.1" id="Layer_1" xmlns="http://www.w3.org/2000/svg" xmlns:xlink="http://www.w3.org/1999/xlink" x="0px" y="0px"
	 viewBox="0 0 443.4 340.1" style="enable-background:new 0 0 443.4 340.1;" xml:space="preserve">
<style type="text/css">
	.st0{fill:#F5F5F5;}
	.st1{fill:#E0E0E0;}
	.st2{fill:var(--cooper-primary);}
	.st3{opacity:0.4;enable-background:new    ;}
	.st4{opacity:0.2;enable-background:new    ;}
	.st5{opacity:0.6;fill:#FFFFFF;enable-background:new    ;}
	.st6{fill:#FFFFFF;}
	.st7{fill:#263238;}
	.st8{fill:#37474F;}
	.st9{opacity:0.4;fill:#FFFFFF;enable-background:new    ;}
	.st10{opacity:0.2;fill:#FFFFFF;enable-background:new    ;}
	.st11{opacity:0.1;enable-background:new    ;}
	.st12{fill:#FFA8A7;}
	.st13{fill:#F28F8F;}
	.st14{fill:#EBEBEB;}
	.st15{fill:#455A64;}
	.st16{fill:#FF9090;}
	.st17{fill:#FFAAA8;}
	.st18{fill:#EF7F7F;}
</style>
<g>
	<g id="freepik--Floor--inject-82">
		<ellipse class="st0" cx="221.7" cy="212.1" rx="221.7" ry="128"/>
	</g>
	<g id="freepik--Shadows--inject-82">
		<polygon class="st1" points="116.1,185.6 53.5,149.4 116.1,113.3 178.8,149.4 		"/>
		<ellipse class="st1" cx="237.1" cy="196.9" rx="106.7" ry="61.6"/>
		<ellipse class="st1" cx="138.6" cy="259.8" rx="50.5" ry="29.1"/>
		<path class="st1" d="M353.9,211.2c9.9,5.7,9.9,14.9,0,20.6s-25.8,5.7-35.7,0c-9.9-5.7-9.9-14.9,0-20.6S344,205.5,353.9,211.2z"/>
	</g>
	<g id="freepik--side-table--inject-82">
		<polygon class="st2" points="69.7,77.3 69.7,150.2 122.8,119.5 122.8,46.6 		"/>
		<polygon class="st3" points="69.7,77.3 69.7,150.2 122.8,119.5 122.8,46.6 		"/>
		<polygon class="st2" points="65.5,75 65.5,147.9 69.7,150.2 69.7,77.3 		"/>
		<polygon class="st2" points="118.6,105.6 118.6,178.6 171.8,147.9 171.8,75 		"/>
		<polygon class="st3" points="118.6,105.6 118.6,178.6 171.8,147.9 171.8,75 		"/>
		<polygon class="st2" points="114.4,103.3 114.4,176.2 118.6,178.6 118.6,105.6 		"/>
		<polygon class="st2" points="118.6,110.4 65.5,79.7 65.5,75 118.6,105.6 		"/>
		<polygon class="st2" points="118.6,141.4 65.5,110.7 65.5,106 118.6,136.7 		"/>
		<polygon class="st2" points="118.6,105.6 65.5,75 118.6,44.3 171.8,75 		"/>
		<polygon class="st4" points="118.6,105.6 65.5,75 118.6,44.3 171.8,75 		"/>
		<polygon class="st2" points="114.4,134.3 69.7,108.4 69.7,82.1 114.4,107.9 		"/>
		<polygon class="st5" points="114.4,134.3 69.7,108.4 69.7,82.1 114.4,107.9 		"/>
		<path class="st6" d="M92.5,106c0,1.8-1.5,3.3-3.3,3.3S86,107.8,86,106c0-1.8,1.5-3.3,3.3-3.3l0,0C91,102.7,92.5,104.2,92.5,106z"
			/>
	</g>
	<g id="freepik--Lamp--inject-82">
		<path class="st7" d="M134.3,81.6c-0.8-1.3-1.9-2.4-3.2-3.1c-5.1-2.9-13.2-2.9-18.3,0c-1.3,0.7-2.5,1.8-3.2,3.1H109v2.2l0,0
			c0,1.9,1.3,3.8,3.8,5.3c5.1,2.9,13.2,2.9,18.3,0c2.5-1.5,3.8-3.4,3.8-5.3l0,0v-2.2H134.3z"/>
		<ellipse class="st8" cx="121.9" cy="81.6" rx="12.9" ry="7.5"/>
		<path class="st7" d="M119.1,19.8h5.6l0,0v59.6c0,1.2-1,2.3-2.3,2.3h-1.1c-1.2,0-2.3-1-2.3-2.3L119.1,19.8L119.1,19.8z"/>
		<path class="st2" d="M147,43.2L147,43.2c-0.1-0.3-0.2-0.6-0.3-0.9l-8-25.2h-33.6l-7.9,25.2c-0.1,0.3-0.2,0.6-0.3,0.9l0,0
			c-1.1,4.4,1.3,9.1,7.2,12.4c9.9,5.7,25.9,5.7,35.8,0C145.7,52.3,148.1,47.6,147,43.2z"/>
		<path class="st9" d="M147,43.2L147,43.2c-0.1-0.3-0.2-0.6-0.3-0.9l-8-25.2h-33.6l-7.9,25.2c-0.1,0.3-0.2,0.6-0.3,0.9l0,0
			c-1.1,4.4,1.3,9.1,7.2,12.4c9.9,5.7,25.9,5.7,35.8,0C145.7,52.3,148.1,47.6,147,43.2z"/>
		<ellipse class="st2" cx="121.9" cy="18.5" rx="17" ry="9.8"/>
		<path class="st2" d="M121.9,8.7v2c3.8-0.1,7.6,0.8,11,2.6c2.6,1.5,4,3.3,4,5.2s-1.4,3.7-4,5.2c-6.9,3.5-15.1,3.5-22.1,0
			c-2.6-1.5-4-3.3-4-5.2s1.4-3.7,4-5.2c3.4-1.8,7.2-2.7,11-2.6L121.9,8.7 M121.9,8.7c-4.2-0.1-8.3,0.9-12,2.9
			c-6.6,3.8-6.6,10.1,0,13.9c7.6,3.8,16.5,3.8,24.1,0c6.6-3.8,6.6-10.1,0-13.9C130.2,9.6,126.1,8.6,121.9,8.7L121.9,8.7z"/>
		<path class="st10" d="M121.9,8.7v2c3.8-0.1,7.6,0.8,11,2.6c2.6,1.5,4,3.3,4,5.2s-1.4,3.7-4,5.2c-6.9,3.5-15.1,3.5-22.1,0
			c-2.6-1.5-4-3.3-4-5.2s1.4-3.7,4-5.2c3.4-1.8,7.2-2.7,11-2.6L121.9,8.7 M121.9,8.7c-4.2-0.1-8.3,0.9-12,2.9
			c-6.6,3.8-6.6,10.1,0,13.9c7.6,3.8,16.5,3.8,24.1,0c6.6-3.8,6.6-10.1,0-13.9C130.2,9.6,126.1,8.6,121.9,8.7L121.9,8.7z"/>
	</g>
	<g id="freepik--Character--inject-82">
		<path class="st2" d="M336.2,159.1c-6.8,43.7-50.8,90-118.3,77c-0.7-0.1-1.3-0.2-2-0.4c-1.4-0.3-2.8-0.6-4.2-0.9
			c-71-17.1-75.9-63-72.8-83s21.6-36.1,32.5-42.5s24.5-13.6,36.9-33.7c11.3-18.3,29.4-29.2,56.4-27.4l2.4,0.2c1.9,0.2,3.9,0.4,6,0.8
			C273.1,49.2,351.7,59,336.2,159.1z"/>
		<path class="st5" d="M336.2,159.1c-6.8,43.7-50.8,90-118.3,77c-0.7-0.1-1.3-0.2-2-0.4c-1.4-0.3-2.8-0.6-4.2-0.9
			c-71-17.1-75.9-63-72.8-83s21.6-36.1,32.5-42.5s24.5-13.6,36.9-33.7c11.3-18.3,29.4-29.2,56.4-27.4l2.4,0.2c1.9,0.2,3.9,0.4,6,0.8
			C273.1,49.2,351.7,59,336.2,159.1z"/>
		<path class="st2" d="M319.5,156.5c-6.5,41.8-44.3,86.5-101.6,79.6c-0.7-0.1-1.3-0.2-2-0.4c56.1,5.5,93-38.6,99.4-79.9
			c12.8-82.6-34-103-50.6-107.6c-1.5-0.4-2.8-0.7-3.8-0.9c0.7,0.1,1.5,0.2,2.2,0.3c1.3,0.2,2.7,0.4,4,0.8
			C282,52,332.8,70.8,319.5,156.5z"/>
		<path class="st9" d="M319.5,156.5c-6.5,41.8-44.3,86.5-101.6,79.6c-0.7-0.1-1.3-0.2-2-0.4c56.1,5.5,93-38.6,99.4-79.9
			c12.8-82.6-34-103-50.6-107.6c-1.5-0.4-2.8-0.7-3.8-0.9c0.7,0.1,1.5,0.2,2.2,0.3c1.3,0.2,2.7,0.4,4,0.8
			C282,52,332.8,70.8,319.5,156.5z"/>
		<path class="st11" d="M280.4,154c0,0,37.7-87.2-23.4-87.2c0,0-33-8.4-47.3,32.1s-55.1,30-55.1,62.3c0,19.5,8.4,41.7,15.3,56.2
			c5.8,3.9,12,7.2,18.5,9.9l0.3-0.2c0,0,2.4-20.2,17.1-30s47.6-19.5,58.4-27.7c10.2-7.7,31.3-5.1,34.7,0.3
			C297.1,165.9,290.5,152.9,280.4,154z"/>
		<path class="st12" d="M154.9,175.1l2.9,44.7c0,0,18.3,2,16.1-12.3c0,0-0.9-1.5-0.7-5s4.3-21.8,4.5-27.6L154.9,175.1z"/>
		<polygon class="st13" points="157.3,211.7 159.6,213.4 176.3,178.3 173.9,175 171.7,175 167.4,178.3 156.6,201.3 		"/>
		<path class="st2" d="M156.7,219.9c0,0-3.8-7.4,1.6-9.3s8.9,0,9.2,2s0.6,5,0.6,5c2.9-2.8,4.9-6.3,5.8-10.2c0,0,8.4,7.4,7.7,11.2
			s-7.1,12.1-7.9,14.6s-2.8,18.5-10.7,20.8s-19.2,2.4-16.4-6.7c1-3.1,5.9-6.8,7-9.8S156.7,219.9,156.7,219.9z"/>
		<path class="st14" d="M170.7,244.9c-4.6-9.5-13-9.4-16.7-8.9c-0.1,0.6-0.3,1.1-0.4,1.6c-1.1,3.1-6,6.7-7,9.8
			c-2.8,9.1,8.5,9,16.4,6.7C166.7,253.1,169.1,249.1,170.7,244.9L170.7,244.9z"/>
		<path class="st7" d="M180.7,215.4c0.1,0.4,0.1,0.9,0.1,1.4c-0.8,4-7.6,12.5-8.5,15.2s-3.1,19.3-11.5,21.6c-3.8,1.1-7.8,1.5-11.8,1
			c3.4,1.6,9.3,1.1,14-0.3c7.9-2.3,9.9-18.2,10.7-20.8s7.3-10.8,7.9-14.6C181.7,217.6,181.4,216.4,180.7,215.4z"/>
		<path class="st14" d="M166.3,222.2c-0.1,0-0.3-0.1-0.4-0.1c-3.8-3.7-8.8-1.7-9-1.6c-0.3,0.1-0.6,0-0.7-0.3c-0.1-0.3,0-0.6,0.3-0.7
			c0.1,0,5.9-2.4,10.2,1.8c0.2,0.2,0.2,0.5,0,0.7C166.6,222.1,166.5,222.1,166.3,222.2L166.3,222.2z"/>
		<path class="st14" d="M165.8,226.4c-0.1,0-0.3-0.1-0.4-0.1c-3.8-3.8-9-1.6-9-1.6c-0.3,0.1-0.6,0-0.7-0.3c-0.1-0.3,0-0.6,0.3-0.7
			c0.1,0,5.9-2.4,10.2,1.8c0.2,0.2,0.2,0.5,0,0.7c0,0,0,0,0,0C166.1,226.3,166,226.4,165.8,226.4z"/>
		<path class="st14" d="M165.2,230.5c-0.1,0-0.3-0.1-0.4-0.2c-3.8-3.8-9-1.6-9-1.6c-0.3,0.1-0.6,0-0.7-0.3c-0.1-0.3,0-0.6,0.3-0.7
			c0.1,0,5.9-2.4,10.2,1.8c0.2,0.2,0.2,0.5,0,0.7C165.5,230.4,165.4,230.5,165.2,230.5z"/>
		<path class="st14" d="M164.4,234.6c-0.1,0-0.3-0.1-0.4-0.1c-3.8-3.8-9-1.6-9-1.6c-0.3,0.1-0.6,0-0.7-0.3c-0.1-0.3,0-0.6,0.3-0.7
			c0.1,0,5.9-2.4,10.2,1.8c0.2,0.2,0.2,0.5,0,0.7C164.7,234.5,164.5,234.6,164.4,234.6L164.4,234.6z"/>
		<path class="st15" d="M234,137.9l-17.7,9.2l-32,16.6c-2.9,1.5-5.1,4.1-6,7.2c-0.3,1.1-0.5,2.2-0.5,3.4v0.6
			c-0.7,0.5-1.5,0.9-2.2,1.3c-2.5,1.3-5.2,2-8,2.1c-4.4,0.1-8.7-1-12.6-3.2c0,0-0.1-5.3-0.3-13.9s7.1-12.7,13.8-17.7
			s43.1-20.4,43.1-20.4L234,137.9z"/>
		<polygon class="st8" points="211.5,144 231.2,138.1 234,140.8 213.2,148.7 		"/>
		<path class="st8" d="M217.9,148.5l-39.7,22.4l-0.4,0.2l-2.3,5.1c-2.5,1.3-5.2,2-8,2.1l4.4-9.1c1.1-2.2,2.8-4.1,4.9-5.3l34.9-19.9
			c0,0-0.3-5.9,0.9-8.4c0,0,0.2,7.4,3.8,11.5C216.8,147.6,217.3,148.1,217.9,148.5z"/>
		<path class="st12" d="M164.7,190l-25.4,53.5c0,0-2,10.8,5,10.8s8.2-3.6,8.2-3.6s0.7-4.5,6.7-12.9s24.6-24.7,28.6-36.2L164.7,190z"
			/>
		<path class="st15" d="M268,144.8c0,0-3.5,15.4-10.1,20.7c-6.6,5.3-12,8.9-34.2,13.6c-14.6,3.1-24.1,5.7-28.9,7.1
			c-2.2,0.6-3.9,2.5-4.4,4.8c-0.7,3.6-1.6,7.1-2.7,10.6c0,0-14.5,0.5-23-11.5l8.4-16.1c2.2-4.2,5.4-7.7,9.4-10.2
			c9.9-6.3,20.1-11.9,30.6-17c17.2-8,19.6-9.5,19.6-9.5L268,144.8z"/>
		<path class="st12" d="M213.9,52.5c0,0-17.3,18.8-20.8,23.1c-4.6,5.7-6.9,16.6,2.1,19.8S237,75.3,237,75.3L225.4,63l-6.1,3.8
			l5.3-8.6L213.9,52.5z"/>
		<path class="st13" d="M219.3,66.8l-13.8,21.9c0,0,10.9-12.2,13.5-15.4L219.3,66.8z"/>
		<path class="st2" d="M219.3,66.8l-3.8,6c0,0,6.5,4.6,7.1,11.4l21.5-12.3l-3.5-13c0,0-7.1-1-13.1,2.6
			C221.8,65,219.3,66.8,219.3,66.8z"/>
		<path class="st4" d="M219.3,66.8l-3.8,6c0,0,6.5,4.6,7.1,11.4l21.5-12.3l-3.5-13c0,0-7.1-1-13.1,2.6
			C221.8,65,219.3,66.8,219.3,66.8z"/>
		<path class="st7" d="M245.3,2.3c0,0-4.6-3.9-10.1,2.1S234.7,28,226.7,27c0,0,5.2,5.6,10.5,1.7s13.6,30.3,30.8,30.3
			c3.6,0,6.8-2.2,8.1-5.6c0,0,2.4,2.6,1.3,5.6c3.8-2.1,6-6.2,5.8-10.6c0,0,4.1,2.6,8.3,0.8c0,0-5-2.6-2.7-11
			c2.3-8.4,2.9-17.2-3.2-19.6c0,0,1.8-13.9-16.4-17.4C252.2-2,245.3,2.3,245.3,2.3z"/>
		<path class="st12" d="M269.3,47l-1.9,16.9l5.5,2.3c0,0-27,13.6-33.2,11.5s6.6-18.4,6.6-18.4l3.1,0.4l0.4-7.8L269.3,47z"/>
		<path class="st16" d="M264.4,50.2l-7.3-0.1l-7.1,1.8l-0.3,5.6C261.2,54.9,264.4,50.2,264.4,50.2z"/>
		<path class="st12" d="M245.2,9.2c0,0-7.8,3.5-9.7,20.1s0.8,24.3,11.3,24.3c8.4,0,18.3-1.1,22.6-6.7c1-1.4,3.1-34.1-5.7-38.7
			C254.8,3.6,245.2,9.2,245.2,9.2z"/>
		<path class="st7" d="M245.2,7.7c0,0-0.4,17.8,19.8,23.3c0,0-1.5,9.4,4.2,9.4h5.5V23.9c0-10.3-8.3-18.6-18.6-18.6h-8.4
			C246.3,5.2,245.2,6.3,245.2,7.7L245.2,7.7L245.2,7.7z"/>
		<polygon class="st16" points="246.6,28.6 246.6,38.7 240.6,36.9 		"/>
		<path class="st7" d="M254.2,32.1c0,0.9-0.7,1.5-1.6,1.5c-0.9,0-1.5-0.7-1.5-1.6c0-0.8,0.7-1.5,1.6-1.5
			C253.6,30.5,254.2,31.2,254.2,32.1C254.2,32,254.2,32.1,254.2,32.1z"/>
		<path class="st7" d="M242.6,29.5c0,0.9-0.7,1.5-1.5,1.5c-0.9,0-1.5-0.7-1.5-1.5c0-0.9,0.7-1.5,1.5-1.5S242.6,28.6,242.6,29.5
			L242.6,29.5z"/>
		<path class="st7" d="M239.8,20.9l3.6,1.8c0,0,0.5-1.9-0.9-2.5C241.4,19.9,240.4,20.2,239.8,20.9z"/>
		<path class="st17" d="M269.1,38.9c-0.1-1.7,0.2-3.3,0.9-4.9c0.8-1.7,2.1-3.4,4.5-3.5c5.2-0.1,5.9,4.8,5.8,6.6
			c-0.2,4.7-4,9.7-11,9.9L269.1,38.9z"/>
		<path class="st18" d="M251.3,43.9c0,1.7-1.1,3.1-2.4,3.1s-2.4-1.4-2.4-3.1s1.1-3.1,2.4-3.1S251.3,42.2,251.3,43.9z"/>
		<path class="st13" d="M251.3,44.5c-0.5-0.7-1.3-1.2-2.1-1.2c-1.1,0-2.1,0.7-2.4,1.8c0.2,1.1,1.1,1.8,2.2,1.9
			C250.2,46.9,251.2,45.8,251.3,44.5z"/>
		<path class="st7" d="M285.8,18.9c0,0,6.4,0.9,6.7-0.1c0.3-1.1-4.8-3.1-4.8-3.1s2.5-4.6,0.9-4.7s-5.4,4.9-5.4,4.9L285.8,18.9z"/>
		<path class="st2" d="M246.4,59.3l-5.8-0.4c0,0-21.6,16.1-20.2,27.3c0.8,6.6,2.8,10.2,4.1,12c0.8,1,1,2.4,0.7,3.6
			c-0.8,3.5-2.5,10.1-4.9,13.2c-2.6,3-5.6,5.8-8.8,8.1c0,0,6.6,12,19.1,18.2s32.9,6.8,37.3,3.5l5.8-33.5l2.9-43.3l-4.9-2.2
			c0,0-23.2,10.9-30.5,10.3C237.7,75.7,246.4,59.3,246.4,59.3z"/>
		<path class="st4" d="M237,100.7c0,0,4,3.5,11.2,3.5c4.1,0.1,8.1-1.4,11.3-4.1c0,0-3.1,5.8-11.4,5.8
			C239.7,105.9,237,100.7,237,100.7z"/>
		<path class="st12" d="M263.8,107l-3.5,15.2c-7.1-1.6-14.3-2.8-21.6-3.6c-13-1.5-15.6-2.4-15.6-2.4l0.8,14.1c0,0,15.8,6.3,30.2,8.4
			c14.4,2.1,18.3,1.5,22-10.2c3.7-11.7,5.1-16.5,5.1-16.5L263.8,107z"/>
		<path class="st2" d="M276.7,68c0,0-10.8,7.7-9.5,24.9c0,0-3,12.9-3.3,14.1c0,0,6.3,5,17.4,5.1l7.1-25.7c1.6-5.7-0.6-11.7-5.5-15
			C280.9,70.1,278.9,68.9,276.7,68z"/>
		<path class="st4" d="M276.7,68c0,0-10.8,7.7-9.5,24.9c0,0-3,12.9-3.3,14.1c0,0,6.3,5,17.4,5.1l7.1-25.7c1.6-5.7-0.6-11.7-5.5-15
			C280.9,70.1,278.9,68.9,276.7,68z"/>
		<path class="st12" d="M224.6,58.3c4.2,0.1,8.2-1.4,11.3-4.1c3-2.7,5.5-3.1,6.3-4s-0.6-3-4.4-2.1s-4.3,1.6-4.3,1.6s2.4-3.4,4.2-4.1
			s6-1.5,6.6-2.7s-1.5-1.7-4.7-1.8c0,0-5.6-1.9-8.9-1.9s-6.4,0.9-10.2,5.5l-6.5,7.9L224.6,58.3z"/>
		<path class="st16" d="M236.2,46.8c-0.1,0-0.1,0-0.2-0.1c-0.1-0.1-0.1-0.3,0-0.4c0,0,0,0,0,0c0.4-0.4,1-0.8,1.5-1
			c0.5-0.2,1.1-0.4,1.8-0.6c1.8-0.5,4.3-1.2,4.6-2c0.1-0.2,0.1-0.4,0-0.5c-0.4-0.5-1.9-0.9-4.5-0.9h-0.1c0,0-2-0.7-4.4-1.2
			c-0.1,0-0.2-0.2-0.2-0.3c0-0.1,0.2-0.2,0.3-0.2c0,0,0,0,0,0c2.1,0.5,4,1.1,4.3,1.2c2.9,0.1,4.4,0.4,4.8,1.1c0.2,0.3,0.2,0.7,0.1,1
			c-0.4,1.1-2.8,1.7-5,2.3c-0.7,0.2-1.3,0.4-1.8,0.5c-0.5,0.2-1,0.5-1.4,0.9C236.3,46.8,236.3,46.8,236.2,46.8z"/>
		<path class="st16" d="M239.5,52c-0.1,0-0.2-0.1-0.2-0.1c-0.1-0.1,0-0.3,0.1-0.4l1-0.5c0.6-0.2,1.1-0.6,1.6-1c0.2-0.3,0.2-0.7,0-1
			c-0.5-0.7-1.8-1.3-4.1-0.8c-0.4,0.1-0.7,0.2-1,0.3c-0.1,0-0.3,0-0.3-0.2c0,0,0,0,0,0c0-0.1,0-0.3,0.2-0.3l1-0.3
			c2.5-0.6,4,0.1,4.6,1c0.3,0.5,0.3,1.1,0,1.6c-0.5,0.5-1.1,0.9-1.8,1.1c-0.3,0.1-0.6,0.3-0.9,0.5L239.5,52z"/>
		<path class="st8" d="M220.8,135.5l-0.3-1.5l-6.5-30.3c0,0,0.5-1,0.8-1.7c0.2,0.1,0.4,0.3,0.5,0.4c0.3,0.4,0.6,0.8,0.7,1.3
			l6.7,28.6l0.1,0.4C223.2,134.6,220.8,135.5,220.8,135.5z"/>
		<path class="st15" d="M215.3,102.4l-1.3,1.3l-15.9-5.3l-1.3-0.4l0.7-0.7c0.1-0.1,0.3-0.2,0.4-0.3c0.5-0.3,1.1-0.4,1.7-0.3l14.5,5
			C214.6,101.8,215,102,215.3,102.4z"/>
		<path class="st7" d="M196.6,98.7l7.2,28.9c0.3,1.2,1.2,2.2,2.3,2.6l13.7,5.3c0.6,0.2,1.3,0,1.5-0.7c0.1-0.2,0.1-0.5,0.1-0.7
			l-6.8-29.1c-0.2-1-1-1.8-1.9-2.1l-15.1-5.2c-0.4-0.2-0.9,0.1-1.1,0.5C196.6,98.4,196.6,98.5,196.6,98.7z"/>
		<path class="st12" d="M226.3,117.3c-1.9-3.5-5.1-6.2-8.9-7.5l1.1,4.9c0,0-5.7,1.1-9.3,0.5s-10.2-4.8-9.2-0.1s2.1,7.9,4.9,10
			c2.9,2.4,6.4,4,10.1,4.4c3.9,0.3,9,0.8,9,0.8L226.3,117.3z"/>
		<path class="st2" d="M152.5,250.7c-2.4,1.4-5.2,1.7-7.9,0.9c0,0,1.9-4.9-1.7-7s-7.1-2.1-8.1,0.9l-0.9,3c0,0-9.1,7.1-12.5,9.3
			s-6.7,3.8-9.2,5.5s-9.1,6.4-3.4,12.4s22.5,2.9,26.8-3.9s16.6-3.5,16.6-11.8S152.5,250.7,152.5,250.7z"/>
		<path class="st14" d="M119.9,258.7c-2.8,1.7-5.5,3.1-7.6,4.5c-2.5,1.6-9.1,6.4-3.4,12.4c4.4,4.6,15.3,3.9,22.1,0.1
			C131.1,261.9,122.7,259.5,119.9,258.7z"/>
		<path class="st7" d="M135.9,269.6c-4.5,7.2-22.2,10.5-28.2,4.1c-0.3-0.3-0.5-0.6-0.7-0.9c0.4,1,1,1.9,1.8,2.7
			c5.7,6,22.5,2.9,26.8-3.9c4.1-6.5,15.4-3.8,16.5-10.6C148.7,264.9,139.5,263.8,135.9,269.6z"/>
		<path class="st14" d="M140.9,255.8c-0.3,0-0.5-0.2-0.5-0.4c-0.9-5.2-6.3-6.4-6.5-6.5c-0.3-0.1-0.5-0.3-0.4-0.6c0,0,0,0,0,0
			c0.1-0.3,0.3-0.5,0.6-0.4c0,0,0,0,0,0c0.1,0,6.2,1.4,7.3,7.3C141.4,255.5,141.2,255.8,140.9,255.8L140.9,255.8z"/>
		<path class="st14" d="M137.8,258.2c-0.3,0-0.5-0.2-0.5-0.4c-0.9-5.2-6.3-6.4-6.5-6.5c-0.3-0.1-0.5-0.3-0.4-0.6c0,0,0,0,0,0
			c0.1-0.3,0.3-0.5,0.6-0.4c0,0,0,0,0,0c0.1,0,6.2,1.4,7.3,7.3c0,0.3-0.1,0.6-0.4,0.6L137.8,258.2z"/>
		<path class="st14" d="M134.4,260.9c-0.3,0-0.5-0.2-0.5-0.4c-0.9-5.2-6.3-6.4-6.5-6.5c-0.3-0.1-0.4-0.4-0.3-0.7
			c0.1-0.2,0.3-0.3,0.5-0.3c0.1,0,6.2,1.4,7.3,7.3c0.1,0.3-0.1,0.6-0.4,0.6c0,0,0,0,0,0L134.4,260.9z"/>
		<path class="st14" d="M131.4,263.1c-0.3,0-0.5-0.2-0.5-0.4c-0.9-5.2-6.3-6.4-6.5-6.5c-0.3-0.1-0.4-0.4-0.3-0.7
			c0.1-0.2,0.3-0.3,0.5-0.3c0.1,0,6.2,1.4,7.3,7.3C132,262.8,131.8,263.1,131.4,263.1C131.5,263.1,131.5,263.1,131.4,263.1
			L131.4,263.1z"/>
	</g>
	<g id="freepik--Plant--inject-82">
		<path class="st2" d="M337.3,187.8c0,0-14.4-14.1-6.2-37.7c4.6-13.2,19.9-23,28.5-23.9c-2.9,3.4-5.2,7.3-6.8,11.4l-10.9,7.3
			l10.1-3.1l-2.1,8.6c0,0-9.4,5.7-10.7,6.9l10.1-2.6C349.1,154.7,348.3,179.1,337.3,187.8z"/>
		<path class="st3" d="M337.3,187.8c0,0-14.4-14.1-6.2-37.7c4.6-13.2,19.9-23,28.5-23.9c-2.9,3.4-5.2,7.3-6.8,11.4l-10.9,7.3
			l10.1-3.1l-2.1,8.6c0,0-9.4,5.7-10.7,6.9l10.1-2.6C349.1,154.7,348.3,179.1,337.3,187.8z"/>
		<path class="st6" d="M337.3,187.8c0,0-7.5-29.5,3.6-46.7C340.8,141.2,327.9,156.3,337.3,187.8z"/>
		<path class="st8" d="M353.8,191.8l-17.7-0.2h-0.2l-17.6,0.2c0,0-0.2,21.8,6.5,30.6l0,0c1.8,2.4,6.2,4,11.2,4s9.4-1.7,11.3-4
			C354,213.6,353.8,191.8,353.8,191.8z"/>
		<path class="st15" d="M353.8,191.8c0,5.3-7.9,9.5-17.8,9.5s-17.7-4.3-17.7-9.5s7.9-9.5,17.7-9.5S353.8,186.6,353.8,191.8z"/>
		<path class="st7" d="M336,189.3c6.1,0,11.3,2,13.1,4.7c0.5-0.6,0.7-1.4,0.7-2.1c0-3.8-6.2-6.8-13.8-6.8s-13.8,3-13.8,6.8
			c0,0.8,0.3,1.5,0.7,2.1C324.7,191.3,329.9,189.3,336,189.3z"/>
		<path class="st1" d="M336,189.3c-6.1,0-11.3,2-13.1,4.7c1.8,2.7,7,4.7,13.1,4.7c6.1,0,11.3-2,13.1-4.7
			C347.3,191.3,342.1,189.3,336,189.3z"/>
		<path class="st2" d="M336.2,195.2c0,0-6.8-0.3-12.7-9.4c-2.4-3.7-3.6-5.7-3.6-5.7l9.5-0.7l-10.7-2.7l-5-7.7l8.9-0.7
			c0,0-6.6-2.3-11.3-2.3c0,0-8.2-14.5-10.6-16.5c12.5,0.8,24.1,6.5,32.3,16C346.5,181.5,338.2,195.6,336.2,195.2z"/>
		<path class="st6" d="M336.2,195.2c0,0,4.3-25.8-23-41.3C313.2,153.9,341.5,167.5,336.2,195.2z"/>
		<path class="st2" d="M336.2,195.2c0,0,6.2,0.4,12.4-7.2c2.5-3.1,3.8-4.8,3.8-4.8l-8.5-1.5l9.9-1.4l5.3-6.5l-7.9-1.4
			c0,0,6.2-1.5,10.4-1c0,0,8.7-12.3,11.1-13.9c-11.3-0.5-22.4,3.6-30.7,11.4C328.3,181.8,334.4,195.3,336.2,195.2z"/>
		<path class="st4" d="M336.2,195.2c0,0,6.2,0.4,12.4-7.2c2.5-3.1,3.8-4.8,3.8-4.8l-8.5-1.5l9.9-1.4l5.3-6.5l-7.9-1.4
			c0,0,6.2-1.5,10.4-1c0,0,8.7-12.3,11.1-13.9c-11.3-0.5-22.4,3.6-30.7,11.4C328.3,181.8,334.4,195.3,336.2,195.2z"/>
		<path class="st6" d="M336.2,195.2c0,0-1.4-23.7,24.7-35.1C360.9,160.1,334,169.7,336.2,195.2z"/>
	</g>
</g>
</svg>
