<?xml version="1.0" encoding="utf-8"?>
<!-- Generator: Adobe Illustrator 27.1.1, SVG Export Plug-In . SVG Version: 6.00 Build 0)  -->
<svg style="max-width:250px;margin-bottom:30px;" version="1.1" id="Layer_1" xmlns="http://www.w3.org/2000/svg" xmlns:xlink="http://www.w3.org/1999/xlink" x="0px" y="0px"
	 viewBox="0 0 445.7 459.8" style="enable-background:new 0 0 445.7 459.8;" xml:space="preserve">
<style type="text/css">
	.st0{fill:#FAFAFA;}
	.st1{fill:#FFFFFF;}
	.st2{fill:#F0F0F0;}
	.st3{fill:#E0E0E0;}
	.st4{fill:#F5F5F5;}
	.st5{opacity:0.2;fill:var(--cooper-primary);enable-background:new    ;}
	.st6{fill:#37474F;}
	.st7{fill:#455A64;}
	.st8{fill:var(--cooper-primary);}
	.st9{opacity:0.2;enable-background:new    ;}
	.st10{opacity:0.25;fill:#FFFFFF;enable-background:new    ;}
	.st11{opacity:0.4;fill:#FFFFFF;enable-background:new    ;}
	.st12{opacity:0.1;fill:#FFFFFF;enable-background:new    ;}
	.st13{opacity:0.25;enable-background:new    ;}
	.st14{fill:#B16668;}
	.st15{fill:#263238;}
	.st16{fill:#EBEBEB;}
	.st17{fill:#9A4A4D;}
	.st18{opacity:0.4;}
	.st19{fill:#FFA8A7;}
</style>
<g>
	<g id="freepik--Floor--inject-7">
		<path id="freepik--floor--inject-7" class="st0" d="M63.1,247.3c-84.2,48.6-84.2,127.4,0,176s220.6,48.6,304.8,0s84.2-127.4,0-176
			S147.3,198.7,63.1,247.3z"/>
	</g>
	<g id="freepik--Pictures--inject-7">
		<g id="freepik--Picture--inject-7">
			<g id="freepik--Frame--inject-7">
				<polygon class="st0" points="7.9,88.2 9.9,89.4 51,65.5 49,64.3 				"/>
				<polygon class="st1" points="49,64.3 9.9,87 9.8,46 48.9,23.4 				"/>
				<path class="st2" d="M54.7,15.6L6,43.8l0.1,52.1l48.7-28.2L54.7,15.6z M51,65.5L9.9,89.4L9.8,46l41.1-23.8L51,65.5z"/>
				<polygon class="st3" points="51,65.5 49,64.3 48.9,23.4 50.9,22.2 				"/>
				<polygon class="st0" points="54.7,15.6 52.6,14.5 4,42.7 6,43.8 				"/>
				<polygon class="st3" points="4,42.7 6,43.8 6.1,95.9 4.1,94.8 				"/>
			</g>
			<g id="freepik--Land--inject-7">
				<polygon class="st2" points="47.5,63.1 11.4,84 11.4,73.6 20.4,52.8 26,58 24,66.7 36.4,40 47.4,52.7 				"/>
				<path class="st2" d="M25.6,42.7c-1.6,1-2.6,2.8-2.7,4.6c0,1.7,1.2,2.4,2.7,1.5c1.6-1,2.6-2.8,2.7-4.6
					C28.3,42.5,27.1,41.8,25.6,42.7z"/>
			</g>
		</g>
		<g id="freepik--picture--inject-7">
			<g id="freepik--frame--inject-7">
				<polygon class="st0" points="7.9,159.4 9.9,160.5 51,136.7 49,135.5 				"/>
				<polygon class="st1" points="49,135.5 9.9,158.2 9.8,117.2 48.9,94.6 				"/>
				<path class="st2" d="M54.7,86.8L6,115l0.1,52.1l48.7-28.2L54.7,86.8z M51,136.7L9.9,160.6l-0.1-43.4l41.1-23.8L51,136.7z"/>
				<polygon class="st3" points="51,136.7 49,135.5 48.9,94.6 50.9,93.4 				"/>
				<polygon class="st0" points="54.7,86.8 52.6,85.7 4,113.9 6,115 				"/>
				<polygon class="st3" points="4,113.9 6,115 6.1,167.1 4.1,165.9 				"/>
			</g>
			<g id="freepik--land--inject-7">
				<polygon class="st2" points="47.5,134.3 11.4,155.2 11.4,144.8 20.4,123.9 26,129.1 24,137.9 36.4,111.2 47.4,123.9 				"/>
				<path class="st2" d="M25.6,113.9c-1.6,1-2.6,2.7-2.7,4.6c0,1.7,1.2,2.4,2.7,1.5c1.6-1,2.6-2.7,2.7-4.6
					C28.3,113.7,27.1,113,25.6,113.9z"/>
			</g>
		</g>
	</g>
	<g id="freepik--Window--inject-7">
		<g id="freepik--window--inject-7_00000027584992894781706330000006725357832014117272_">
			<g id="freepik--window--inject-7">
				<g id="freepik--frame--inject-7_00000099644724115538746280000010930836525690555780_">
					<polygon class="st0" points="440.8,234.5 438.2,236.1 353.3,187.1 355.9,185.5 					"/>
					<polygon class="st1" points="355.9,185.5 438.2,233.1 438.2,61.1 355.9,13.6 					"/>
					<path class="st4" d="M348.5,189.9l94.6,54.6V58.3L348.5,3.7V189.9z M353.3,12.1l84.9,49v175l-84.9-49L353.3,12.1z"/>
					<polygon class="st3" points="353.3,187.1 355.9,185.5 355.9,13.6 353.3,12.1 					"/>
					<polygon class="st0" points="438.2,172.9 438.2,175.9 353.3,126.9 355.9,125.4 					"/>
					<polygon class="st0" points="438.2,112.7 438.2,115.7 353.3,66.7 355.9,65.2 					"/>
					<polygon class="st0" points="348.5,3.7 351.1,2.2 445.7,56.8 443.1,58.3 					"/>
					<polygon class="st3" points="445.7,56.8 443.1,58.3 443.1,244.5 445.7,243 					"/>
					<polygon class="st3" points="400.8,39.5 398.2,38 398.2,213 400.8,211.5 					"/>
				</g>
				<polygon class="st4" points="393.3,35.2 398.2,38 398.2,213 393.3,210.2 				"/>
				<polygon class="st4" points="348.5,63.9 348.5,69.5 443.1,124.1 443.1,118.5 				"/>
				<polygon class="st4" points="348.5,124.1 348.5,129.7 443.1,184.3 443.1,178.7 				"/>
				<polygon class="st0" points="398.2,92.6 400.8,91.1 438.2,112.7 438.2,115.7 				"/>
				<polygon class="st0" points="398.2,152.8 400.8,151.3 438.2,172.9 438.2,175.9 				"/>
			</g>
		</g>
	</g>
	<g id="freepik--Sunburst--inject-7">
		<path id="freepik--Sparkles--inject-7" class="st5" d="M330.8,185.7c9.6-0.2,19.3-0.3,28.9-0.5l14.5-0.3c4.8-0.1,9.6-0.3,14.5-0.4
			v-0.2c-4.8-0.2-9.6-0.3-14.5-0.4l-14.5-0.3c-9.6-0.2-19.3-0.3-28.9-0.5s-19.3-0.3-28.9-0.3c-3,0-6.1,0-9.1,0l9-1.6
			c9.5-1.7,19-3.6,28.5-5.4s19-3.6,28.4-5.5l14.2-2.9c4.7-1,9.5-1.9,14.2-3V164c-4.8,0.7-9.5,1.4-14.3,2.1l-14.3,2.2
			c-9.5,1.5-19.1,3-28.6,4.5s-19,3.1-28.6,4.7c-3,0.5-6,1-9,1.6l8.6-3.1c9-3.3,18.1-6.8,27.1-10.2s18-6.9,27-10.4l13.4-5.2
			c4.5-1.8,9-3.5,13.5-5.4l-0.1-0.2c-4.6,1.5-9.2,3-13.8,4.5l-13.7,4.6c-9.1,3.1-18.2,6.3-27.4,9.4s-18.2,6.3-27.3,9.6l-8.6,3.2
			c2.7-1.5,5.3-3.1,8-4.6c8.3-4.9,16.6-9.8,24.9-14.8s16.6-9.9,24.8-14.9l12.4-7.5c4.1-2.5,8.2-5.1,12.3-7.6l-0.1-0.2
			c-4.3,2.3-8.5,4.6-12.8,6.9l-12.7,6.9c-8.5,4.6-16.9,9.4-25.3,14s-16.9,9.4-25.2,14.2c-2.7,1.5-5.3,3.1-8,4.6
			c2.4-2,4.7-3.9,7.1-5.9c7.4-6.2,14.6-12.6,22-18.9s14.6-12.6,21.8-19l10.9-9.6c3.6-3.2,7.2-6.4,10.8-9.6l-0.1-0.2
			c-3.8,3-7.6,6-11.4,9l-11.3,9c-7.5,6-15,12.1-22.5,18.2s-15,12.2-22.4,18.4c-2.3,2-4.7,4-7,5.9c2-2.3,4-4.7,5.9-7
			c6.2-7.4,12.2-14.9,18.4-22.4s12.2-15,18.2-22.5l9-11.3c3-3.8,6-7.6,9-11.4l-0.2-0.1c-3.2,3.6-6.4,7.2-9.6,10.8l-9.6,10.8
			c-6.4,7.2-12.7,14.6-19,21.8s-12.6,14.6-18.9,21.9c-2,2.3-4,4.7-5.9,7.1c1.5-2.7,3.1-5.3,4.6-8c4.8-8.4,9.5-16.8,14.2-25.2
			s9.4-16.9,14-25.3l6.9-12.7c2.3-4.2,4.6-8.5,6.9-12.8l-0.2-0.1c-2.6,4.1-5.1,8.2-7.6,12.3l-7.5,12.4c-5,8.2-9.9,16.5-14.9,24.8
			s-9.9,16.6-14.8,24.9c-1.5,2.7-3.1,5.3-4.6,8c1.1-2.9,2.1-5.8,3.2-8.6c3.3-9.1,6.4-18.2,9.6-27.3s6.3-18.2,9.4-27.4l4.6-13.7
			c1.5-4.6,3-9.2,4.5-13.8l-0.2-0.1c-1.8,4.5-3.6,9-5.4,13.4l-5.3,13.5c-3.5,9-6.9,18-10.4,27s-6.9,18-10.2,27.1
			c-1,2.9-2.1,5.7-3.1,8.6c0.5-3,1.1-6,1.6-9c1.6-9.5,3.1-19,4.7-28.6s3.1-19.1,4.5-28.6l2.2-14.3c0.7-4.8,1.4-9.6,2.1-14.3h-0.2
			c-1,4.7-2,9.4-3,14.2l-2.9,14.2c-1.9,9.5-3.7,18.9-5.5,28.4s-3.6,19-5.4,28.4c-0.5,3-1.1,6-1.6,9c0-3,0-6.1,0-9.1
			c0-9.6-0.2-19.3-0.3-28.9s-0.3-19.3-0.5-28.9L273.6,83c-0.1-4.8-0.3-9.7-0.4-14.5h-0.2c-0.2,4.8-0.3,9.7-0.4,14.5l-0.3,14.5
			c-0.2,9.6-0.3,19.3-0.5,28.9s-0.3,19.3-0.3,28.9c0,3,0,6.1,0,9.1c-0.5-3-1-6-1.6-9c-1.7-9.5-3.5-19-5.4-28.4s-3.6-18.9-5.5-28.4
			L256,84.4c-1-4.7-1.9-9.5-3-14.2h-0.2c0.7,4.8,1.4,9.6,2.1,14.3l2.2,14.3c1.5,9.5,3,19.1,4.5,28.6s3.1,19,4.7,28.6
			c0.5,3,1,6,1.6,9c-1-2.9-2.1-5.7-3.1-8.6c-3.3-9.1-6.8-18.1-10.2-27.1c-3.4-9-6.9-18-10.4-27l-5.3-13.5c-1.8-4.5-3.5-9-5.4-13.4
			l-0.2,0.1c1.5,4.6,3,9.2,4.5,13.8l4.6,13.7c3.1,9.1,6.3,18.2,9.4,27.4s6.3,18.2,9.6,27.3c1.1,2.9,2.1,5.8,3.2,8.6
			c-1.5-2.7-3.1-5.3-4.6-8c-4.9-8.3-9.8-16.6-14.8-24.9s-9.9-16.6-14.9-24.8l-7.5-12.4c-2.5-4.1-5.1-8.2-7.6-12.3L215,84
			c2.3,4.3,4.6,8.5,6.9,12.8l6.9,12.7c4.6,8.5,9.4,16.9,14,25.3s9.4,16.9,14.2,25.2c1.5,2.7,3.1,5.3,4.6,8c-2-2.4-3.9-4.7-5.9-7.1
			c-6.2-7.4-12.6-14.6-18.9-21.9s-12.6-14.6-19-21.8l-9.6-10.9c-3.2-3.6-6.4-7.2-9.6-10.8l-0.2,0.1c3,3.8,6,7.6,9,11.4l9,11.3
			c6,7.5,12.1,15,18.2,22.5s12.2,15,18.4,22.4c2,2.3,4,4.7,5.9,7c-2.3-2-4.7-4-7-5.9c-7.4-6.2-14.9-12.2-22.4-18.4
			s-15-12.2-22.5-18.2l-11.3-9c-3.8-3-7.6-6-11.4-9l-0.1,0.2c3.6,3.2,7.2,6.4,10.8,9.6l10.8,9.7c7.2,6.4,14.6,12.7,21.8,19
			c7.3,6.3,14.6,12.6,22,18.9c2.4,2,4.7,4,7.1,5.9c-2.7-1.5-5.3-3.1-8-4.6c-8.4-4.8-16.8-9.5-25.2-14.2s-16.9-9.4-25.3-14l-12.6-7
			c-4.2-2.3-8.5-4.6-12.8-6.9l-0.1,0.2c4.1,2.6,8.2,5.1,12.3,7.6l12.4,7.5c8.2,5,16.5,9.9,24.8,14.9s16.6,9.9,24.9,14.8
			c2.7,1.5,5.3,3.1,8,4.6l-8.6-3.2c-9.1-3.3-18.2-6.4-27.3-9.6s-18.2-6.3-27.4-9.4l-13.7-4.6c-4.6-1.5-9.1-3.1-13.8-4.5l-0.1,0.2
			c4.5,1.8,9,3.6,13.4,5.4l13.5,5.3c9,3.5,18,6.9,27,10.4s18,6.9,27.1,10.2l8.6,3.1c-3-0.6-6-1.1-9-1.6c-9.5-1.6-19-3.1-28.6-4.7
			s-19.1-3.1-28.6-4.5l-14.4-2.2c-4.8-0.7-9.6-1.4-14.3-2.1v0.2c4.7,1,9.4,2,14.2,3l14.2,2.9c9.5,1.9,18.9,3.7,28.4,5.5
			s19,3.6,28.5,5.4l9,1.6c-3,0-6.1,0-9.1,0c-9.6,0-19.3,0.2-28.9,0.3s-19.3,0.3-28.9,0.5l-14.5,0.3c-4.8,0.1-9.6,0.3-14.5,0.4v0.2
			c4.8,0.2,9.6,0.3,14.5,0.4l14.5,0.3c9.6,0.2,19.3,0.3,28.9,0.5s19.3,0.3,28.9,0.3h9.1c-3,0.5-6,1-9,1.6c-9.5,1.7-19,3.5-28.4,5.4
			s-18.9,3.6-28.4,5.5l-14.2,2.9c-4.7,1-9.5,1.9-14.2,2.9v0.2c4.8-0.7,9.6-1.4,14.3-2.1l14.3-2.2c9.5-1.5,19.1-3,28.6-4.5
			c9.5-1.5,19-3.1,28.6-4.7c3-0.5,6-1.1,9-1.6c-2.9,1-5.7,2.1-8.6,3.1c-9,3.3-18.1,6.8-27.1,10.2s-18,6.9-27,10.4l-13.5,5.2
			c-4.5,1.8-9,3.6-13.4,5.4l0.1,0.2c4.6-1.5,9.2-3,13.8-4.5l13.7-4.6c9.1-3.1,18.2-6.3,27.4-9.4s18.2-6.3,27.3-9.6l8.6-3.1
			c-2.7,1.5-5.3,3.1-8,4.6c-8.3,4.9-16.6,9.8-24.9,14.8s-16.6,9.9-24.8,14.9l-12.4,7.5c-4.1,2.5-8.2,5-12.3,7.6l0.1,0.2
			c4.3-2.3,8.5-4.6,12.8-6.9l12.7-7c8.5-4.6,16.9-9.4,25.3-14c8.4-4.6,16.9-9.4,25.2-14.2l8-4.6c-2.4,2-4.7,3.9-7.1,5.9
			c-7.4,6.2-14.6,12.6-22,18.9s-14.6,12.6-21.8,19L195,249c-3.6,3.2-7.2,6.4-10.8,9.6l0.1,0.2c3.8-3,7.6-6,11.4-9l11.3-9
			c7.5-6,15-12.1,22.5-18.2c7.5-6.1,15-12.2,22.4-18.4c2.3-2,4.7-4,7-5.9c-2,2.3-3.9,4.7-5.9,7c-6.2,7.4-12.2,14.9-18.4,22.4
			c-6.1,7.5-12.2,15-18.2,22.5l-9,11.3c-3,3.8-6,7.6-9,11.4l0.2,0.1c3.2-3.6,6.4-7.2,9.6-10.8l9.6-10.9c6.4-7.2,12.7-14.6,19-21.8
			s12.6-14.6,18.9-21.9c2-2.3,4-4.7,5.9-7.1c-1.5,2.7-3.1,5.3-4.6,8c-4.8,8.4-9.5,16.8-14.2,25.2s-9.4,16.9-14,25.3l-6.9,12.7
			c-2.3,4.2-4.6,8.5-6.9,12.8l0.2,0.1c2.6-4.1,5.1-8.2,7.6-12.3l7.5-12.4c5-8.2,9.9-16.5,14.9-24.8s9.9-16.6,14.8-24.9
			c1.5-2.7,3.1-5.3,4.6-8c-1.1,2.9-2.1,5.8-3.2,8.6c-3.3,9.1-6.4,18.2-9.6,27.3s-6.3,18.2-9.4,27.4l-4.6,13.7
			c-1.5,4.6-3,9.1-4.5,13.8l0.2,0.1c1.8-4.5,3.6-9,5.4-13.4l5.3-13.4c3.5-9,6.9-18,10.4-27c3.5-9,6.9-18,10.2-27.1
			c1-2.9,2.1-5.7,3.1-8.6c-0.5,3-1.1,6-1.6,9c-1.6,9.5-3.1,19-4.7,28.6s-3.1,19-4.5,28.6l-2.2,14.3c-0.7,4.8-1.4,9.5-2.1,14.3h0.2
			c1-4.7,2-9.5,3-14.2l2.8-14.2c1.9-9.5,3.7-18.9,5.5-28.4s3.6-19,5.4-28.4c0.5-3,1.1-6,1.6-9c0,3,0,6.1,0,9.1
			c0,9.6,0.2,19.3,0.3,28.9s0.3,19.3,0.5,28.9l0.3,14.5c0.1,4.8,0.3,9.6,0.4,14.5h0.2c0.2-4.8,0.3-9.6,0.4-14.5l0.3-14.5
			c0.2-9.6,0.3-19.3,0.5-28.9s0.3-19.3,0.3-28.9c0-3,0-6.1,0-9.1c0.5,3,1,6,1.6,9c1.7,9.5,3.5,19,5.4,28.5s3.6,18.9,5.5,28.4
			l2.8,14.3c1,4.7,1.9,9.5,3,14.2h0.2c-0.7-4.8-1.4-9.5-2.1-14.3l-2.2-14.3c-1.5-9.5-3-19.1-4.5-28.6s-3.1-19.1-4.7-28.6
			c-0.5-3-1-6-1.6-9c1,2.9,2.1,5.7,3.1,8.6c3.3,8.9,6.7,18,10.2,27s6.9,18,10.4,27l5.3,13.5c1.8,4.5,3.5,9,5.4,13.4l0.2-0.1
			c-1.5-4.6-3-9.2-4.5-13.8l-4.6-13.7c-3.1-9.1-6.3-18.2-9.4-27.4s-6.3-18.2-9.6-27.3c-1-2.9-2.1-5.8-3.2-8.6c1.5,2.7,3.1,5.3,4.6,8
			c4.9,8.3,9.8,16.6,14.8,24.9s9.9,16.6,14.9,24.8l7.5,12.4c2.5,4.1,5,8.2,7.6,12.3l0.2-0.1c-2.3-4.3-4.6-8.5-6.9-12.8l-6.9-12.7
			c-4.6-8.5-9.4-16.9-14-25.3s-9.4-16.9-14.2-25.2c-1.5-2.7-3.1-5.3-4.6-8c2,2.4,3.9,4.7,5.9,7.1c6.2,7.4,12.6,14.6,18.9,21.9
			c6.3,7.3,12.6,14.6,19,21.8l9.6,10.9c3.2,3.6,6.4,7.2,9.6,10.8l0.2-0.1c-3-3.8-6-7.6-9-11.4l-9-11.3c-6-7.5-12.1-15-18.2-22.5
			s-12.2-15-18.4-22.4c-2-2.3-3.9-4.7-5.9-7c2.3,2,4.7,4,7,5.9c7.4,6.2,14.9,12.2,22.4,18.4s15.2,12.2,22.7,18.2l11.1,9
			c3.8,3,7.6,6,11.4,9l0.1-0.2c-3.6-3.2-7.2-6.4-10.8-9.6l-10.9-9.6c-7.2-6.4-14.6-12.7-21.8-19s-14.6-12.6-22-18.9
			c-2.3-2-4.7-4-7.1-5.9l8,4.6c8.4,4.8,16.8,9.5,25.2,14.2s16.9,9.4,25.3,14l12.7,7c4.2,2.3,8.5,4.6,12.8,6.9l0.1-0.2
			c-4.1-2.6-8.2-5.1-12.3-7.6l-12.4-7.5c-8.2-5-16.5-9.9-24.8-14.9s-16.6-9.9-24.9-14.8c-2.7-1.5-5.3-3.1-8-4.6l8.6,3.1
			c9.1,3.3,18.2,6.4,27.3,9.6s18.2,6.3,27.4,9.4l13.7,4.6c4.6,1.5,9.1,3.1,13.8,4.5l0.1-0.2c-4.5-1.8-9-3.6-13.5-5.4l-13.5-5.3
			c-9-3.5-18-6.9-27-10.4s-18-6.9-27.1-10.2c-2.9-1.1-5.7-2.1-8.6-3.1c3,0.5,6,1.1,9,1.6c9.5,1.6,19,3.1,28.6,4.7s19,3.1,28.6,4.5
			l14.3,2.2c4.8,0.7,9.5,1.4,14.3,2.1v-0.2c-4.7-1-9.5-2-14.2-2.9l-14.2-2.9c-9.5-1.9-18.9-3.7-28.4-5.5s-19-3.6-28.5-5.4
			c-3-0.5-6-1.1-9-1.6h9.1C311.6,186,321.2,185.8,330.8,185.7z"/>
	</g>
	<g id="freepik--Table--inject-7">
		<g id="freepik--table--inject-7_00000158018243416128947160000008493139274600188831_">
			<g id="freepik--table--inject-7">
				<path class="st6" d="M296,375.1c-12.7-7.3-33.3-7.3-46,0c-6.4,3.7-9.5,8.5-9.5,13.3c0,0.5,0,3.5,0,4c0.1,4.7,3.3,9.4,9.5,13
					c12.7,7.3,33.3,7.3,46,0c6.3-3.6,9.4-8.4,9.5-13.1c0-0.5,0-3.5,0-4.1C305.4,383.5,302.3,378.7,296,375.1z"/>
				<path class="st7" d="M250,401.6c-12.7-7.3-12.7-19.2,0-26.5c12.7-7.3,33.3-7.3,46,0s12.7,19.2,0,26.5S262.7,409,250,401.6z"/>
				<path class="st6" d="M275.7,389L275.7,389V219.1h-5.5V389l0,0c0,0.5,0.3,1.1,0.8,1.3c1.2,0.6,2.7,0.6,3.9,0
					C275.4,390,275.8,389.5,275.7,389z"/>
				<path class="st8" d="M222.6,198.7c27.9-16.1,73.1-16.1,101,0c13.9,8,20.9,22.5,20.9,33.1v2c0,10.5-7,21.1-20.9,29.2
					c-27.9,16.1-73.1,16.1-101,0c-13.9-8-20.9-18.6-20.9-29.2v-2C201.6,221.3,208.6,206.8,222.6,198.7z"/>
				<path class="st9" d="M222.6,198.7c27.9-16.1,73.1-16.1,101,0c13.9,8,20.9,22.5,20.9,33.1v2c0,10.5-7,21.1-20.9,29.2
					c-27.9,16.1-73.1,16.1-101,0c-13.9-8-20.9-18.6-20.9-29.2v-2C201.6,221.3,208.6,206.8,222.6,198.7z"/>
				<path class="st6" d="M222.4,193.4c27.9-16.1,73.1-16.1,101,0c13.9,8.1,20.9,18.6,20.9,29.2v3.5c0,10.6-7,25-20.9,33.1
					c-27.9,16.1-73.1,16.1-101,0c-14-8.1-20.9-23.9-20.9-34.6v-2.1C201.6,212,208.5,201.4,222.4,193.4z"/>
				<path class="st7" d="M323.4,251.7c27.9-16.1,27.9-42.2,0-58.3s-73.1-16.1-101,0s-27.9,42.2,0,58.3S295.6,267.8,323.4,251.7z"/>
			</g>
		</g>
	</g>
	<g id="freepik--mistery-box--inject-7">
		<g id="freepik--mister-box--inject-7">
			<polygon class="st6" points="273,179.1 204.7,218.5 273,258 341.3,218.5 			"/>
			<g id="freepik--box--inject-7_00000057869975663605210680000012698841227109426571_">
				<g id="freepik--box--inject-7_00000152265773193064711010000012387224055179689353_">
					<g id="freepik--box--inject-7">
						<g id="freepik--front-box--inject-7">
							<polygon class="st8" points="214.8,151.3 214.8,218.5 273,252.1 273,184.9 							"/>
							<polygon class="st8" points="273,184.9 273,252.1 331.2,218.5 331.2,151.3 							"/>
							<polygon class="st10" points="273,184.9 273,252.1 331.2,218.5 331.2,151.3 							"/>
							<polygon class="st11" points="273,184.9 273.9,250.5 307.5,232.2 273,252.1 							"/>
						</g>
					</g>
					<polygon class="st8" points="273,117.7 214.8,151.3 273,184.9 331.2,151.3 					"/>
					<polygon class="st11" points="273,117.7 214.8,151.3 273,184.9 331.2,151.3 					"/>
					<polygon class="st12" points="214.8,151.3 272.8,183.2 331.2,151.3 273,184.9 					"/>
					<polygon class="st8" points="239.7,136.9 297.9,170.5 306.2,165.7 248,132.1 					"/>
					<polygon class="st8" points="306.2,165.7 306.2,176.3 305.2,175.7 304.2,177.5 303.1,176.9 302.1,178.7 301.1,178.1 300,179.9 
						299,179.3 297.9,181.1 297.9,170.5 					"/>
					<polygon class="st13" points="306.2,165.7 306.2,176.3 305.2,175.7 304.2,177.5 303.1,176.9 302.1,178.7 301.1,178.1 
						300,179.9 299,179.3 297.9,181.1 297.9,170.5 					"/>
				</g>
			</g>
			<path class="st1" d="M292.6,194.3c0.6-1,1.2-2,1.9-2.9c0.7-1,1.4-1.9,2.1-2.7c0.8-0.9,1.6-1.7,2.5-2.4c0.9-0.8,1.9-1.4,2.9-2
				c1.2-0.7,2.5-1.2,3.9-1.5c1-0.2,2.1,0,3,0.5c0.9,0.6,1.6,1.4,1.9,2.4c0.5,1.3,0.7,2.7,0.7,4.2c0,1.5-0.2,3-0.5,4.5
				c-0.3,1.3-0.8,2.6-1.3,3.8c-0.5,1.1-1.1,2.2-1.7,3.2l-1.8,2.8c-0.6,0.9-1,1.7-1.5,2.5c-0.4,0.7-0.6,1.4-0.8,2.2l-0.6,4.9
				l-4.5,2.6l-0.5-4.9c-0.1-0.9,0-1.9,0.3-2.8c0.3-1,0.7-1.9,1.2-2.8c0.5-0.9,1.1-1.9,1.7-2.8s1.2-1.9,1.8-2.9c0.5-1,1-2,1.4-3.1
				c0.4-1.1,0.6-2.2,0.6-3.3c0-1.4-0.4-2.3-1.1-2.7s-1.7-0.3-2.9,0.4c-0.8,0.5-1.5,1-2.2,1.7c-0.5,0.5-1.1,1.1-1.5,1.7
				c-0.4,0.6-0.8,1-1.1,1.5c-0.2,0.3-0.5,0.6-0.9,0.9c-0.6,0.4-1.1,0.3-1.4-0.3L292.6,194.3z M297.1,225.9c0-0.7,0.1-1.5,0.3-2.2
				c0.2-0.7,0.5-1.4,0.8-2.1c0.3-0.6,0.8-1.2,1.2-1.8c0.4-0.5,1-0.9,1.5-1.3c0.5-0.3,1-0.4,1.5-0.5c0.4,0,0.9,0.1,1.2,0.4
				c0.4,0.3,0.7,0.7,0.8,1.1c0.2,0.6,0.3,1.2,0.3,1.8c0,0.7-0.1,1.5-0.3,2.2c-0.2,0.7-0.5,1.4-0.8,2.1c-0.3,0.6-0.8,1.2-1.2,1.8
				c-0.4,0.5-0.9,0.9-1.5,1.3c-0.5,0.3-1,0.5-1.5,0.5c-0.4,0-0.9-0.1-1.2-0.4c-0.4-0.3-0.7-0.7-0.8-1.1
				C297.2,227.1,297.1,226.5,297.1,225.9z"/>
			<path class="st1" d="M234.4,183.4c0.6-0.3,1.2-0.6,1.9-0.8c0.7-0.2,1.4-0.3,2.1-0.3c0.9,0,1.7,0.2,2.5,0.4c1,0.3,2,0.8,2.9,1.3
				c1.4,0.8,2.7,1.8,3.9,3c1.2,1.2,2.2,2.5,3,3.9c0.8,1.4,1.5,3,1.9,4.6c0.4,1.6,0.7,3.3,0.7,4.9c0,1.3-0.1,2.6-0.5,3.9
				c-0.3,0.9-0.7,1.6-1.3,2.3c-0.5,0.5-1.1,1-1.7,1.3c-0.6,0.3-1.2,0.5-1.8,0.8c-0.5,0.2-1,0.5-1.4,0.8c-0.4,0.3-0.7,0.8-0.8,1.4
				l-0.6,4.2l-4.5-2.6l-0.5-5.4c-0.1-0.8,0-1.7,0.3-2.5c0.3-0.6,0.7-1,1.2-1.4c0.5-0.3,1.1-0.6,1.7-0.8c0.6-0.2,1.2-0.5,1.8-0.9
				c0.6-0.4,1-0.9,1.4-1.5c0.4-0.8,0.6-1.7,0.6-2.7c0-1.4-0.4-2.8-1.1-4c-0.7-1.2-1.7-2.2-2.9-2.9c-0.7-0.4-1.4-0.7-2.2-0.9
				c-0.5-0.1-1-0.1-1.5,0c-0.4,0-0.7,0.1-1.1,0.2c-0.3,0.1-0.6,0-0.9-0.1c-0.7-0.4-1.1-1.1-1.4-1.8L234.4,183.4z M238.9,220.1
				c0-0.6,0.1-1.2,0.3-1.8c0.2-0.5,0.4-0.8,0.8-1.1c0.4-0.3,0.8-0.4,1.2-0.4c0.5,0,1.1,0.2,1.5,0.5c0.6,0.3,1.1,0.8,1.5,1.3
				c0.5,0.5,0.9,1.1,1.2,1.8c0.4,0.7,0.6,1.4,0.8,2.1c0.2,0.7,0.3,1.4,0.3,2.2c0,0.6-0.1,1.2-0.3,1.8c-0.2,0.5-0.4,0.8-0.8,1.1
				c-0.4,0.3-0.8,0.4-1.2,0.3c-0.5,0-1.1-0.2-1.5-0.5c-0.6-0.3-1.1-0.8-1.5-1.3c-0.5-0.5-0.9-1.1-1.2-1.8c-0.4-0.7-0.6-1.4-0.8-2.1
				C239,221.6,238.9,220.8,238.9,220.1z"/>
		</g>
	</g>
	<g id="freepik--Character--inject-7">
		<g id="freepik--character--inject-7">
			<g id="freepik--Bottom--inject-7">
				<path class="st14" d="M81.7,293.4c-1.1,20.8,0.2,34.7-1.2,48.9c-0.3,3-3.3,24.9-2.8,31.1c0.7,9.4,14.5,9.5,16,4.1
					c1.5-5.5,6.6-30.3,6.5-33.7c4-15.9,13.7-49.8,13.7-49.8L81.7,293.4z"/>
				<path class="st14" d="M173.6,342.6c-2.4-2.8-4.4-6.2-4.3-13.1c0.2-7.1,0.8-19.2,1.4-29.9l-28.7-0.5c2.9,15.5,4.9,26.9,5.9,31.9
					c0,0.1,0,1.5-0.1,2.3c-0.3,5.9,8.5,8.3,13.7,12.5c4.4,3.7,9.2,7,14.2,9.9c3.9,2.1,11.9,2.7,13,0.4
					C182.4,351,178.5,348.4,173.6,342.6z"/>
				<path class="st15" d="M199.6,363.3c0.3,0,0.6,3.6-1.3,5c-2.2,1.6-8.7,4.1-16.9,2.7s-12.6-4.1-15.7-6.9s-7.6-6.8-11.3-7.7
					c-3.4-0.9-7.9-2.9-9-4s-0.6-5.6-0.6-5.6L199.6,363.3z"/>
				<path class="st6" d="M147.6,329.9c0,0-0.6-0.1-0.9,0.9c-0.3,1.2,0.8,4.1-0.5,7.1c-1.2,2.7-2,7.6-1.4,10.5
					c0.5,2.3,6.7,4.5,10.2,6c4.1,2,7.9,4.5,11.3,7.6c3.7,3.2,11.7,6.7,17.1,7.1c8.2,0.6,13.7-1.3,15.5-4c1.5-2.2,1-4.4-0.7-6.3
					c-1.5-1.5-3.2-2.7-5-3.7c-2.4-1.4-4.9-2.7-7.2-4.2c-3.1-2-6.1-4.1-9.1-6.2c-1.2-0.8-2.2-1.7-3.2-2.8c-1.9-2.4-2.3-5.6-3-8.5
					c-0.1-0.4-0.2-0.8-0.5-1.2c-0.5-0.5-1.2-0.7-1.9-0.8c-2.4-0.2-4.9-0.1-7.3,0.3c-1.9,0.3-3.9,1-4.7,2.6s0,3.4-0.6,4.9
					c-0.1,0.3-0.3,0.5-0.6,0.6c-0.9,0.1-1.4-2.5-1.8-3.2c-0.8-1.3-1.4-2.8-2.7-3.8c-0.8-0.4-1.6-0.9-2.4-1.4
					C147.9,331.1,147.7,330.5,147.6,329.9z"/>
				<path class="st0" d="M190.8,353.5c-12,0.4-15,8.5-15.9,13.6c2.7,1.2,5.6,1.9,8.5,2.1c8.2,0.5,14.1-1.7,16-4.9
					C201.6,360.5,199,357.5,190.8,353.5z"/>
				<path class="st2" d="M175.4,354c-0.1,0-0.3-0.1-0.4-0.1c-0.2-0.2-0.2-0.5,0-0.8c0,0,0,0,0,0c3-2.6,7-3.8,11-3.4
					c0.3,0,0.5,0.3,0.5,0.6c0,0,0,0,0,0c-0.1,0.3-0.4,0.5-0.7,0.5c-3.6-0.4-7.2,0.7-10,3.1C175.8,353.9,175.6,354,175.4,354z"/>
				<path class="st2" d="M170.5,350.9c-0.1,0-0.3-0.1-0.4-0.1c-0.2-0.2-0.2-0.5,0-0.8c0,0,0,0,0,0c3-2.6,7-3.9,11-3.4
					c0.3,0,0.5,0.3,0.5,0.6c0,0,0,0,0,0c-0.1,0.3-0.4,0.5-0.7,0.5c0,0,0,0,0,0c-3.6-0.4-7.2,0.8-10,3.1
					C170.8,350.8,170.6,350.9,170.5,350.9z"/>
				<path class="st2" d="M165.9,347.4c-0.1,0-0.3-0.1-0.4-0.1c-0.2-0.2-0.2-0.5,0-0.7c0,0,0,0,0,0c3-2.6,7-3.8,11-3.4
					c0.3,0,0.5,0.3,0.5,0.6c0,0,0,0,0,0c-0.1,0.3-0.4,0.5-0.7,0.5c0,0,0,0,0,0c-3.6-0.4-7.2,0.8-10,3.1
					C166.2,347.3,166.1,347.4,165.9,347.4z"/>
				<path class="st2" d="M161.5,343.9c-0.1,0-0.3-0.1-0.4-0.1c-0.2-0.2-0.2-0.5,0-0.7c0,0,0,0,0,0c2.5-2.6,7.7-4.1,12-3.4
					c0.3,0,0.5,0.3,0.5,0.6c0,0,0,0,0,0c-0.1,0.3-0.4,0.5-0.7,0.5c0,0,0,0,0,0c-3.9-0.6-8.8,0.8-11,3.1
					C161.8,343.9,161.6,343.9,161.5,343.9z"/>
				<path class="st15" d="M97.7,382.1c-0.5,5.4-1.5,9-3.8,12.2s-6.6,4.1-10.8,3.1s-9.7-3.6-10.8-8.3s-1.8-8-0.7-13L97.7,382.1z"/>
				<path class="st6" d="M80.5,342.3c-1.8,0.1-2.4,7.4-3.6,14.7c-1.2,7.9-4,11-5.1,17.5c-1.3,7.4,0.1,10.7,3,15.2s13.4,9,18.7,2.8
					c4.4-5.1,4.6-10.9,4.4-18.2c-0.3-7.6,1.3-12.6,1.8-18.4c0.4-5.5,2-11.4,0.5-12c-0.1,0.8-0.3,1.8-0.4,2.6c-0.1,1.1-0.4,2.2-1,3.1
					c-0.3,0.4-1.1,0.8-1.2,0.1c-0.1-0.5-0.1-0.9,0-1.4c0.3-2-0.9-2.2-1.5-2.4c-1.4-0.4-6.8-1-8.2-1.1c-1-0.1-2-0.1-3.1-0.1
					c-0.6,0-1.2,0-1.8,0s-1.1,0-1.4,0.5c-0.1,0.2-0.2,0.4-0.2,0.7l-0.3,2.2c0,0.2-0.1,0.5-0.3,0.6c-0.2,0.1-0.4,0.1-0.6-0.1
					c-0.4-0.3-0.2-1.2-0.2-1.7l0.1-1.4C80.2,345,80.4,342.8,80.5,342.3z"/>
				<path class="st0" d="M71.2,378.8c-0.4,4.6,0.8,7.7,3.1,11.2c2.9,4.5,14.2,9.1,19.6,2.8c2.7-3.1,3.4-6.9,3.9-10.7
					C94.7,377.1,76.2,374.7,71.2,378.8z"/>
				<path class="st2" d="M94,374c-0.1,0-0.1,0-0.2-0.1c-0.1,0-8.2-3.1-16.2-1.6c-0.3,0.1-0.7-0.1-0.8-0.4c-0.1-0.3,0.1-0.6,0.5-0.7
					c0,0,0,0,0,0c8.4-1.5,16.7,1.6,17,1.7c0.3,0.1,0.4,0.4,0.3,0.7c0,0,0,0,0,0.1C94.5,373.9,94.3,374.1,94,374z"/>
				<path class="st2" d="M78.2,366.9c-0.2,0-0.4-0.2-0.6-0.4c-0.1-0.3,0.1-0.6,0.4-0.7c0,0,0,0,0.1,0c8-2.2,16.7,1.4,17,1.6
					c0.3,0.1,0.4,0.4,0.3,0.7c0,0,0,0.1-0.1,0.1c-0.2,0.3-0.6,0.4-0.9,0.2c-0.1,0-8.6-3.5-16-1.5C78.3,366.9,78.2,366.9,78.2,366.9z
					"/>
				<path class="st2" d="M78.6,361.7c-0.2,0-0.5-0.2-0.6-0.4c-0.1-0.3,0.1-0.6,0.4-0.7c0,0,0,0,0.1,0c8.8-2.5,17,1.4,17.3,1.5
					c0.3,0.1,0.4,0.4,0.3,0.7c0,0,0,0.1-0.1,0.1c-0.2,0.3-0.6,0.3-0.9,0.2c-0.1,0-8.1-3.8-16.2-1.4
					C78.7,361.7,78.6,361.7,78.6,361.7z"/>
				<path class="st16" d="M79.1,356.6c-0.2,0-0.4-0.2-0.5-0.4c-0.1-0.3,0-0.6,0.3-0.7c0,0,0,0,0.1,0c8.2-2.5,17.1,1.5,17.4,1.7
					c0.3,0.1,0.4,0.4,0.3,0.7c0,0,0,0.1,0,0.1c-0.2,0.3-0.6,0.4-0.9,0.2c-0.1,0-8.7-3.9-16.3-1.6C79.3,356.6,79.2,356.6,79.1,356.6z
					"/>
				<path class="st7" d="M103.1,134c-6.3,10.3-15.6,17.8-16,53.4c-0.5,36.2-0.3,56.5-0.5,60.9s-2.1,11.8-4.8,33.3
					s-1.1,46.7-1.1,46.7s2.1,3.9,10.9,4.8c8,0.8,13.1-1.8,13.1-1.8s11.5-41.7,14.8-54.6s13.4-62.8,13.4-62.8l4.6,34.7
					c0,0-3,12.7,0,31.7s7.8,37.4,7.8,37.4s4,1.2,12.5,1.3c4.2,0,8.4-0.8,12.3-2.5c0,0,5-55.3,5.4-76.7s-0.2-80.2-7.7-105.9
					L103.1,134z"/>
				<path class="st14" d="M121.3,254.7c0,0-3.4-4.8-11.9-5.9s-13,3.2-13,3.2S112.2,250.7,121.3,254.7z M95.4,255.2
					c10.9,2.2,15.9,1.9,20.9,1C116.4,256.2,100.6,254.1,95.4,255.2L95.4,255.2z"/>
				<path class="st14" d="M153.7,245.9c7.2-0.8,14.4-0.9,21.6-0.4c0-0.8,0.1-1.6,0.1-2.3C168,242.3,156.8,244.3,153.7,245.9z"/>
				<path class="st14" d="M175.1,250.7c0-0.7,0.1-1.5,0.1-2.2c-1.7-0.1-9-0.3-16.3,0.1C163.3,249.8,173.2,250.6,175.1,250.7z"/>
				<path class="st6" d="M90.1,261.3c2.4-10,3.8-30.2,4.1-46.8c0.1-5,0.2-10.2,0.3-15.7c0.6-21.6,2.8-45.7,14.7-61.1l0.9,0.6
					c-8,10.4-11.5,24.8-13.1,39.7c11.5-1.2,14.2-11.9,17.9-26.6c0.5-2,1-4.1,1.6-6.2l1.1,0.3c-0.6,2.1-1.1,4.2-1.6,6.2
					c-3.7,14.6-6.6,26.2-19.1,27.4c-0.7,6.6-1,13.2-1.2,19.7c-0.1,5.5-0.2,10.7-0.3,15.7c-0.3,16.6-1.7,36.9-4.1,47
					c-0.3,1.1-0.6,2.3-0.9,3.5c-3.2,12.9-8,32.2-6.4,66c-0.4-0.2-0.8-0.4-1.2-0.7c-1.5-33.5,3.3-52.7,6.5-65.6
					C89.6,263.6,89.8,262.4,90.1,261.3z"/>
				<path class="st6" d="M132.8,214l8-41c0,0,15.2-0.8,23.7-8.9c-1.7,7.1-13.9,12.9-19.4,14l-1.5,7.2c0.2,3.9,0.4,7.9,0.6,12.1
					c1.2,23,2.3,46.8,1.2,52.2c-2.2,10.5-1.3,20.4,0.4,34c1.5,12.2,4,27.4,5.6,35.1l-1.1-0.1c-1.5-7.7-3.6-21.2-5.7-34.9
					s-2.8-23.4-0.2-34.4c1.2-5.2,0-30-1.2-51.9c-0.1-2.7-0.3-5.3-0.4-7.8l-5.4,25.4l0.1,33.6L132.8,214z"/>
			</g>
			<g id="freepik--Top--inject-7">
				<path class="st14" d="M229.9,97.3c-3.5,2.1-4.1,4-7.9,11.7c-4.2,8.5-9.4,13.7-11.9,14.9s-9.2,0-20.4-6
					c-13.6-7.3-27-15.6-27-15.6l-7.3-32.1c2.9,0.5,7.1,0.9,12.4,5c10.9,8.5,35.7,26,35.7,26s2.1-1.8,4.4-3.8s4.5-3.3,4.3-4.8
					L229.9,97.3z"/>
				<path class="st17" d="M203.5,101.2c-3.4,2.8-6,6.3-6.4,10.4c-0.9-3.6,1.3-9.4,4.7-11.6L203.5,101.2z"/>
				<path class="st14" d="M221.1,98.4c-5.8-1.3-8-4.6-9.6-6.7s-3.2-3.8-4.9-4.1s-4.9-0.9-7-2.1c-1.2-0.5-1.7-2-1.2-3.2
					c0.3-0.7,0.9-1.2,1.6-1.4c2.2-0.7,4.1,0.4,6.4,1.1s9.5,1.1,11.7-2.9s2.2-8,2.4-11.5s-0.1-6.6,2.2-7.1c2.3-0.5,2.3,1.8,2.3,4.6
					c0,2.7-0.2,8.3-0.1,9.6s1.1,2.2,1.9,0.9c0.9-2.1,1.5-4.3,1.8-6.5c0.6-3,1.3-6,3.4-5.6s1.7,2.9,1.3,5.2s-1.4,6.8-1.7,8
					s0,2.9,1.4,0.9c1.2-1.7,2.2-3.5,3.1-5.4c0.9-1.7,1.7-3.8,3.6-3s1.8,3,0.8,5.1c-1.2,2.3-2.6,4.4-4.1,6.5
					c-1.1,1.6-2.2,4.4,0.3,2.9s3.4-2.3,4.5-2.8s2.8,0.7,1.6,2.5s-3.9,3.3-4.6,4.4c-0.8,1.2-1.7,2.4-2.7,3.5c-1,1-2,3.6-4.1,5.1
					S226.9,99.8,221.1,98.4z"/>
				<path class="st17" d="M221.9,67c-0.6-1.5-0.1-2.3,0.8-2.3s2.2-0.4,2.2-1.8c0,0.7,0.1,1.4,0.1,2.2c0,2-0.1,5.4-0.1,7.6l0,0
					C224.9,69.5,222.6,68.5,221.9,67z"/>
				<path class="st17" d="M232.2,78.4L232.2,78.4c-0.3,0.2-1.5,0.5-1.6-1.3s-0.1-4.7-0.8-6.3c-0.5-1.1-0.6-2.3-0.2-3.4
					c0.2-0.4,0.5,0.1,1.8,0.3c1.1,0.1,2.1-0.6,2.3-1.7c0,0.9-0.1,1.8-0.3,2.7c-0.4,2.2-1.4,6.8-1.7,8
					C231.5,77.6,231.6,78.7,232.2,78.4z"/>
				<path class="st17" d="M236.1,78.1c0-0.5-1.2-1.5-0.9-1.9s0.9,0,1.2-0.3s0.1-1.9,0.3-2.8s0.6-1,1.4-0.2s2.7,0.2,3-0.5
					c-0.1,0.7-0.3,1.4-0.6,2.1c-1.2,2.3-2.6,4.4-4.1,6.5c-0.7,1.1-1.5,2.7-1.1,3.2l0,0c-0.9-0.5-1.5-2.6-0.8-3.3
					S236.2,78.5,236.1,78.1z"/>
				<path class="st17" d="M201.7,86.4c3.3,0.9,5.4-0.2,7.7,1s5.4,4.4,9.2,6.8s8,2.8,9.8,2.1s6.5-4.6,4.4-6.3s-5-4.5-5.7-6.6
					c2,2.8,5.7,5.9,7,6.3c0.9,0.4,1.9,0,2.2-0.9c0.1-0.1,0.1-0.3,0.1-0.4c0-0.8-0.8-1.7-0.5-1.9s1,0.1,1.5-0.1s1.9-1.3,1.9-2.2
					s0.4-1.8,1-1.3s1.6,1.3,2.4,0.9c-1.3,1.6-3.6,3-4.3,4c-0.8,1.2-1.7,2.4-2.7,3.4c-1,1-2,3.6-4.1,5.1s-4.5,3.5-10.3,2.1
					s-8-4.6-9.6-6.7s-3.2-3.8-4.9-4.1C204.9,87.3,203.3,86.9,201.7,86.4z"/>
				<path class="st17" d="M218.9,83.5c0.4,0.2,0.8,0.5,1.1,0.8c0.4,0.3,0.7,0.7,1.1,1.1c0.7,0.8,1.3,1.7,1.8,2.6
					c1,1.8,1.7,3.8,1.9,5.9c0.1,1.2,0.1,2.4-0.2,3.6c-0.1,0.4-0.8,0.2-0.8-0.2c0.5-2.6,0.1-5.3-1-7.7c-0.5-1.1-1.1-2.1-1.8-3.1
					c-0.3-0.5-0.7-0.9-1-1.4c-0.4-0.4-0.8-0.9-1.2-1.4C218.9,83.7,218.8,83.5,218.9,83.5z"/>
				<path class="st8" d="M91.6,154c3.9-12.2,12.4-20.6,11.8-26.6c-0.9-9.1-7.7-21.3-7.9-27.6c-0.6-22.4,5.8-26.4,12-28.1
					s19.4-4.1,19.4-4.1c3.8-0.1,18.8,0.7,18.8,0.7l9.8,2c5.2,4,9.8,8.8,13.7,14.1c7.1,9.6,9.6,24.9-1.1,33.1
					c-0.3,2.9-0.5,5.8-0.6,8.8c0.3,5.7,4,18.7,4.8,30.1C155.8,170.4,109.4,169.2,91.6,154z"/>
				<g class="st18">
					<path class="st1" d="M91.6,154c3.9-12.2,12.4-20.6,11.8-26.6c-0.9-9.1-7.7-21.3-7.9-27.6c-0.6-22.4,5.8-26.4,12-28.1
						s19.4-4.1,19.4-4.1c3.8-0.1,18.8,0.7,18.8,0.7l9.8,2c5.2,4,9.8,8.8,13.7,14.1c7.1,9.6,9.6,24.9-1.1,33.1
						c-0.3,2.9-0.5,5.8-0.6,8.8c0.3,5.7,4,18.7,4.8,30.1C155.8,170.4,109.4,169.2,91.6,154z"/>
				</g>
				<path class="st14" d="M68,135.9c-2-4.3,2.8-15.2,7-23.8c4.9-10,11.6-24.8,14.9-29.9c2.7-4.2,6.7-7.8,17.5-10.4
					c5.2,8.8,5.6,19.7,1.2,28.9l-18.7,31.6L68,135.9z"/>
				<path class="st17" d="M75.6,125.5c4.1-3.3,8.8-6,20.7-4l-6.4,10.9L74,134.9L75.6,125.5z"/>
				<path class="st14" d="M124.9,137.8c0,0.2-6.5,2.1-13,3.4s-19.7,4.3-30.8,2.5c-5.1-0.8-11.2-4-13.1-7.9c-1.1-2.2,2-9.4,11.4-11.7
					s15-0.5,22.9,0.1c11.1,0.8,13.2,0.9,13.7-2.2L124.9,137.8z"/>
				<path class="st17" d="M106.2,142c-0.1,0.2-0.2,0.3-0.3,0.5c2.3-0.4,4.4-0.9,6-1.2c6.5-1.4,13-3.2,13-3.4l-8.9-15.6l0,0
					c0,1.4-0.3,2.9-0.8,4.2c-0.7,1.9-1.6,3.7-2.7,5.4C110.6,135.3,108.6,138.1,106.2,142z"/>
				<path class="st14" d="M128.6,129.3c-0.1-0.2-0.2-0.4-0.2-0.6c-0.7-1.7-0.7-3.6-1.4-5.3c-1.1-2.2-2.7-4.1-4.8-5.3
					c-1.3-0.8-2.5-1.8-3.6-2.9c-0.8-1.1-1.7-2.1-2.8-2.9c-1.2-0.8-2.5-1.3-3.9-1.4c-0.7-0.1-1.4,0-2,0.3c-0.7,0.4-0.5,0.8-0.2,1.4
					s0.7,1.2,1.1,1.8c1,1.5,2,2.9,3.1,4.2c1,1.2,1.8,2.5,2.3,4c0.3,1.5,0.3,3-0.2,4.4c-0.4,1.6-1,3.1-1.7,4.6
					c-0.6,1.2-1.2,2.3-1.9,3.4c-2.1,3.6-4.3,7.1-6.5,10.6c-0.2,0.3-0.3,0.6-0.3,0.9c0.2,0.6,1.3,0.8,1.8,0.8c0.9,0,1.7-0.4,2.3-0.9
					l0.2-0.1c2.2-1.9,7.6-10,7.6-10s-1.9,6.4-3.5,10.8s-2.9,7.6-3.2,8.5s3,1.6,4.9-1.3s5.5-12.6,5.5-12.6s0.5,5.4,0.9,8.8
					s0.6,8.1,0.8,9.3s2.8,0.4,3.5-2.3s0.3-10.3,0.3-10.3s2,5.8,2.5,6.5s2.7,1.3,3.2-1.8c0.4-2.1-0.3-3.8-1.8-8.8
					c-0.3-0.9-0.5-1.9-0.7-2.9c-0.1-1-0.1-1.9,0-2.9c0.2-2.2,0-4.3-0.8-6.4C129.1,130.5,128.8,129.9,128.6,129.3z"/>
				<path class="st17" d="M119.4,127.6c2.5,2.8,6.1,2.8,6.9,2.2C125.2,131.8,120.3,131.1,119.4,127.6z"/>
				<path class="st17" d="M132,153.7c-0.5,0.3-1.4,0-1.9-1s-1.4-4-1.9-5.4c-0.4-1.4-1.8-6.3-1.8-6.3l0.4,6.4c0,0,2,5.8,2.5,6.5
					c0.6,0.7,1.7,0.8,2.3,0.2C131.8,153.9,131.9,153.8,132,153.7z"/>
				<g id="freepik--Head--inject-7">
					<path class="st15" d="M112.4,4.7l-0.2,0.2c-2.3,1.9-3.8,3.8-6.8,4.5s-5.8,1.7-7.9,3.8c-1.9,1.8-2.9,4.3-2.8,6.9
						c0.1,1.2,0.7,1.5,1,2.5c0.3,1.3,0.1,2.7-0.6,3.8c-0.8,1.3-1.5,2.7-2,4.1c-0.6,2.5,0.8,5.1,2.6,7c1.1,1.1,2.3,2.2,2.7,3.7
						c0.6,2-0.5,4-0.5,6.1c0.1,3.6,3.7,6.2,7.3,6.6c2,0.2,4.3,0,5.9,1.3c1.2,1,1.6,2.6,2.7,3.7c1.1,1,2.5,1.6,4,1.7
						c2.5,0.4,5,0.2,7.3-0.6c2.4-0.8,4.3-2.5,5.5-4.8c1-2,1.2-4.4,2.2-6.4c2-3.8,6.8-5.3,9-8.9c1.4-2.3,1.6-5.1,0.7-7.6
						c-0.8-2-2.3-3.6-2.6-5.7c-0.4-2.7,1.2-5.2,1.5-7.9c0.3-2.8-0.9-5.6-3.1-7.3c-2-1.5-4.6-2.1-6.7-3.5c-1.3-0.9-2.3-2.1-3.5-3
						C123.3,1.4,117,1.3,112.4,4.7z"/>
					<path class="st8" d="M116.6,8.1c-2.5,1.9-4,4.8-4.2,7.9c-0.1,1,0,1.9,0.3,2.8c1,2,3.1,3.2,5.3,3c2.2-0.3,4.2-1.2,5.8-2.8
						c1.7-1.5,3-3.5,3.8-5.7c0.5-1.3,1.1-3.8,0.5-5.2C126.3,4.3,119,6.2,116.6,8.1z"/>
					<path class="st15" d="M121.6,6.5c2.1-1.8,4.6-2.9,7.3-3.1c2.6-0.2,4.1,0,6.7-0.5s4.6-1.8,7-2.4c5.3-1.3,11.1,1,14.9,4.9
						c1.7,1.8,3.1,3.9,5.4,4.7c1.2,0.3,2.3,0.4,3.5,0.5c3.7,0.6,6.8,3.6,8.2,7c1.1,2.8,1.5,5.8,1.3,8.7c-0.1,2.7-1.6,4.9-2,7.4
						s1.8,5.3,2.1,8c0.4,2.8-0.6,6-3.1,7.3c0.2-2.6-0.5-5.2-2-7.3c0.2,3.9-1.2,7.7-3.9,10.5c-2.7,2.8-6.7,4-10.5,3.3
						c-1.4-0.4-2.9-0.8-4.4-1c-2.9-0.2-5.6,1.7-8.1,3.2c-3.1,2-6,2.9-9.6,2s-7.6-1.8-10.7-4.2c-3.1-2.2-5.8-4.8-8.2-7.8
						c-4.9-6.4-5.7-14.1-4.2-21.8c0.4-2.7,1.4-5.4,2.7-7.8c0.7-1.1,1.5-2.1,2.5-3c0.2-0.2,2.1-1.5,2.2-0.9
						C118.7,11.4,119.6,8.6,121.6,6.5z"/>
					<path class="st14" d="M117.2,34.4c3.2-0.8,5.7,0.7,7,4.1c1.1,3,4.3,2.4,4.1-2.1c7.8-5.7,0.2-11,6.8-16.7
						c4.1-3.5,11.6-1.5,14.3,1.4c2.1-2.8,5.9-3.8,9.1-2.4c3.1,1.5,4.9,3.7,5.9,8.3c1,4.8-0.7,5.5-0.4,8.9c0.4,2.4,0.7,4.8,0.7,7.2
						c-0.3,11-4.4,16.9-8.1,19c-3.5,1.8-7.5,2.5-11.5,1.9l-0.3,6.1c0,0,6.2,10.9,5.2,18.7c-6.5-2.6-12.6-5.8-18.3-9.7
						c-9.2-6.3-9.5-10.3-9.5-10.3l1.7-20l0,0c-0.9,1.7-5.5,3.2-8.7-0.2C111,44.5,111.4,35.8,117.2,34.4z"/>
					<path class="st15" d="M162.4,33.5l-4.7-2.5c0.6-1.3,2.1-1.8,3.4-1.2c0,0,0.1,0,0.1,0.1C162.5,30.5,163,32.1,162.4,33.5z"/>
					<path class="st15" d="M144.3,30.6l-4.8,2.3c-0.7-1.2-0.2-2.8,1-3.5c0,0,0.1,0,0.1-0.1C142,28.8,143.6,29.3,144.3,30.6z"/>
					<path class="st17" d="M143.6,48.3l7.1,3.3c-0.9,2-3.3,2.8-5.2,1.9c-0.1,0-0.2-0.1-0.3-0.2C143.2,52.3,142.7,50.3,143.6,48.3z"
						/>
					<path class="st19" d="M147.3,53.8c0-2.1-1.6-3.9-3.6-4.1h-0.4c-0.2,1.5,0.5,3,1.9,3.7C145.8,53.6,146.5,53.8,147.3,53.8z"/>
					<polygon class="st17" points="151.1,34.1 151.7,47.9 158.7,45.9 					"/>
					<path class="st15" d="M146.2,36.8c-0.1,1.2-1.2,2.2-2.4,2.1c-1.2-0.1-2.2-1.2-2.1-2.4c0.1-1.2,1.2-2.2,2.4-2.1
						C145.4,34.5,146.3,35.5,146.2,36.8C146.2,36.8,146.2,36.8,146.2,36.8z"/>
					<path class="st15" d="M161.6,37c-0.1,1.2-1.1,2.2-2.4,2.1c-1.2-0.1-2.2-1.1-2.1-2.4c0.1-1.2,1.1-2.2,2.4-2.1c0,0,0,0,0,0
						C160.8,34.7,161.7,35.7,161.6,37z"/>
					<path class="st17" d="M145,64.1c-7-1.9-14.8-3.4-18.4-13.8c0.6,4.7,3,9,6.7,12c3.4,2.5,7.3,4.3,11.4,5.2L145,64.1z"/>
				</g>
			</g>
		</g>
	</g>
</g>
</svg>
